<svg xmlns="http://www.w3.org/2000/svg" version="1.0" viewBox="0 0 1004 1004"><path d="M913.6 1.2c.3.5 1 .6 1.5.2.5-.3 1.5-.1 2.2.4 1.9 1.4 7 2.5 6.2 1.2-.3-.5-.1-1 .4-1 .6 0 1.1-.4 1.1-1s-2.5-.9-5.9-.8c-3.3.1-5.7.6-5.5 1zm13.7-.5c.9.2 1.7.8 1.7 1.2 0 .4.9.7 2 .7s2-.4 2-.7c0-.4 1.4-.4 3.1.1 1.8.5 3.6.7 4.2.3.6-.4.7-.1.2.7-.6.9-.2 1 1.5.5 1.5-.5 2-.4 1.6.4-.5.7.4 1.4 2.4 1.7 2.2.5 2.9 1.1 2.5 2.2-.5 1.3-.3 1.3 1.2.1 3-2.4 3.2-3.2 1-5-2.2-1.8-2.2-1.8.5-.6 1.6.6 2.8 1.9 2.8 2.7.1 1.2.4 1.1 1.5-.4 1-1.3 1.9-1.6 3.2-1 1.6.7 1.6.8-.4 1.1-1.3.3-2.3.8-2.3 1.3 0 1.5 4 2.2 5.5 1 1.2-1 2.2-.9 4.8.4 2.2 1.2 2.5 1.6 1 1.3-1.3-.3-2.6 0-3 .6-.3.7-.3.9.2.5.4-.4 1.6-.3 2.7.3 2 1.1 5.3-1.6 4.2-3.3-.3-.4.2-.5 1-.2 1.1.4 1.6 0 1.6-1.1 0-1.7.1-1.7 2 0 1 .9 2.6 1.5 3.5 1.1.9-.3 1.3-.2 1 .4-.8 1.3-4.5 1.3-4.5 0 0-.6-1.2-.3-2.6.6-1.9 1.3-2.2 1.9-1.2 2.5.7.5 1.7.4 2.2-.1 1.8-1.8 4.6-1.1 4.6 1.1 0 1.5.4 1.9 1.6 1.5 1.4-.5 1.5-.4.5.8-.8 1-.9 1.6-.1 2.1.5.3 1 .3 1-.2 0-.4.5-.1 1.1.7.9 1.3 1 1.2.5-.3-.3-.9-.1-1.7.4-1.7.6 0 1-.7 1-1.5s-.5-1.5-1.2-1.5c-.6 0-.8-.3-.5-.6.4-.4 1.3-.1 2.2.6 1 .8 1.5.9 1.5.2 0-1.5 2.8-.4 5.2 2 2.1 2.1 2.4 3.3.6 2.2-.7-.4-.2.5 1.1 1.9 2.4 2.6 3.8 3.6 2.7 1.9-.2-.4-.1-1.4.3-2.1.6-.8 1.3-.2 2.5 2.1 1.3 2.4 1.6 2.6 1.2 1-.4-1.9-.1-2.3 1.4-1.9 1.8.4 2.2-1.4.7-2.9-.4-.4-.7-1.2-.7-1.8 0-.6.4-.5.9.3.6.9.9-1.4 1-6.2.1-7.7.1-7.7-28.7-7.7-21.7 0-29.1.3-30.1 1.2-1 .9-1.2.9-.7.1.5-.9-1.9-1.1-9.1-1.1-5.4 0-9 .3-8 .5zM481 50.7c29.5 4.4 46.8 9.5 53 15.4.8.8 4.1 2.7 7.3 4.2 3.4 1.7 5.4 3.3 5 4-.4.7 0 .8 1.1.4 1-.4 2.4-.1 3.3.9 1.4 1.4 1.3 1.5-1.8 1.1-1.9-.2-2.6-.2-1.6 0 .9.2 1.5.8 1.2 1.3-.3.5.8.5 2.5 0 1.6-.5 2.9-.5 2.9-.2-.4 2.3.4 2.9 2.7 2.4 1.8-.3 2.5-.1 2 .6-.4.6-1.3.9-2.1.5-3-1.1-1.4.8 1.8 2.3 2.8 1.2 2.9 1.4.7 1.2-1.4-.2-3.1-.8-3.8-1.5-.7-.7-2-.9-2.9-.6-1 .4-1.4.2-1-.4.4-.6 0-1.4-.8-1.7-1.2-.4-1.3-.2-.6 1.3.6 1 .8 2.1.5 2.4-.3.3.8.8 2.5 1.2 3.8.8 5 2.4 1.3 1.7-2.7-.5-2.7-.5-.3 1.7 2.2 2 2.5 2 3.7.3.7-.9 1.6-1.4 2-.9.4.4.2.7-.5.7s-.9.4-.6 1c.3.5.2 1-.3 1-1.2 0-1.2 3.3 0 4.1.5.3.2 1.3-.6 2.2-1.5 1.5-1.4 1.8.6 3.6 2.1 2 2.1 2.1.2 2.2-1.5 0-1.6.2-.4.7 2.5 1.1 2 3.7-.7 3.7-2.2 0-2.2-.1-.6-1.4 1.7-1.2 1.6-1.3-.4-.8-2.4.5-3.2-.8-1-1.6.6-.3.3-.6-.8-.6s-2.7.4-3.5.9c-.8.5-1.1 1-.6 1 .5 0 .3.6-.3 1.4-.9 1.1-.6 1.3 1.6 1 2.2-.3 2-.1-.9.9-4.6 1.5-5.7 2.5-2.1 2.1 1.7-.3 2.2-.1 1.3.3-2.6 1.4-2.2 3.3.8 3.4 1.5 0 2 .3 1.2.6-.8.2-2.2.7-3 1-1.2.4-1.2.7.4 1.9 1.3.9 1.5 1.4.6 1.4-1 0-.9.5.4 1.8 1.5 1.8 1.5 2-.3 3.6-1.9 1.8-4.7 1.4-3.5-.5.3-.5 1-.7 1.5-.4 1.7 1.1 3.1-.6 1.8-2.1-1.4-1.7-3-1.8-2.6-.2.1.7-.3 1.2-1 1.1-1.2-.3-1.2 1.4 0 3.3.4.7-.1 1.5-1.1 1.9-1.5.6-1.4.8.7 1.9 2.4 1.3 2.4 1.3 0 3-1.3.9-1.8 1.6-1.1 1.6s1 .4.7 1c-.3.5-.1 1 .4 1 .6 0 1.1-.5 1.1-1 0-.6.4-1 1-1 .5 0 .7.7.4 1.5-.4.9 0 1.5 1 1.5.9 0 1.6.4 1.6.9s.8.8 1.8.7c1 0 1.6.6 1.6 1.6-.1 1 .3 1.5.8 1.2 1.6-1 4.4 2.3 4.6 5.5.2 2.4-.1 2.9-1.3 2.5-1.1-.5-1.3-.2-.8 1.2.5 1.3.3 1.5-.8.9-1.3-.9-4.6-.8-9.1 0-1 .2-1.8-.1-1.8-.6 0-.6-.6-.7-1.2-.2-.7.4-1.9.8-2.7 1-4.5.6-19 11.1-17.5 12.5.2.2-1 1.9-2.6 3.7-3.2 3.4-3.8 4.7-1.7 3.5.6-.4.9-.4.5 0-.4.5-5.3 3.1-10.9 6-8.4 4.2-10.8 5.9-13.4 9.6-3.4 4.8-5.7 5.9-8.1 3.9-1.2-1-1.3-.9-.9.4.4.8 1.7 1.8 2.9 2.1 2.5.6 5.3 5.7 4.1 7.5-.3.6-.3 1.1.2 1.1.4 0 .8 2.4.9 5.3.2 17.3 6.3 22.6 26.1 22.8 14.3.1 25-7 19.2-12.8-.7-.7-.5-1.6.8-2.8 1.8-1.9 1.9-2.2 2.2-5.1.1-1.4.4-1.4 1.6-.4 1.3 1.1 1.4 1 .9-.4-.3-.9-1.1-1.6-1.8-1.6-.6 0-.4-.5.4-1.1 1.1-.8 1.2-1.2.3-1.6-1.6-.6-1.7-3.9-.2-4.9.6-.3.8-1.7.4-3.2-.6-2.3-.5-2.4 1.1-1.1 1.1.8 1.5.9 1 .2-.8-1.4 1.3-9.3 2.4-9.3 1.3 0 1.8-4.8.6-6.1-.8-.9-.7-1 .3-.4 1.1.6 1.3.4.8-.8-.3-1-.2-1.7.4-1.7.6 0 .8-.4.4-1-.3-.5.9-1.7 2.7-2.6 1.8-.9 4.2-2.5 5.3-3.5 2-1.8 2.1-1.8 2.2.1.1 1.1-.2 2-.6 2-.4 0-.8.7-.8 1.5s.3 1.5.7 1.5c.4 0 .7 2.1.7 4.7.1 4.7-1.1 7.8-2.7 6.8-.4-.3-1.6.7-2.6 2.2-.9 1.5-3.2 4.2-5.1 5.9-3.6 3.5-4 5.1-1.8 8 1.4 1.8 1.4 1.7 1.5-1.4 0-2 .4-3.1 1-2.7 1 .6 3.1-3.4 2.4-4.6-.2-.4.2-.9 1-1.2.8-.3 1.6.2 1.9 1.4.3 1 .1 1.9-.4 1.9s-.8.3-.7.7c0 .5-.1 1.5-.5 2.3-.3.8-1.1 4.6-1.7 8.5-1.3 7.6-5 14.6-8.7 16.6-1.3.7-2.3 1.6-2.3 2.1s-.4.7-.9.4c-.5-.3-2.1.6-3.7 2.1s-3.1 2.6-3.4 2.6c-.3 0-1.6.4-3 .9-1.4.6-5 1.2-8 1.4-8.7.8-15 2.4-15 4 0 .8-.4 1.3-.8 1.2-1.8-.6-11.4 10.2-10.9 12.2.3 1.1.1 2.3-.5 2.6-.5.3-1.3 1.6-1.8 2.9-2.2 5.9-11.4 4.4-23.1-3.7-4-2.7-12.2-7.7-18.3-11-13.4-7.4-16.2-9.8-11.7-9.8 1.6 0 3.3-.5 3.6-1 .4-.7-3.7-.9-11.7-.8-10.1.2-12.9-.1-15.5-1.5-4.4-2.4-9.9-2.2-11.3.3-1.4 2.7-3.1 1.7-6.3-3.6-4.1-6.7-7.4-7.8-17.1-5.5-12.2 2.9-12.8 5.1-1.9 6.3.7.1 1 .5.7 1-.3.4-.1.8.4.8s1.2.9 1.5 1.9c.4 1.8-1.4 2.4-2.8.9-1.2-1.2-4.4.4-3.8 1.9.5 1.4.8 1.3 2-.3 1.3-1.8 1.4-1.8 1.9.4.4 1.2 1 1.9 1.5 1.6.5-.3.9.2.9 1 0 1.9.5 2 3.1.6 1.4-.8 1.9-.7 1.9.3 0 .8 1.4 2.6 3 4 1.7 1.5 3 3.2 3 3.8 0 .7.8 1.8 1.8 2.6 1 .9 1.1 1.2.2.7-.8-.4-.5.4.8 1.8 2.5 2.8 2.9 6.3.7 7.2-.8.3-1.5 1.7-1.5 3.1 0 4.3 3.9 3.2 9.5-2.8 5-5.2 5-5.2 5.3-2.3.4 3.5-1.6 8.6-3.4 8.6-.8 0-1.4.7-1.4 1.6 0 .8-.4 1.3-.9 1-.5-.3-1.2.1-1.5 1-.3.8-1.1 1.2-1.7.9-.6-.4-.8-1.4-.5-2.2.4-.8.1-1.1-.5-.7-.6.3-.9 1.4-.6 2.3.3 1.2-.4 1.6-2.9 1.6-3.5 0-5.6-1.6-11.8-8.9-2.1-2.5-4.2-4.3-4.7-4-.5.3-.9-.2-.9-1 0-.9-.4-1.6-1-1.6-.5 0-1-.6-1-1.4 0-.8-1.5-2.7-3.2-4.1-1.8-1.5-2.7-2.4-2-2 1.1.6 1.2.3.3-1.4-.7-1.1-1.6-2.1-2.1-2.1-.6 0-2-1-3.1-2.1-1.7-1.7-2.3-1.9-3-.8-.5.8-.9.9-.9.3 0-1.3-3.1-2.6-6.7-2.9-4.3-.4-2.3 1.4 5.7 5.2 7.3 3.5 7.9 4 7.4 6.3-2.4 10.7-1.8 14.1 4.4 26.2 1.2 2.5-2.2.2-3.8-2.5-1.1-1.7-2.2-3.1-2.5-3-2.5.8-8.4-4.7-7.6-7.2.1-.5-.1-.7-.5-.2-.4.4-1.7-.2-2.8-1.2-2.9-2.7-5.3-1.4-3.6 1.9 1.2 2.2 1.2 2.2-1.7.5-2.6-1.5-7.3-9.4-7.3-12.3 0-.7-3.2-6.6-7.2-13-3.9-6.4-8.2-13.7-9.5-16.2-1.3-2.5-2.1-3.4-1.7-2 .3 1.4 1.2 3.4 1.8 4.5 1.5 2.4 2.7 5.5 2.2 5.5-1.3 0-5.7-10.7-5.4-13.1.3-1.5.1-2.6-.4-2.3-.4.3-.8 0-.8-.5 0-.6 1.1-1.1 2.5-1.1 2.4 0 2.4 0 0-3.5-1.3-2-3.1-7.1-4.1-11.5-.9-4.4-2-8-2.5-8-.4 0-1-1.5-1.2-3.3-.4-3.1-.4-3.1-.5.5-.1 2.1.3 3.8.8 3.8.6 0 1 .5 1 1.1 0 .5-.4.8-.9.5-1.1-.7 1.4 14.5 4 24.8 2.5 9.8 4.3 13.3 11.5 22.7 3.1 4.1 7.3 11 9.4 15.4 4.3 9.1 5.4 10.3 13 13.4 7.9 3.3 9.6 5 7 6.8-4.5 3.2.6 7.9 11 9.9 4 .8 8.4-1.9 7.7-4.8-.5-1.7-.2-1.9 1.9-1.4 1.4.4 6 1.4 10.2 2.2 7.8 1.5 24.2 8.7 24.2 10.6 0 .6-.8 1.7-1.7 2.4-1.7 1.3-1.6 1.4.4 1.1 1.3-.2 3.6-1.6 5.3-3.2 2.8-2.7 3.7-2.4 3.1.9-.1.5.5.6 1.4.3 2.3-.9 1.9 2-.5 3.5-1.1.7-2 1.8-2 2.4 0 .6-1.1 2.8-2.5 4.8-3 4.5-2.4 4.6 1.7.3 3.1-3.2 3.1-3.2.2 1-3.6 5.2-3.8 5.3-10.4 4.1-6.9-1.2-9.8-.5-10.6 2.8-1 4.1 8.2 6.5 17 4.5 6-1.4 9.7 1.3 5.6 4.2-1.1.8-1.7 1.7-1.3 2 .3.4 0 .7-.8.8-.8 0-2.3.2-3.4.4-1.1.3-4.9.7-8.5 1.1-7.6.8-10 2.4-10 7 0 3.8 3.3 6.5 5.3 4.5.8-.8.8-1.1 0-1.1-1.2 0-3.9-5.8-3.1-6.6.8-.7 6.8-.7 13.5 0 6.2.8 6.2.8 7.8-2.3.8-1.7 1.9-3.1 2.4-3.1 1.4 0 0 4.1-1.5 4.7-.8.3-1.4 1.3-1.4 2.3 0 1.6-8 4.9-10.3 4.2-.5-.1-.6.2-.3.7.4.5-.6 1.1-2.1 1.3-2 .3-1.1.6 2.9 1.2 4.9.7 6.1.5 8.5-1.2 3.1-2.2 4.3-1.9 6.1 1.3 1 1.7 1.1 1.8 1.2.2 0-.9.4-1.7.8-1.7s.8 1.7.7 3.8c0 4-.2 4.1-5 3.3-.5-.1.1-.8 1.5-1.6 1.6-.9 2-1.4.9-1.5-.8 0-2.6 1.1-3.8 2.4-2.3 2.4-2.3 2.5-.2 1.9 1.2-.3 2.1-.1 2.1.6 0 .5.6.8 1.4.5.7-.3 3.4.4 6 1.5 2.5 1.2 6.7 3 9.3 4.2 6.6 2.9 9.5 3 9.8.1.1-1.3-.2-2.5-.7-2.8-1.3-.8-.9-4.4.4-4.2 2.3.5 3.9 2.8 4.5 6.4.6 3.7.6 3.7 2 .9 1.4-2.5 1.5-2.6 2.8-.8.7 1 1.7 1.5 2 1.1 1.1-1 7.5 6.6 7.5 8.9 0 1.2-4.5 1.4-7.5.3-4.4-1.7-2.7 0 2.2 2.2 3.5 1.5 5.8 1.9 9.5 1.5 3.1-.4 4.8-.2 4.8.5 0 .6 1 .8 2.3.4 1.2-.3 3.3-.9 4.7-1.2 1.5-.4 2.2-.3 1.7.2-.5.5-1.2.9-1.5 1-.4 0-2.5.9-4.7 1.9-9.6 4.5-23 .9-39.7-10.7-8-5.6-11.3-7.2-13.1-6.5-.8.3-1.9.1-2.5-.5-1.4-1.4-17.9-1.4-21.3 0-3 1.2-4.6 5.6-2.8 7.8 1.6 1.9 5.2 1.7 12.9-.6 9.6-2.9 11.7-2.7 12.5 1.2.4 1.8 1.2 3.6 1.7 3.9 1.1.7-9.1 4.9-11.7 4.9-.8 0-1.7.4-2 1-.9 1.4 2.4 1.2 8.4-.6 2.8-.8 6-1.4 6.9-1.2.9.1 2.3-.1 3.1-.6.9-.6 1.2-.5.7.2-.3.6.2 1.6 1.3 2.1 2.5 1.4 3.4 1.4 2.6.1-.3-.6-.1-1 .4-1 .6 0 1.1.9 1.1 2 0 2.1 9.9 5.8 12 4.5.6-.4 2.6.5 4.5 1.9 1.8 1.4 3.8 2.6 4.4 2.6.6 0 1.8 1.1 2.7 2.5 2.3 3.6 10.4 3.4 20.1-.4 6.8-2.7 11.3-2.9 7.5-.3-4.2 2.9-15.6 8.1-16.5 7.5-.6-.4-.7-.1-.2.7 1.1 1.8-9.9.9-14.5-1.2-1.9-.9-5.7-2.6-8.5-3.8-2.7-1.1-5.6-2.7-6.5-3.4-5.9-5.3-15.3-8.8-22.9-8.6-4.2.1-8.3.2-9.1.2-.8 0-3-.6-4.8-1.3-3.9-1.6-6.2.3-6.2 5.2 0 4.6 1.8 5 9.5 2.3 9.6-3.3 15.5-3.3 15.5.1 0 3.3-3.3 6.5-6.7 6.5-3.7 0-2.3 1 2.2 1.5 5 .7 9.9-1 11.3-3.8.9-1.9 1.1-1.4 1.1 3.2.1 3 .4 5.2.7 4.9.3-.4 2.4.2 4.7 1.2 2.3 1 4.5 1.6 4.9 1.4.5-.3 2 .3 3.6 1.4 2.9 2.1 12.7 7.2 13.7 7.2.4 0 .6-1 .5-2.3-.4-4.7-.2-4.9 2.8-3.4 1.5.7 4.2 2.1 6 3 1.8.9 3.1 1.3 2.8.8-.9-1.4 2.6-2.3 3.8-1 .8.9.6 1-.8.5s-1.7-.2-1.2.9c.3.8.1 1.6-.4 1.6-4.7.6-7.1 2-6 3.4 1.3 1.6 6.4.5 12-2.4 1.9-1.1 5.9-2.6 8.8-3.4 8.8-2.6 6.6.6-3.9 5.8-11.5 5.6-18.8 5.7-30.2.6-7.9-3.6-7.6-3.5-7.3-1.9.3 2.2 1.7 3.9 2.7 3.3.5-.4.9-.1.9.6s.3.9.7.6c.3-.4 1.2.2 2 1.2.7 1.1 3.6 2.5 6.3 3.2 2.8.7 5.6 2 6.3 2.8 1 1.2.9 1.4-.6.8-1.1-.4-1.6-.3-1.2.3.3.6 0 1-.7 1.1-.7 0-.3.5 1 1.1 1.2.6 2.2 1.4 2.2 1.8 0 .3 1.7.5 3.8.4 3.4-.3 3.6-.2 1.7 1.2-1.3 1-3.5 1.3-7 1-4.1-.4-4.5-.3-2.5.6 4.5 1.8 13 .4 22.3-3.7 4.8-2.1 9-3.5 9.4-3.2.3.4-.3.9-1.3 1.2-3.5 1.1-4.9 2.3-4.7 3.7.2.8-1.2 1.9-3.5 2.7-2 .7-5.3 2-7.2 2.9-9.1 4.2-23.3 1-35.9-8.2-6.2-4.5-14.7-8.7-18.2-9-1.6-.1-3.2-.5-3.5-.9-.4-.4-1.8-.7-3.1-.7-1.4 0-2.3-.6-2.3-1.5 0-1.1 1.1-1.5 4.1-1.5 2.3 0 4.7-.7 5.5-1.5.9-.8 1.1-1.5.5-1.5-.6 0-.3-.9.7-2 1.6-1.9 1.8-1.9 2.9-.3.7.9 1 1.9.5 2.2-.6.6-1.3 4.1-.7 4.1.1 0 1.9.7 4 1.6 2 .8 3.4 1 3 .5-1-1.6.1-1.3 2 .5 2.1 2.2 8.9 4.5 9.3 3.3.2-.5.9-.6 1.5-.2.7.3.5-.2-.4-1.3-1.9-2.2-3.1-6.4-1.9-6.4 3.8 0-.9-4-8.4-7.1-4.7-1.9-9.5-4.5-10.7-5.7-2.2-2.5-10.6-3.1-12.7-1-.9.9-1.2.9-1.2-.2 0-1-.4-1-1.7.2-3.6 3-4.6 3.2-3.8.7.5-1.6.4-2.1-.3-1.4-4.5 4.5-1.6 7.3 5.5 5.3 6-1.7 9.3-1.3 9.3 1.1 0 2.8-1.9 3.8-8.8 4.5-8.8 1-11.2 2-11.2 4.9 0 3 1.8 4.7 4.9 4.7 1.9 0 2.2.3 1.2.9-.8.5-5.7.7-11 .4-6.9-.4-12-.1-18.1 1.2-4.7.9-9.1 1.7-9.7 1.7-.7.1-1.3.5-1.3 1s-.5.6-1 .3c-1.4-.9-6.8 2.6-11.1 7.2-4 4.3-8.3 11.3-6.9 11.3 4.6 0 26.4 3.6 33.8 5.5 10.2 2.7 11.6 2.9 10.8 1.7-1.2-1.9 3.7-7.3 9.1-10.2 3.2-1.7 7.2-3.9 8.8-5 1.8-1.1 3.6-1.6 4.3-1.1 1.6 1 2.1 6.5.5 6.6-.6 0-1.5.3-1.9.7-1.2 1.3-2.4.9-2.4-.7 0-2.4-2.4-.6-4.1 3-2 4.2-1.9 4.2 2.9 1.1 3.6-2.4 12-5.2 12.8-4.3.9.9-.9 3.7-2.5 3.7-.9 0-2.9.9-4.6 2-1.6 1.1-3.9 2-5.1 2-1.7 0-2.1.7-2.2 3.5-.2 3.9-2.5 7.1-4.3 5.9-.8-.4-.9-.3-.5.4.9 1.5 3.6 1.6 3.6.2 0-.6.5-1 1.1-1 .6 0 .9.6.6 1.2-.5 1.7 3.1 4.8 5.5 4.8 1 0 1.8.5 1.8 1.1 0 .5-.6.7-1.2.3-.8-.4-.9-.3-.5.2.5.5 1.6.9 2.5.9.9 0 1.6.6 1.5 1.2-.2.7 0 1.2.5 1.1.4-.1 2.4.7 4.4 1.7 3.7 1.8 3.7 1.8 9-3.4 5.7-5.6 6.5-5.1 7.1 3.8.3 3.6-6.6 7.1-9.2 4.7-1-.9-2.2-1.6-2.7-1.6s1.3 2 4 4.4c5 4.4 5 4.4 9.8-.3 5-4.7 9.3-6.9 13.8-7.1 3.6-.1 6-1.7 3.8-2.5-1-.4-2.2-.4-2.8 0-.5.3-1 .3-1-.2 0-.4-1.4-1.6-3-2.5-1.7-.9-3.5-2.9-4-4.3s-1.4-2.5-2-2.5c-.6 0-.9-.4-.5-1 .3-.5 1.4-.2 2.5.7 1 .9 1.6 2.1 1.3 2.6-.3.5.4.4 1.6-.2 1.7-1 2.1-.9 2.1.4 0 .9.4 1.4.9 1 .5-.3 1.7.2 2.5 1.1 1.3 1.2 2 1.3 3.1.4s7.2-.9 8.3 0c.1.2.5.3 1 .4.4.1 1.7.8 3 1.5s3 1 3.7.7c3.1-1.2 7.9 4.8 6.7 8.4-1 2.6-.9 3.1.1 2.4.7-.5.5-.1-.6.8-1 1-1.6 2.2-1.2 2.8.3.5-.2 1.3-1.2 1.7-1 .3-3 1.9-4.5 3.5-1.4 1.6-3 3-3.5 3-.4 0-1.8.4-3.1.9-3.3 1.3-5.5 1.1-4.6-.3.4-.7.3-.8-.5-.4-.6.4-1.4 0-1.8-1.1-.6-1.8-2.2-3.3-3.5-3.3-.3 0-.5 1.6-.3 3.5.3 3.4.3 3.4-2.1 1.9-1.3-.9-2.4-2.3-2.4-3 0-1.2-2.2-1.9-3.3-1.2-.2.2-1.2-.4-2.2-1.2-1.1-.9-1.6-1-1.1-.3.4.8.2 1.3-.5 1.3s-1 1.1-.7 3c.4 2.9.4 3-1.5 1.2-1.6-1.3-1.9-1.4-1.4-.2 1.6 4.2 3.3 7 4.2 7 1.4 0 4.3 5.2 3.8 6.7-.2.6 0 1.4.5 1.7.5.3 1.7-1.4 2.6-3.7 2.7-7.2 23.4-15.4 21.7-8.7-.2.8-.5 2.4-.6 3.5-.2 1.1-.4 2.4-.6 3-.6 1.8 1.9 7.5 3.6 8.1 3.1 1.2 1.3 1.9-4.7 1.7-5.2-.1-5.7 0-2.6.6 4.3.9 10.8 5 10.8 6.9 0 .7.5 1 1 .7.6-.3 1.3.1 1.6.9.3.9 1.2 1.6 1.9 1.6 1.8 0 2.6 2.5 1.2 3.9-.8.8-.9 1.4-.1 1.9 1.9 1.2 2.3 4 .8 5.2-1 .9-1.8.9-2.7.2-4.3-3.6-30.7-.1-30.7 4 0 1.2 1.8.9 4.9-.6 5.7-3 11.8-3.9 16.6-2.6 5.9 1.6 15 9.7 10.4 9.2-.3-.1-.6.5-.6 1.3s.4 1.2.9.9c1.2-.8 1 2-.3 3.3-.8.8-.7 1.3.2 1.8.8.5 1 .4.5-.3-.4-.7-.2-1.2.3-1.2 1.4 0 1.4 1.7.1 2.5-.6.4-.8 1.1-.5 1.6.4.5-.2.6-1.1.2-1.4-.5-1.6-.3-1.1 1.1.6 1.5.4 1.7-1 1.1-1-.4-3.4-.9-5.3-1.2-1.9-.2-4-.6-4.6-.8-3.2-1-20.4 4.6-20.4 6.6 0 1.4 3.2 1.1 4.9-.5 2.2-1.8 7.8-3.6 11.5-3.6 7.6 0 23.1 9.6 19.6 12.1-1.2.9-1 1 .8.6 1.9-.4 2.1-.3 1.2.8-.7.8-.8 1.9-.4 2.6.4.7.2 1-.7.7-.8-.3-1.3-1.1-1.1-1.7.1-.7-.2-.9-.8-.6-.6.4-.9 1-.6 1.3.3.3 0 1.2-.7 2-1 1.3-.9 1.4.3.7 1.2-.6 1.3-.5.3.5-1 1.1-.9 1.6.5 2.7 1.6 1.2 1.5 1.4-.8 3.2-2.7 2.2-6 3.3-6 2.2 0-1.1-13 .6-17.7 2.3-2.4.8-4.3 1.3-4.3.9 0-.3-.6 0-1.4.6-.8.7-2.5.9-4.1.5-2.4-.6-2.6-.5-2 2.2.5 2.6.4 2.6-1.2-.7-1-2-2.3-3.4-3-3.2-.6.2-1.4-.1-1.8-.6-.3-.6-1.1-1.1-1.7-1.1-.6 0 .1 1.1 1.7 2.5 1.8 1.7 2.5 3.3 2.2 4.5-.3 1.1-.1 2 .5 2 .5 0 .6.4.3 1-1 1.7.7 1.1 2.9-.9 6.3-5.9 28-10.5 29.4-6.2.2.6.8.9 1.2.6 1.6-1 6.5 4.6 6.8 7.8.1.4.8 1.5 1.7 2.3.8.9 1.3 2 1 2.5-.3.5-.1 1.8.5 2.9.9 1.7.8 2-1.2 2-1.9 0-2 .2-.8 1s1.2 1 .1 1c-.8 0-1.2.8-.9 2.3.4 2.3.4 2.3-6.6.4-8.3-2.1-16.3-.9-25.5 3.8-6.1 3-6.1 3-5.4.4.5-1.9.4-2-1.6-1-1.6.9-2.1.9-2.1 0 0-.7-.3-.9-.7-.5-.5.4.1 1.4 1.1 2.2 1.9 1.4 1.9 1.4-.2 1.4-1.4 0-2.2-.6-2.3-1.8 0-1-.3-1.2-.6-.5-.2.7.9 2.7 2.6 4.4 2.2 2.2 3.1 2.6 3.1 1.4 0-.8.8-1.8 1.8-2.2.9-.3 3.7-1.5 6.2-2.7 5.3-2.5 22-3.1 22.8-.8.2.6.8 1 1.3.6.5-.3.9 0 .9.5 0 .6.9 1.1 1.9 1.1 1.1 0 2.3.5 2.7 1.2.5.7.2.9-.7.4-.8-.4-.6-.1.3.6 1.5 1.3 1.5 1.5 0 2.6-.9.7-1.1 1-.4.7.7-.4 1.2.1 1.2 1s-.4 1.3-1 1c-.5-.3-1-.2-1 .4 0 .6.9 1.5 2.1 2.1 2 1.1 2 1.2.2 3-1 .9-2.2 1.5-2.8 1.2-.5-.3-.4.1.2 1 .7.8 1 1.8.6 2.1-.3.4.2.7 1.3.7 1.6 0 1.6.2.4 1-1.3.8-1.2 1.1.5 2.5 1.1.9 1.4 1.4.8 1-.9-.4-1.3.1-1.3 1.5 0 1.2.4 1.8 1 1.5.6-.3 1-.1 1 .5 0 1.2-2.1.8-9.4-1.5-6.2-1.9-12.9-1.9-18.1.1-7.7 3-8.8 2.9-13.3-1.4-3.9-3.7-6.2-4.4-2.6-.7 1.3 1.2 1.5 2.7.9 7-.7 5.6-1.7 6.8-3.3 3.9-2.5-4.5-10.2-6.1-10.2-2.2 0 .9.3.9 1.2 0 1.5-1.5 3.1-1.6 2.2 0-.4.6-.3.8.4.4.6-.3 1.4-.1 1.9.6 1.1 1.9 1.3 3.8.2 3.8-.4 0-.6.6-.3 1.4.3.8.1 1.7-.5 2-.6.4-.8 1.3-.5 2.1.4.8 1.1 1.2 1.7.8.6-.4.7-.1.3.6-.6.9-1.2.8-2.6-.4-1.8-1.6-1.8-1.6-1.3.4.3 1.2.1 2.1-.6 2.1-.6 0-1.1.7-1.1 1.6 0 1.1-.6 1.5-2 1.1-1.3-.3-1.8-.1-1.3.6.4.7 0 .8-1.1.4-1.4-.6-1.7-.3-1.2 1 .4 1.1-.2.8-1.3-.7-2-2.5-2-2.5-1.4-.1.5 2 .3 2.2-1.4 1.7-2.5-.8-5.5.3-4.6 1.7.4.6 0 .8-1 .4-.9-.3-1.9-.1-2.3.5-.5.7-.2.8.7.4.8-.4.5 0-.5.8-1.1.9-2.4 1.6-2.9 1.6s-.7.6-.4 1.2c.2.7 1 1.2 1.6 1 .7-.1.9.2.6.8-.4.6-1.4.9-2.2.6-1.7-.7-5.3 1-5.3 2.5 0 .6.7.3 1.6-.5 1.8-1.9 2.5-2 2.1-.5-.1.7-4.9 3.6-10.6 6.5-5.7 3-10.9 5.8-11.5 6.3-.6.5-4.2 2.5-8 4.5s-6.5 3.6-6 3.6.1.5-.9 1.1c-.9.5-2.2.7-2.7.4-.6-.4-.9-.1-.8.5.9 3.6-28.7 9.8-51 10.7-28.2 1.1-47.7-4.6-62-18.1-3.4-3.1-3.4-3.1-1.9.9.9 2.2 1.8 7.8 2 12.4.7 11.7 5.2 20.9 13.8 28 5.9 5 7 5.5 9.8 5.2.7-.2 1 .2.7.7-1.5 2.4 27.9 13.1 30 10.9.3-.3-1.8-1-4.5-1.7-6-1.4-6.1-1.9-2-5.5 7.3-6.1 42.6-19.5 51.4-19.5.8 0 1.5-.5 1.5-1.1 0-.7.8-1.8 1.8-2.6.9-.8 1.2-1.2.6-.9-2.2 1.1-6.7 1.5-5.7.5 1.3-1.3 7.5-3 6.8-1.8-.4.5 0 .9.7.9.7.1.3.9-1.1 2-2.3 2-2.3 2 0 2 3.1 0 5.3-1.5 4.5-2.8-.3-.6-.2-1.3.4-1.7.9-.6 1.5.8 1.1 2.9-.2.8 2.3.4 7.4-1.1 2-.6 2-.6 0 1.7-1.1 1.2 1.6-.4 6-3.8 15.2-11.3 39.3-25.6 30.3-17.8-1.5 1.2-2.4 2.6-2.1 3 .4.4-.1.4-1.2 0-1.4-.6-1.7-.4-1.3.7.3.8-.6 2.5-2 3.9-1.6 1.5-2 1.7-1.1.5 1.3-1.8 1.3-1.9-.3-.6-1 .7-1.8 1.9-1.8 2.7 0 .7-.5 1.6-1.2 2-.7.4-.8.3-.4-.4 1.1-1.8 0-1.4-1.5.5-.8.9-.9 1.4-.3 1 1.3-.8 2.7 2 1.8 3.5-.3.5-1.5.7-2.6.5-1.1-.3-1.7-.3-1.4 0 .3.4-.2 1.5-1.1 2.6-1 1.1-1.2 1.7-.5 1.3.6-.4 1.2-.3 1.2.3 0 1.1-.4 1.5-8.5 8.6-3.1 2.7-6.6 5.8-7.6 6.8-1.1 1-2.5 1.5-3.1 1.1-.6-.4-.8-.3-.5.3.4.5-1.8 2.3-4.8 3.9-3 1.5-5.5 3.3-5.5 3.8s-.3.6-.6.3c-1.1-1-4.5 1.3-3.8 2.5.4.6.3.8-.4.4-.5-.3-2 .6-3.2 2.1-1.2 1.6-1.8 2.1-1.4 1.3.5-.9-.1-.8-1.5.5-1.3 1.1-2.6 2-3 2-.3 0-.5.3-.3.8.1.4-.1.6-.5.6-2.1-.3-3.6.4-6.4 3.1-1.8 1.6-3.6 2.7-4 2.4-.5-.3-1.2.1-1.5 1-.3.8-1.1 1.3-1.9 1-.7-.3-1.9.1-2.6.8-1.9 1.8-6.6 3.8-8.9 3.8-1.1 0-2 .5-2 1.1 0 1.8-19.8.4-29.8-2.1-15-3.6-22.9-7.5-30.8-15.2-5.4-5.2-7.3-6.5-7.7-5.4-.4.9-.1 1.5.5 1.3.8-.1 1.6 3.5 2.3 11 1.3 13.1 4.6 20.9 11.9 28.6 5.5 5.7 5.5 5.7 8.3.9 5.9-10.4 16-17.7 22.7-16.5 2.5.5 2.5.6.9 1.9-1.7 1.3-1.7 1.4.2.7 2.1-.7.7 2-2 3.9-.5.4-1 1.3-1 2 0 .8-1.1 1.3-2.8 1.2-2.2-.1-2.5.1-1.5 1.3.6.8.7 1.3.2 1.2-2.1-.4-2.8.2-1.4 1.2 1.2.8 1.1.9-.5.7-1.2-.2-1.9.2-1.7 1 .1.6-.4 1.1-1 1-.7-.2-1.2.3-1 1 .1.8-.2 1.1-.8.7-1-.6-4.3 1.9-3.5 2.7.2.2-1.4.4-3.5.3-2.5-.1-3.7.2-3.1.8.6.6 2.3 1 3.9 1.1 1.7.1 2.8.4 2.7.7-.2.3 2.4 2.2 5.8 4.2 8 4.7 10.7 7.2 10.7 10.1 0 3 .9 3.7 9.5 7 14.8 5.9 18 5 43.9-12.6 12.8-8.7 13.1-9 12.7-13.6-.3-3.9 12.3-26.6 17.9-32.2.3-.3 2.2-3 4.3-6 2-3 5.7-8 8.2-11 2.5-3 6.6-9.1 9.2-13.5 4.6-8 17.6-22 19.4-20.9.5.3.9.2.9-.3 0-.4 1.4-1.4 3-2.1 1.8-.9 2.7-1.8 2.3-2.5-.4-.7 0-.6 1 .1 2.2 1.9 7-1.5 5.6-4-.6-1.1-.4-2 .6-2.8.8-.7 1.5-1.8 1.5-2.5 0-4.7 4-2 5.1 3.5.5 2.9.7 2.2.9-3.5.4-10.7.7-12.1 3.5-14.9 6.3-6.3 19.6-6.8 29.3-1.2 1.7 1 2 1.5 1 1.9-1 .3-.8.9.7 2.1 1.5 1.2 1.6 1.6.5 1.6-1.2 0-1.2.2.2 1 .9.6 1.5 1.8 1.4 2.8-.2.9.2 2 .7 2.4.7.4.7 1.1-.1 2.1-1 1.2-.8 1.4 1.5 1.1 1.6-.2 2.1-.1 1.3.2-2.4 1.1-2.9 2.6-1.4 4.1 1.7 1.8 1.8 3.3.2 3.4-.7 0-.4.4.7.9s1.4.9.8.9c-1.6.1-1.7 3.1-.2 3.1.6 0 .3.7-.6 1.6-1.5 1.6-1.4 1.8 1.2 3.6 2.5 1.8 2.5 1.9.5 1.5-1.2-.3-2-.1-1.6.4.3.5-.1.9-.8.9-1 0-1 .2.1.9s1.1.9 0 1.4c-1 .4-.9.6.4.6.9.1 1.7.5 1.7 1 0 .4-4.4.7-9.7.6-5.4-.1-13.3.4-17.5 1.1-16.9 2.8-15.5 2.8-16.3-.5-.6-2.9-.7-2.9-2.6-1-2.7 2.7-4.5 2.3-6.7-1.6-1.1-2-1.1-2-1.2.2 0 1.2.5 2.5 1 2.8.7.4.3 1.4-.9 2.4-1.1 1-1.7 2.2-1.3 2.7.4.4-.2.2-1.2-.6-1.1-.8-1.7-1-1.3-.4.4.7 0 1.5-.9 1.8-.8.3-1.2 1-.9 1.6.3.5.2 1-.3 1-1.4 0-5.2 3.6-5.2 4.9 0 .6-.3 1-.7 1-2.1-.3-3.3.2-3.3 1.6 0 .8-.6 1.5-1.2 1.5-1.1 0-8.8 7.3-8.8 8.3 0 .2-3.4 3.8-7.5 8s-7.5 8.2-7.5 8.8c0 1.7-4.7 6.9-5.5 6.1-.4-.4-.5 0-.3.8s-.3 1.4-.9 1.2c-.7-.1-1.3.5-1.3 1.3s-1.7 3.3-3.9 5.5c-2.1 2.2-3.6 4-3.2 4 .3 0 .1.4-.4.8-1.4 1-8.9 11.6-7.6 10.8.5-.4 4.5-5 8.8-10.4 10.9-13.6 14.6-17.5 24.3-25.6 4.7-3.8 8.7-7.3 9-7.6 1.4-1.5 10.3-8.2 16-12 7.3-4.9 6.6-3.6-3.4 5.9-3.7 3.6-8.6 8.3-10.7 10.3-2.1 2.1-3.9 4.2-3.9 4.8 0 .5-1 1.9-2.2 3.2-1.3 1.3-2.4 3.2-2.6 4.3-.6 3.4-3.5 5-4.6 2.5-1.3-3-2.1-2.5-5 2.9-1.4 2.7-4.6 8.1-7.1 11.9-2.5 3.9-4.5 7.3-4.5 7.6 0 1.6 11.3-7.6 19.4-15.7 5.2-5.3 11.6-10.8 14.3-12.3 2.6-1.5 7.3-4.4 10.3-6.4 3-2.1 8-4.6 11-5.8 3-1.1 6.2-2.3 7-2.6 1.9-.8 2 4.1.2 5.3-.7.4-.4 1.1 1 2 2.1 1.3 2.1 1.3 1.4-11.3-.4-8.3-.3-12.6.4-12.6.5 0 .9.5.8 1.1-.2.6.3 1.4 1.1 1.7 1 .3 1.3-.2.9-2.3-.8-3.7 4.3-9.1 9.4-10 7.4-1.4 20.3 3.3 18.2 6.6-.3.5 0 .8.8.7.7-.2 1.2.3 1 .9-.1.7.3 1.3.8 1.3.7 0 .7.6 0 1.9-1.4 2.8-1.3 3.4.8 2.7 1.4-.5 1.4-.4-.2.9-1.9 1.5-1.9 1.5.2 1.5 1.5 0 2 .5 1.6 1.5-.4.8-1 1.3-1.4 1-.5-.3-1.2 0-1.6.7-.4.7-.3 1 .1.5 1.5-1.3 4.7 2.4 3.4 4-.9 1-.8 1.3.5 1.3 1.9 0 2 .5.6 3-.9 1.6-.8 1.8.6 1.3s1.5-.3.6 1.4c-.8 1.5-.8 2.5.2 3.9 1.2 1.6 1.2 2.3 0 3.9-.9 1.2-1.4 1.4-1.4.5 0-.7-.3-1-.6-.7-.4.4-.1 1.3.5 2.1 1 1.1.8 1.7-.6 2.5-1.5.9-1.5 1-.2 1.1.9 0 1.6.7 1.6 1.5s-.7 1.5-1.6 1.6c-1.2 0-1.1.3.4.9 1.1.5 1.5.9.8.9-.6.1-1 1.5-.9 3.3.2 1.8-.2 3.6-.8 4-.7.5-.7.8.2.8.7 0 1 .5.6 1.2-.4.6-.3.8.4.4 2.2-1.3 7-1.4 6.5 0-.2.7-1.2 1-2 .7-1.1-.4-1.4-.2-.9.5 1.9 3.1-25.5 3.8-38.6.9-4.2-.9-7.9-1.7-8.1-1.7-.2 0-.2 2.4-.1 5.2.2 2.9.1 4.8-.3 4.2-.5-.6-1.6-1-2.6-.8-.9.1-1.5-.2-1.1-.7.3-.5 0-.9-.7-.9-.8 0-.8-.4.1-1.5 1.1-1.3 1-1.4-.2-1-1.2.5-1.5-.1-1.5-2.9.1-1.9.3-3.4.5-3.2.6.7 7.2-5.8 7.2-7.1 0-.8.7-2.7 1.5-4.2 1.8-3.6 3.2-12.5 1.5-9.9-.6 1-1.6 1.8-2.2 1.8-.6 0-1.9.9-2.8 2-1.1 1.3-2.1 1.7-2.5 1-.8-1.3-2.5-1.3-2.5.1 0 .5.4.7 1 .4.6-.3 1-.4 1-.2 0 1-7.2 4.7-8.1 4.2-.5-.4-.6 0-.4.8.3.7-.5 1.9-1.9 2.7-1.4.7-2.3 1.7-2 2.1.3.5-.1.6-.9.3-1.8-.6-13 10.3-12.1 11.8.4.6.3.8-.3.5-1.1-.7-3.7 1.5-7.2 5.9-2.5 3.2-4.5 1.9-3.8-2.4.3-1.7.1-2-.9-1.1-.7.5-1.1 1.9-.9 2.9.2 1-.3 2.1-1.1 2.4-1 .4-1.3.2-.8-.7.4-.6-.2-.4-1.4.7-1.2 1-1.9 2.3-1.6 2.8.3.4 0 .7-.8.6-.7-.2-1.2.2-1.1.9.2.7-.3 1-1.1.7-.8-.3-1.7 0-2.1.6-.3.6-.3 1 .2.9 2.3-.4 2.3.4-.1 2.7-1.4 1.5-2.6 3.1-2.6 3.6 0 1.7-3.7 5.8-4.5 5-.5-.4-.5-.1-.1.6.5.8.1 2.1-1 3.3-.9 1-1.3 1.9-.9 1.9.5 0 0 .6-1.1 1.4-1 .8-1.6 1.8-1.2 2.2.4.4.2 1.4-.5 2.2-2.8 3.4 3.1-.8 6.7-4.8 2.1-2.3 4.2-3.8 4.8-3.4.7.4.8.3.4-.5-.5-.7.5-2.5 2.3-4.3 1.7-1.8 3.1-3.5 3.1-4 0-4.7 26.4-22.5 30-20.3 2 1.3-5.8 11.5-8.8 11.5-.6 0-1.1.4-1 .9.2.4-2.1 3.1-5 6-2.9 2.8-5 5.1-4.6 5.1.3 0-1 1.4-3 3.2-2 1.7-3.6 3.7-3.6 4.4 0 2-4.3 2.5-6.4.6-1.8-1.5-1.9-1.5-.8 0 1.3 1.6-2.6 7.6-6.5 10.1-.7.4-1.9 1.4-2.7 2.2-.9 1-1.7 1.1-2.1.5-1.2-1.9-3.3-1.1-2.8 1 .3 1.1.9 2 1.5 2 1.2 0-4 9-6.5 11.2-1.9 1.8-1.8 1.8 1.6 1.8 2.3 0 3.7.6 4.1 1.6.9 2.4.7 3.6-.6 2.8-.7-.5-.8-.3-.4.5.5.7 0 2.1-1.1 3.3-1 1.1-3.2 4.5-4.8 7.6-3.3 6-5.5 7.7-5.5 4.2 0-1.2-.5-3-1-4.1-.8-1.4-.7-1.9.2-1.9 1 0 1-.2-.1-.9-1.7-1.1-10.7-.6-10.3.6.2.4 1.1.6 2 .5.9-.2-.3 1.1-2.7 2.9-2.5 1.7-5.4 4.1-6.6 5.3-1.2 1.2-4.2 3.4-6.8 5-2.5 1.6-4.3 3.4-4 3.9.3.6.1.7-.5.3-.6-.4-4.8.3-9.4 1.5-5 1.2-11.1 2-15.3 2-3.8-.1-7.8-.2-8.9-.2-1.9 0-11.9-3.6-19.3-6.9-5.7-2.6-18-12.7-22.8-18.7-2.1-2.6-4.2-5.3-4.7-5.8-1.1-1.1 1.1 4.4 2.4 6.1.4.6 1.9 4.6 3.4 9 5.5 16.8 14.1 28.2 25.7 33.8 12.6 6.1 36 10.6 37.3 7.1.3-.8 1.3-1.1 2.2-.8 1.2.4 1.4.3.7-.5-.5-.6-2.3-1.2-4-1.4-3.2-.3-3.9-8-1.3-14.7 1-2.8.1-4.1-3-4.4-1.9-.1-2.1-1.1-.4-1.3 15.9-1.4 22.3-4.1 32.4-13.7 4.8-4.5 9.1-7.7 10.3-7.7 2.1 0-1.6 6.4-5.7 9.8-4.9 4.1-7.7 7.5-7.2 8.4.3.4 0 .8-.6.8s-.8.5-.4 1.2.3.8-.4.4c-.8-.4-1.2 0-1.2 1.1 0 1-.7 3-1.4 4.5-.8 1.6-1.1 2.8-.5 2.8 1.7 0 .9 2.9-1.2 4.3-2.1 1.5-2.1 1.5-.1 2.1 1.1.4 2.3 1.4 2.6 2.3.7 1.8-1.2 3.5-2.9 2.5-.5-.3-.4.1.3 1 1 1.3.8 1.7-1.8 2.8-1.6.7-3 1.7-3 2.2 0 1.4-2.7 3.8-3.4 3.1-.3-.4-.6 0-.6.9 0 3.3-11.8 8.6-12.8 5.8-.2-.6-.8-1-1.3-1-.6 0-.7.5-.3 1.2.5.8.2.9-1 .5-.9-.4-1.5-.3-1.2.1 1.2 2-16.3.3-24-2.3-17.3-5.9-26.7-13.5-31.4-25.4-1.4-3.4-2.6-5.7-2.8-5.2-.2.5.4 2.4 1.4 4.2 1.2 2.4 1.5 4.7 1.1 8.8-.5 4.7-.4 5.1.4 2.3 1.3-4.5 3.4-2.8 4.4 3.5.9 6 7 23.7 10 28.9 5.2 8.9 14.5 18.8 12 12.6-1.1-2.6-2.2-8.1-2.8-13.4-.4-4.7-.4-4.7 2.2-3.4 7.8 4 10.2 3 11.6-4.7.8-3.9 1.1-4.2 3.3-2.8 2.4 1.5-3.8 25.2-7.3 28.1-1.2 1-1.8 1-3 0-.8-.7-2.2-.9-3.2-.5-3.7 1.5-6.2 1.4-5.6-.3.4-1 .2-1.3-.5-.8-1.5.9-.3 10.7 1.6 12.5 3.7 3.8 4.9 11 1.6 9.7-.9-.3-1.4.1-1.4 1.1 0 2.8-5.4-3.1-8-8.7-1.3-2.8-2.5-4.8-2.8-4.6-.6.6 5.6 12 7.9 14.5 5 5.3 16.9-2.1 16.9-10.5 0-.6 1.8-3 4-5.4 3-3.3 4.6-6.2 6-11.5 1.1-3.8 3.3-10.8 4.8-15.5 3-9.4 1.4-8.3 15.4-11 5-1 6.7-2 12.6-7.4 3.8-3.5 8.7-7.3 11-8.6 5.8-3.2 6.5-8.4 1.5-11.3-2.5-1.5.8-9.4 6.8-16 2.9-3.2 3.9-5.4 1.7-4.1-.6.4-.8.3-.4-.4.3-.6 1.8-.9 3.1-.6 1.7.3 2.7-.1 3.1-1.1.4-.8 1-1.5 1.6-1.5.5 0 .6.5.2 1.1-.4.7.1.9 1.2.7 1.3-.3 1.8-1.1 1.6-2.8-.1-1.8.1-2.1.7-1.1 1.6 2.5 6.5-7.5 6.8-13.7.2-6.1 1.4-7.9 15.6-22.8 8.6-9.1 10-9.7 17-6.9 1.5.6 1.7.1 1.7-4.7 0-6 .5-6.9 9.9-17.6 6-6.9 7-7.2 14-4.1 4.7 2 7.8 5.7 9.5 11.5.7 2.2-.2 2.4-17.1 4.9-5.2.8-5.7 1.5-4.9 6.9 1.1 7 2.3 8 11.1 8.6 11 .7 13.2-2 12.5-15.5-.2-2.2-.3-5.4-.4-7 0-1.7-.5-3.3-1.1-3.7-.6-.5-.3-.8.7-.8 1.1 0 1.8-1 2-2.8.4-2.7.4-2.7 1.5-.2 1.2 2.5 1.2 2.5 1.2.2.1-1.5.5-2.1 1.3-1.6.7.4.8.3.4-.4-2.9-4.7 7.5-7.7 13.6-3.9 1.3.8 3.5 1.7 5.1 2.1 1.5.4 2.7 1.1 2.7 1.7 0 .6.4.7 1 .4.6-.3 1 .4 1 1.5 0 1.5.5 2 1.4 1.7 1-.4 1.3-.1 1 .8-.3.7.2 1.5 1.3 1.8 1.7.4 1.7.5 0 .6-1.5.1-1.6.4-.6 2.3 1.5 2.7 1.5 2.8-.3 4-.9.7-.6.8 1 .5 1.7-.4 2.1-.2 1.4.6-1.2 1.7-.9 3.6.8 4.7 1.3.8 1.2 1-.3 1-1.6 0-1.6.2-.2 3 1.4 2.7 1.4 3-.3 4-1.6 1.1-1.6 1.1 0 .6 2.6-.8 3 .9.8 2.9-2 1.8-1.1 6.3 1.1 5 .9-.6 1.3.7 1 3.3-.1.6.3 1.2.9 1.2.6 0-.1 1.1-1.5 2.4-2.3 2.2-2.4 2.5-.8 2.9 1.7.4 1.7.5.1.6-2 .1-2.5 2.1-.5 2.1.8 0 .7.4-.3 1-1.8 1.2 7.2.5 13.5-1.1 5.9-1.5 9.5-2.1 5.8-.9-4 1.3-4.4 2.3-.5 1.5 2.3-.5 2.4-.5.9.5-1 .7-2.8.9-4 .6-2.1-.5-9.2 1-11.2 2.5-2.3 1.7-16.1 2.1-27.9.9-9.3-1-13-1-15.5-.2-3.6 1.3-6.1-.1-6.1-3.3 0-1.5-.1-1.5-1.6-.1-.8.9-2.1 1.3-2.7.9-.7-.4-.6.1.2 1 1.2 1.5 1.2 1.7-.3 1.1-1.2-.5-1.6 0-1.6 1.9 0 3.3 2.1 5.3 6.4 6.1 2.8.5 3.7 1.3 4.2 3.4.3 1.5.7 3.2.9 3.7.1.6-.1 3.5-.6 6.5-1.1 7.2-.4 7.6 1.1.6.7-3.7 1.8-6 3.1-6.6 1-.6 1.8-1.5 1.6-2-.5-2.1 8.5-10 11-9.6 2.6.5 9.3 4.4 10.6 6 .4.7 1 .6 1.7-.4.6-.9 1-1 1-.3 0 1.3 6.3 4.6 8.6 4.6.8 0 1.2.3.9.5-.3.3.1 1.2.8 2 .6.9.7 1.3.2 1-.6-.4-1.7-.3-2.5.2-1 .6-.3 1 2.4 1.6 2.8.5 3.4.9 2.4 1.6-1 .7-1 1.1-.1 1.5 1 .3 1 1 .2 2.5-.8 1.6-.8 2.3.2 2.9 1.1.7 1.1.9.1.9-.7 0-1.1.4-.7 1 .3.5 1.3.7 2.3.4 1.5-.5 1.5-.5-.1.6-.9.6-2.3.8-3 .5-.6-.4-.4 0 .5.8 1 .8 1.5 1.6 1.3 1.9-1.7 1.6-1.4 4.9.3 3.7.9-.7 1.4-1 1-.5-.4.5-.2 1.8.4 3 .9 1.7.8 1.9-.3.8-.7-.6-1.9-1.2-2.7-1.2-1 0-.9.5.5 1.7 1 1 1.2 1.3.4.8-1.2-.8-1.3-.6-.8.8.4 1 .7 2 .7 2.3 0 .2.8.1 1.8-.1.9-.3.4.1-1.3.9-1.6.8-2.3 1.6-1.5 1.6 1 .1.9.4-.5 1-1.3.6-1.5.9-.5.9 1.3.1 1.3.2 0 1.1-1.3.8-1.2 1 .3 1 .9 0 1.7-.5 1.7-1 0-.6.5-1 1-1 .6 0 1 .7 1 1.5s-.8 1.5-1.7 1.5c-1.5 0-1.6.2-.3 1 1 .6 1.1 1 .2 1-.6 0-1.1.5-1 1.2.2.6-.8 1.5-2.2 1.9-2.3.7-2.3.7.8.8 2.9.1 5 3.1 2.1 3.1-.5 0-.7.5-.4 1 .3.5 0 1-.8 1-1.3 0-3 4.9-2.4 6.7.1.3-1.6 1.2-3.8 1.9-3.9 1.3-3.8 1.3 3.8 1 13-.6 4.5 3.8-9.8 5-7.2.6-24.9-1.6-28.6-3.7-1.3-.6-1.9-.6-1.9 0 0 .7-.9.7-2.6.1-1.4-.6-3-.8-3.5-.5-1 .7-5-5.5-4.3-6.7 1.2-1.9-2.6-.6-4 1.4-4.6 6.6.8 15.3 8.4 13.6 2.2-.5 4.5 5.3 4.5 11.1-.1 5.2 0 5.3 1.2 2.5.7-1.6 1.2-3.6 1.3-4.4 0-1.3.1-1.3 1 0 .9 1.4 1.6-.4 1.1-3.3 0-.4.8-.7 1.9-.7 1.1 0 2-.4 2-.9s.7-1.2 1.6-1.5c1-.4 1.3-.2.8.7-.5.7 0 .6 1-.3 2.5-2 19-1.9 20.2.2.3.5 1.4.6 2.4.3 1.1-.3 2 0 2.4 1 .3.8 1.3 1.5 2.1 1.5.9 0 1.3.4 1 1-.3.5-.1 1 .6 1 .9 0 .9.4-.1 1.5-1 1.2-.8 1.4.9 1 1.2-.2 1.9 0 1.6.6-.4.5 0 .9.7.9.8.1.6.6-.6 1.5-1.8 1.3-1.7 1.4.9 2.1 2 .5 2.3.9 1.3 1.5-1 .7-1 .9.2.9 1.3 0 1.3.1 0 1s-1.3 1.2.3 2.4c1.2.9 1.4 1.5.6 1.8-.8.3-.6.9.5 2.1 1 .9 1.2 1.7.6 1.7s-.8.4-.5 1c.3.5.1 1-.5 1-.7 0-1-.7-.7-1.5.4-.8.2-1.7-.3-2-.6-.4-1 .2-1 1.2 0 1.1-.5 2.4-1.2 3.1-1.3 1.3-1.9 5.4-.6 4.6.4-.3 1.3-.2 2 .2.8.5.6 1-.8 1.5-1.5.6-1.1.8 1.6.9 3.5.2 3.5.2 0 1.5-4.2 1.6-12.4 1.8-20.5.5-3.3-.5-10.3-1.4-15.5-1.9-6.5-.7-9.8-1.5-10.6-2.6-1.2-1.6-3.9-2.1-2.9-.5.3.6-.1 1-.9 1-1 0-1.3-.6-1-1.8.5-1.4.4-1.5-.5-.2-1.9 2.7-5.9 2-6.6-1.2-.9-3.8-2.9-2.4-2.1 1.5 1 4.8 3.3 6.7 8.2 6.7 6.1 0 8.5 6 6.1 15.5-.5 2.1 0 1.5 1.8-1.9 1.4-2.8 2.5-5.9 2.5-7 0-1.7.2-1.8.9-.6.6.8.7 1.8.5 2.2-.3.4.2.8 1.1.8.9 0 1.3-.4 1-1-.3-.5 0-.7.8-.4.8.3 3-.9 4.8-2.5 1.8-1.7 3.8-3.1 4.4-3.2 3.3-.4 7.3.6 12.3 2.9 3.1 1.4 6.7 2.6 7.9 2.7 2.3.1 4.6 1.5 2.5 1.5-.7 0-1.2.4-1.2.9s.8.8 1.8.7c1.2-.1 1.7.6 1.6 2.6 0 2.2.3 2.5 1.3 1.6 1-.8 1.2-.7.7.5-.3.9-1.3 1.8-2.2 2-1.1.3-.9.5.7.6 2.3.1 2.3.2.6 2.7-1.6 2.4-1.6 2.6.4 3.1 3 .8 3.1 3.6.1 5.5-2.5 1.8-2.5 1.8 1 1.9 3.5.2 3.5.2 0 .9-3.1.7-3.2.7-.7.9 1.5 0 2.7.6 2.7 1.2 0 .5-.5.7-1.2.3-.7-.4-.8-.3-.4.4s1.7 1.2 2.9 1.2c3.1 0 5.3 1.5 3.7 2.5-1.4.8-14.4-.4-21.8-2-1.2-.3-5.2.4-8.8 1.5-10.2 3.1-14.2 2.7-18.8-1.7-2.8-2.8-4-3.3-4.6-2.4-.4.8-1.2 1.1-1.6.8-1.1-.6-3.5 1.8-2.7 2.7.4.3-.3.6-1.5.6-2.9 0-4.2-2.5-4.3-8.5 0-1.9-.1-1.9-1.1-.1-.9 1.7-.6 9.1.5 10.2.2.3 2.7.8 5.5 1.3 5.4.8 8.2 2.5 8.2 4.7 0 1 1 1.4 3 1.2 1.7-.1 3-.5 3-.9 0-.3 1.2-.6 2.8-.5 1.7 0 2.6-.4 2.4-1.3-.1-.7.2-1 .7-.6.6.3 3.7-.4 7.1-1.5 5.1-1.7 11.3-2.1 14-.9.3.1 1.1.3 1.7.3.7.1 1.2.3 1.1.6-.1.3.6 1.5 1.6 2.7 1.8 2 2.8 2.1 18.2 2.3 16.4.1 16.4.1 16.4-4.6 0-4.6 0-4.6 4.4-4 10.2 1.6 12.7-10.7 2.8-13.3-8.5-2.3-12.1-8.1-12.2-19.3 0-5.7 1.5-6.8 8.9-6.8 4.9 0 5-.1 6-3.7 2.2-7.9 1-10.3-5.1-10.3-8.6 0-12.5-12.2-7.8-24.5.9-2.5 1.3-2.6 5.1-2 4.9.8 7.5-1.1 8.5-6.2 1.1-5.9-.6-7.9-7.2-8.8-6.9-.8-9.9-3.4-10.9-9.3-1.4-8.2 1.8-13.9 7.2-12.9 5.2 1 8.3-1.8 8.3-7.5 0-4.9-2.1-6.8-7.6-6.8-10.9 0-16.3-18.4-6.9-23.3 5.8-2.9 4-16.7-2.2-16.7-1.7 0-4.3-5.3-4.3-9 0-2.7.3-3 3.3-3 4.4 0 7.9-3.6 8-8.3.1-5.2-1.6-6.7-7.9-6.7-5.4 0-5.4 0-5.4-7.3 0-14.9 13.2-13.4 33.1 3.6 8.3 7.1 10.1 9.3 15 18.2 1.8 3.3 4 6.6 4.8 7.3.9.8 1 1 .3.7-.8-.4-.2 1 1.1 3.1 1.4 2.2 3 3.8 3.7 3.6.6-.1.8.2.5.8-.8 1.2 2.8 5.5 5.8 7.2 2.6 1.4.4-2.7-2.3-4.5-1.1-.6-2-1.7-2-2.2 0-.6-.7-2-1.6-3.1-.8-1-1.2-1.3-.8-.5.5.9.3 1.2-.4.7-.9-.5-.9-1.3-.1-2.8.6-1.1.7-1.8.1-1.4-.5.3-2.3-1.7-4.1-4.5-4.1-6.7-3.9-7.4.4-1.3 1.9 2.7 3.5 4.4 3.5 3.9 0-.6-.7-1.9-1.5-2.9s-1.2-2.3-.9-2.8c.3-.5 0-.7-.7-.6-.7.2-1.5-.5-1.7-1.5-.2-1.1-1.1-2.7-2-3.7-3.2-3.5-4.3-5-3.6-5 .3 0-2-2.1-5.1-4.7-3.2-2.7-7.8-6.7-10.2-9.1-2.4-2.3-4.7-4.2-5.1-4.2-.4 0-1.3-1-2.1-2.2-1.6-2.5-2.4-10.8-1.1-10.8 1.8 0 12.9 8.1 17 12.4 2.4 2.5 4.8 4.2 5.3 3.9.6-.3.7-.1.3.5-.9 1.5 13 16.9 21.5 23.8 1.4 1.2 3.3 3.1 4.2 4.4 1 1.4 2.2 2 3.1 1.7 2.4-.9 1.9-2.3-1.2-3.6-6.2-2.6-12.6-9.4-11.3-12 1.4-2.5 1.1-3-5.7-10.1-1.9-1.9-4.8-5.5-6.5-7.9-3-4.4-3-4.4-4.6-1.2-1.7 3.2-1.7 3.2-4.8-.7-1.7-2.1-6.3-6-10.2-8.7-6.3-4.3-7.1-5.2-7.1-8.1 0-1.7-.3-4.6-.7-6.5-.6-3.3-.6-3.3 6.3.5 3.8 2.1 8.5 5 10.4 6.5 5.1 3.9 10 7.3 10 6.8 0-.2-3-2.8-6.7-5.7-3.8-3-7.6-6.3-8.5-7.4-1-1.2-1.8-1.7-1.8-1.1 0 .7-.3.7-.8 0-.8-1.1-7.7-4.5-9.2-4.5-.5 0-2.1-.5-3.7-1.2-1.5-.6-3.2-1-3.6-.9-.5.1-.6-.3-.2-.9.3-.5-.5-1.4-1.9-2-1.4-.5-2.6-1.3-2.6-1.8 0-.4-.7-1.7-1.6-2.8-.8-1-1.3-1.3-.9-.6.3.6.1 1.2-.4 1.2-1 0-1.5-1.4-1.2-3.3 0-.4-.4-.7-1-.7-.5 0-.8-.4-.4-.9.3-.5-.2-1.6-1-2.5-.9-.9-1.1-1.7-.5-2.1 1.3-.8 5.2.4 4.6 1.4-.3.4.4.8 1.6.8 1.1.1 5.7 2.3 10.1 4.9 21.5 12.4 20.3 12.1 22.4 6.4 1.9-5.1 1.9-5.1 4.5-3.1 1.4 1.1 2.7 1.8 2.9 1.6.3-.2 1.3.9 2.4 2.6 1.1 1.6 2.6 2.9 3.3 2.9.7 0 1 .4.7 1-.3.5.4 1 1.5 1 1.6 0 2 .5 1.6 1.5-.3.8-.1 1.5.5 1.5s2.3 1.2 3.8 2.7c1.6 1.6 4.1 4 5.7 5.4 2.6 2.3 7.2 7.2 21.7 22.7 2.7 2.9 5.3 5.2 5.8 5.2s.9.5.9 1c0 .6-1.1.8-2.5.6-1.5-.3-2.3-.1-2 .5.4.5 1 .7 1.5.4 1.6-1 2 1.3.5 2.8-2.2 2.2-1.8 5.6.8 7.9 1.6 1.4 1.7 1.8.5 1.4-1-.3-2 0-2.4.6-.4.6-.3.8.4.4.6-.3 2.1.8 3.4 2.6 1.2 1.8 3.1 4.1 4 5 2 2 2.5 4.3.7 3.2-.8-.4-.8 0 0 1.5.7 1.1 1.6 2.1 2.1 2.1s.7.8.5 1.8c-.2 1 .1 2.5.7 3.3.8 1.1.9 1.1.5-.3-.5-1.5-.3-1.5 2.6.2 4.4 2.5 16.7 6.4 22.2 6.9.7.1.7.4 0 .9-.5.4-1 1.6-1 2.7 0 1.3-.7 2-2 2-1.1 0-1.9.6-1.7 1.3.1.8-.2 1.1-.7.8-.5-.4-1.2 0-1.4.6-.3.8-.6.9-.6.2-.1-.6-1.2-.9-2.6-.6-1.5.2-2.5 0-2.5-.7s-.5-.9-1.2-.5c-1.9 1.2-4.8 1.2-4.1.1.4-.6 0-.8-1-.4s-1.6.2-1.4-.6c.1-.7-.5-1.2-1.3-1.3-1.7 0-7.6-3-8.2-4.1-.3-.5-.3-.1-.1.7.2.9-.6.5-1.7-.9-1.3-1.5-2-1.8-2.1-1-.1.8-.3 2.4-.4 3.6-.2 1.6.3 2 1.5 1.8 2.4-.5 5.7 3.4 11.9 13.6 5.7 9.7 6.3 11.3 2.6 7.9-1.4-1.3-2.5-1.8-2.5-1.2 0 .7.5 1.2 1 1.2.6 0 1 .5 1 1 0 .7-.7.7-2 0-1.1-.6-1.7-1.6-1.4-2.2.4-.6.3-.8-.4-.4-.6.3-5-4.4-10.3-11.1-5.1-6.5-11.1-13.7-13.4-16.1-2.2-2.4-4.7-5.4-5.5-6.8-1.6-2.6-6-3.4-6-1 0 1.7 1.1 2.5 3.9 3.1 2.6.5 12.6 11.4 24.5 26.8 7 9 15.1 15.2 13.9 10.7-.3-1.2 0-2 .7-2s.4-1-.8-2.8c-1-1.5-3.3-5.4-5.2-8.7-1.8-3.3-4.6-7.5-6.1-9.4-4-4.9-3-4.9 4.1-.1 3.4 2.3 9.1 5.4 12.8 6.8 6.4 2.6 7 3.1 12.5 11.2 7.4 10.9 6.7 10.4 13.1 9.6 6.7-.9 6.7-.7 1.3-11.9-4.3-8.7-4.3-8.7.5-8.7 6.6 0 13.8-3 24.8-10.4 10.8-7.3 10.7-7.3 11 2.9.1 3.3.5 5.1.7 4 .3-1.1.9-2.5 1.4-3.2.7-.7.5-1.3-.3-1.7-.9-.4-1-.8-.2-1.1.7-.4.9-1.9.4-4.5-.4-2.2-.4-4 .1-4 .4 0 1-1 1.3-2.3.3-1.2.3.3.1 3.3-.3 3.7-.1 5 .5 4 .5-.8 1-2.4 1.1-3.5 0-1.1.3-1.4.6-.7.9 2.3 2.2.1 2.9-4.9.4-2.7 1-5.2 1.4-5.4.5-.3.6-1.4.3-2.5-.3-1.2 0-2 .6-2 .7 0 .9-.5.6-1-.3-.5-.2-1 .3-1 1.2 0 1.4 7.8.2 13.9-1.2 6.6-5.8 16.3-7.2 15.5-.7-.5-.8-.2-.3.5.5.9-2 4-7.2 9.1-16.3 16-39.7 21.6-60.8 14.5-1.2-.4-.9.1.9 1.3 1.9 1.3 3 3 3.1 4.7.1 2.3-.1 2.4-1.2.9-1.1-1.5-1.2-1.4-1 .5.1 1.1.6 2.1 1.1 2.1.5 0 .6.3.3.7-.4.3 0 1.7.8 3 1.6 2.3 1.6 2.3-3.2-.1-2.6-1.4-6.1-3-7.8-3.7-2.8-1-2.8-1.2-1-2 1.7-.6 1.7-.8.3-.8-1-.1-2-1.2-2.4-2.7-.6-2.2-.8-2.4-1.6-1-.5.9-.6 2.1-.3 2.7.4.5.2 1.6-.4 2.3-.8 1 .2 1.6 4.4 3 7.9 2.5 24.4 19.7 24.6 25.6 0 2.5.1 2.5 1.1.3 1.2-2.4-1.7-9.8-3.9-9.8-1.3 0-8.3-7.2-8.3-8.6 0-1.4 7.2 2.6 10.3 5.6 3.6 3.7 3.4 2.7-.4-2.1-3.1-3.9-3.1-3.9.6-4.2 2.2-.2 4.4.3 5.3 1.1 1 .8 2.2 1.3 2.7 1.1 5.3-1.9 12.5 8.9 12.8 19.2.2 5.1.2 5.1 4.8 2.2 2.5-1.5 5.2-3.6 6.1-4.5 1.7-1.9 3.4-10.3 1.8-8.7-.5.5-1 2.4-1.2 4.2-.3 4.2-1.8 4.2-1.8-.1 0-1.7-1.1-5.7-2.3-8.7-2.2-5.5-2.2-5.5 4.8-10.1 3.8-2.5 8.2-5.8 9.7-7.2 6.7-6.3 5 16.7-1.9 24.3-4.9 5.5-18.9 15.3-20.5 14.4-3.8-2.4-9.2 12.3-5.4 14.8 2.4 1.6 4.7.7 5.7-2.2 2-5.5 6.9-.4 6.9 7.1 0 4.5 2.8 10.8 4 8.9 1.1-1.7.4-4.8-1.5-7-.7-.8-1.4-2.9-1.5-4.5-.3-4.4-.1-5.2 1-3.5.8 1.3 1.1 1.3 1.9.1.6-1 1.2.4 2.1 4.5.6 3.2 1.5 7.6 2 9.6.4 2.1.4 3.8-.1 3.8-.4 0-.6.7-.3 1.5.5 1.1.2 1.3-1 .9-3.1-1.2-1.6.7 1.6 2.1 4.8 2 7.6.1 11.5-7.7 7.4-14.9 12.8-35.7 13.6-52.3.3-6.2 1.3-11.5 3.2-17 2.6-7.6 2.7-8.7 2.2-21.5-.4-9.6-.1-16 1-22 1.6-9.1 1.3-17.9-1-26.6-1.2-4.5-1.1-5.8.6-11.5 2.2-7.6 1.8-27.7-.7-39.2-1.3-5.9-1.3-7.7-.2-12.6 2-8.4 2-24.3.1-33.6-1.2-5.7-1.5-10.2-1-15.6.7-9-1-24.5-3.2-27.8-.8-1.3-1-2-.3-1.6.6.4.2-1.1-.9-3.3-4.1-8.1-5.7-4-3.4 8.7 1.7 9.7 1.8 16.3.3 19.2-3.4 6.6-6.9 10.9-10.5 13-6 3.5-11.5 5.9-11.5 4.9 0-.4 1.2-1.3 2.8-2 5.8-2.4 9.7-5 10.4-7 .4-1.2 1.2-1.9 1.7-1.6 2.4 1.5 4.6-19.6 2.8-27.4-.6-2.7-.6-3.2.3-2 .9 1.2 1 .9.6-1.3-.4-1.5.1-4.9 1-7.7 2.2-6.8 1.5-20.3-1.5-28.5-2.3-6.3-2.7-8.5-3.5-20-.2-3.9-1.4-9.9-2.7-13.4-1.5-4.6-2.2-9.1-2.3-15.5-.2-8-.6-9.9-3.4-15.9-1.8-3.7-3.2-7.4-3.2-8.2 0-1.8 1.7-2 2.2-.3.7 1.9 5.7.1 5.2-1.9-.5-2.3 6.2-6.9 7-4.8.5 1.3-1.9 3-4 2.7-.6-.1-1.1.5-1.1 1.3s.2 1.5.5 1.5c1.3 0 9.2-7.3 8.7-8-.3-.5 0-1.2.6-1.6.8-.4.9-.3.5.4-2.7 4.4 7.3-5.6 10.5-10.5 2.5-3.7-.1-11.5-4.2-12.8-2.2-.7-1.9-1.7.6-2.1.8-.1 1.5.2 1.5.7 0 .6.4.8.9.5.5-.4.5-2.4-.1-4.8-.9-4-.7-7.8.7-18.3.6-3.6.3-4.4-2.5-7-5.9-5.6-7-6.5-7.8-6.5-1.8 0-4.1-3.6-3.6-5.6.4-1.6-.4-2.3-4.2-3.9-2.6-1.1-6.5-3.4-8.7-5.2-3.6-3-5-3.7-6.1-3.1-.2.2-1.3-.5-2.3-1.4-2.6-2.4-8.3-3.5-8.3-1.7-.1 2.3-2.5 4.7-5.3 5.4-2.7.7-2.7.7-1.2-3.5.8-2.3 1.5-4.6 1.5-5.1 0-1.5-6.1-7.9-7.5-7.9-.8 0-2.6-.5-4.2-1.2-1.5-.6-3.2-1.2-3.8-1.3-.5-.1-1.3-.3-1.7-.5-.5-.1-1.1-.3-1.5-.4-.5-.2-2.8-.8-5.3-1.6-7.1-2-24.7-1.9-29 .3-6.2 3.1-8 4.4-7.3 5 .3.4-.1.7-1 .7-.8 0-3 1.7-4.9 3.7-1.8 2-4.8 5.2-6.5 7.1-1.8 1.9-3 3.9-2.7 4.4.3.4.2.7-.3.6-.5-.2-3.2 2-6.1 4.9-2.9 2.8-6.8 5.8-8.7 6.7-1.9.9-4.7 2.7-6.3 4.1-1.6 1.3-3.3 2.1-3.7 1.7-.5-.4-.5-.1-.1.6 1.2 2-15.1 11.5-21.8 12.8-1 .2-4.5 1.3-7.8 2.4-8.5 2.9-21 4.8-21.6 3.2-.2-.7-.8-.9-1.3-.6-1.4.8-5.9-2.4-5.9-4.2 0-.8-.7-1.7-1.5-2-1.1-.5-1.2-1-.4-2.6.8-1.5.8-1.9 0-1.4-.6.4-1.4 0-1.7-.8-.7-1.9-2.4-2.1-2.4-.3 0 .7-1 1.3-2.1 1.4-2.9.2-3.7 1.2-1.9 2.3 1.3.8 1.3 1 0 1-.9 0-3-1.6-4.9-3.5-1.8-2-3.8-3.2-4.4-2.8-.7.3-.9.3-.5-.2.4-.4.3-1.6-.3-2.6-1.5-2.9.3-2.3 5.6 1.7 2.6 2 5 3.2 5.4 2.7.3-.5 1.4-1.2 2.3-1.6.9-.3 2.4-2.1 3.3-4 .9-2 2.5-4.3 3.6-5.3 2-1.8 2.5-3.4 1.1-3.4-.4 0-3.4 2.3-6.5 5.1-6.2 5.5-7.4 5.3-2.7-.6 2.8-3.5 2.9-3.8 1.4-6.6-.8-1.6-1.1-2.9-.7-2.8 2 .3 2.7-.2 1.3-1.1-1.2-.8-1.2-1-.1-1 .8 0 2 .8 2.8 1.7 1.4 1.7 1.4 1.7.8-.2-.5-1.7-.3-1.7 2 .5 3 2.8 5.8 1.4 9.5-4.6 2-3 2-3-6-5.3-4.4-1.3-8-2.7-8-3 0-5.8 15.3-5.2 15.8.6.2 1.8.7 3.3 1.1 3.3.9 0 6.3-5.6 6.2-6.4-.4-2.3 0-2.8 1.2-1.8 2.1 1.8 15.2-6.4 13.6-8.4-.9-1.1-1.4-1.2-2-.3-.4.7-1.4.9-2.3.6-1-.4-1.9-.1-2.2.7-.5 1.4-3.3 1.4-5.6 0-.7-.4-.8-.3-.4.4 1.1 1.7-.9 1.5-2.4-.3-1.9-2.2-3.2-1.8-2 .6 1.4 2.6.7 3.5-1 1.4-1.5-1.8-3-2-3-.4 0 2.1-3.4 3.8-7.5 3.9-5.2 0-6.6-1-6.4-4.6.1-1.6-.2-3.7-.6-4.8-.8-1.7-.7-1.8 1.6-.3 5.3 3.4 13.1 3.8 17.8.9 3.2-1.9 3.2-1.9.5-3.7-1.4-.9-3.4-1.5-4.5-1.2-1 .3-1.7 0-1.6-.6.1-.6-1.1-1.5-2.7-2.1-1.7-.6-4-2.1-5.3-3.4-1.3-1.3-3.4-2.2-5.3-2.2-3.1 0-3.1 0 .5-3.1 3.5-3.1 3.5-3.1 10 1.1 3.5 2.3 7.6 4.3 9.2 4.5 1.5.1 2.9.8 3.1 1.4.5 1.4 2.2 1.5 2.2.1 0-.5-1.6-1.7-3.6-2.5-2.4-1-3.4-2-3.1-2.9.4-1 0-1.2-1.4-.9-1 .3-1.9 0-1.9-.6s1-1.1 2.3-1.1c1.4-.1.3-.9-3.3-2.5-3-1.3-4.9-2.4-4.2-2.5.7 0 2.1.4 3 .9.9.5 4 1.2 6.7 1.5 2.8.3 4.1.3 3.1 0-1.5-.5-1.6-.8-.5-1.5 1-.6 1-.9.2-.9-.7 0-1.3-.7-1.3-1.6 0-.8.4-1.3.9-.9.5.3 1.2.1 1.6-.5.3-.5 0-1-.7-1s-2.6-1.2-4.1-2.6c-2.5-2.3-3.5-2.6-7.3-2.1-4.9.5-6.8-.8-3.2-2.2 2.3-1 2.3-1 .1-1-1.3-.1-2.3-.7-2.3-1.4-.1-.7-.5-.6-1.3.5-.8 1-1.8 1.4-2.6.8-1.6-.9 1.5-3 4.4-3 2.4 0 6.5-4.6 6.5-7.3 0-3.4-2.6-5.4-5-4-1.3.9-2.1.9-3 0-1-.9-1.1-.9-.5.2.5.9.3 1.2-.6.9-.8-.3-1.3-1.1-1.1-1.8.2-.8-.4-1.1-1.8-.7-5.2 1.3-2.5-4.9 2.9-6.7 4.2-1.4 5.6-3.5 4.7-6.9-.7-3-4.3-5.4-5.8-3.9-1.7 1.7-6.5-.8-6.5-3.5 0-1.8.7-2.5 3.7-3.3 4.6-1.2 6.9-3.5 5.2-5.2-.7-.7-1.2-1.7-1.2-2.2 0-.6.5-.4 1 .4.8 1.2 1 .9 1-1.3 0-2.7 0-2.7 5.3.2 16.4 9.3 56.3 15.8 63.6 10.4 4.6-3.5 5.8-9 3.5-16.5-3.1-10.2-2.6-16.8 2.3-26.8 2.4-5 4.4-10.8 4.8-14 .3-3 1.1-6 1.7-6.7.8-1 .6-1.3-.6-1.3-1.3 0-1.6-1-1.5-4.8.1-4.7.1-4.7 1.1-.5.6 2.9 1.5 4.3 2.5 4.3 3.3 0 1.1-14.9-3.6-23.9-4.5-8.7-5.9-14.7-4.1-18 .9-1.7 1.5-2 2.5-1.1 4 3.4 7.9-2.3 9.4-14 .6-4.1 1.6-9.3 2.4-11.5 2.9-8.1 3-11.8.5-19.6-3.4-11-3.2-23.8.5-34.2 3.5-9.9 3.6-8.9-2.7-22.5-6.8-14.9-7.3-16.4-9.1-30.1-1.8-13.8-9.3-31.6-12.6-29.6-.5.4-.7 0-.4-.7 1.1-3-21-23.8-23.6-22.2-.7.4-.9.3-.6-.3 1.3-2.1-21.8-15.6-34.3-20.2-10.9-4-32.1-8.2-39.5-7.9-2.6.1-2.7.1-.5.5zm110.5 81c.8 9.2 2.4 16.1 4.7 20.6 2.6 5.2 3.9 8.9 3 8.3-.4-.2-1.9-2.9-3.2-5.8-1.4-2.9-2.9-5.6-3.5-6-.6-.4-.6-.8-.1-.8.6 0 .1-.7-1-1.5s-1.4-1.5-.6-1.5c.6 0 1.2-.5 1.2-1.1 0-.6-.7-.8-1.6-.5-1 .4-1.3.2-.7-.7.9-1.4 1.3-9.7.4-9.7-.3 0-.6-1.8-.6-4 0-6.4 1.3-4.6 2 2.7zm-14.9 67.1c2.4 2.8 7.1 6.3 11.4 8.7 7.3 4 7.3 4 3.6 4.6-4.4.7-7.7 3.6-12.3 10.9-2 3-4.2 5.9-4.9 6.3-.8.4-1.4 1.8-1.4 3.1 0 1.2-1.4 3.5-3.1 5.2-6.6 6.2-10.8 18.5-8.4 24.1.5 1 .8 2.1.7 2.5-.4 1.7 1.9 5.9 2.8 5.3.5-.3 1 .3 1 1.4 0 1.2.5 2.1 1 2.1.6 0 1-1.1 1-2.5 0-1.6.6-2.5 1.5-2.5.8 0 1.5.5 1.5 1.1 0 .5.4.8.9.4.9-.5 2 1.4 4.7 8 .6 1.4 1 0 1.4-5 .5-7 .5-7 1.9-3 .7 2.2 1.9 4.7 2.6 5.5 1.3 1.7 5.5 11.7 5.5 13.3 0 3.6-4.5 5.6-5.5 2.4-.3-1.2-.8-1.7-1.1-1-.3.8-1.6 1-3.4.7-1.7-.4-3.7 0-5.2 1-1.4.9-3.2 1.4-4.1 1-1.5-.5-1.5-.3-.2 2.3.7 1.5 1.5 5 1.7 7.8.3 5 .3 5-4.2 5s-4.5 0-4.3-4.8c.2-2.6 1.2-6.6 2.2-8.7 2.2-4.5 1-5.3-2.9-2-1.3 1.1-2.6 2-2.9 2-.3 0-.5 2.9-.4 6.5.3 6.5.3 6.5-3 6.5-5 0-6.1-1.2-5.3-5.6 1.7-9.5 3.4-12.1 5.6-8.7.7 1.1 1 1.2.7.4-.7-2.8-3.4-3.7-5.6-1.7-1.4 1.3-2.9 1.7-4.9 1.3-2.9-.6-2.9-.6-1.1 3.1 4.2 8.1 2 11.7-5.8 9.6-2.6-.7-2.3-6.2.7-10.5 1.8-2.6 1.8-2.6-3.3-2.5-5 .1-10.6-.5-17.4-2-3.2-.6-4.3-2.6-2.3-3.9.6-.3 1-2.4 1-4.6 0-3.2.3-3.9 2-3.9 1.1 0 2 .5 2 1 0 .6.8.5 2-.2 1-.7 1.7-1.4 1.5-1.6-.4-.4 2.1-3.3 7.8-9.1 1.5-1.6 2.7-3.3 2.7-3.9 0-.5.7-1.2 1.5-1.5.8-.4 2.1-2.2 2.9-4.2.8-1.9 1.8-3.5 2.1-3.5.3 0 .3.6-.1 1.2-.4.7-.5 1.1-.1.8.3-.3.6-1 .7-1.5.1-.6.7-1.6 1.3-2.4 1-1.2.9-1.3-.3-.6-.8.4-.4-.4 1-1.9s1.8-2.5.9-2.1c-1 .4-1.5-.1-1.6-1.5-.2-2.2 1.3-2.8 2-.8.8 2.4 4.9-2.3 4.2-4.9-.3-1.3-.1-2.3.5-2.3s.8.6.4 1.2c-.4.7-.4 1 0 .6.4-.3.8-1 .8-1.5 0-.4.3-1.3.8-1.8.4-.6.4-1.9-.1-3-.6-1.7-.8-1.7-.8-.3-.1 1-.6 1.8-1.2 1.8-1.4 0 .3-9.1 2.2-11.5 1.2-1.7 4-10.3 4.3-13.8.2-1.8.9-4.5 1.5-6 .6-1.6 1.1-3.5 1.1-4.4 0-2.1 2.1-9.6 3-10.6.4-.5 1 .6 1.3 2.2 1 4.8 2.7 3.6 2.7-1.7 0-6.8 1-7.1 4-1.2 1.4 2.8 4.3 7.2 6.6 9.8zm-151.4 38.6c2.8.4 4.6 2.6 4.1 4.7-1.4 5.1 22.2 23 28.3 21.5 2.2-.6 8.4-8.3 8.4-10.5 0-1.6.6-1.4 5.5 1.5 4.2 2.4 4.4 2.8 5 8.2.3 3.1 1 6.4 1.5 7.3.5 1 .4 2.1-.3 2.9-.9 1-.9 1.1.2.5 1.1-.6 1.3-.2.7 1.9-.4 1.8-.3 2.5.3 2.2.7-.4.8 1.6.5 5.6-.4 6.2 1 13.3 2.6 12.3 1-.6 2.3 6.2 1.4 7.7-.5.7-.3.8.6.3 1-.6 1.2-.3.8 1.3-.4 1.2-.2 2 .3 1.6.5-.3.9-.2.9.3 0 .4.3 1.9.6 3.3.4 2 .3 2.2-.5 1-.6-.8-1.1-1.1-1.1-.5.1.5.7 1.9 1.5 2.9s1.2 2.2 1 2.7c-.3.4 0 1.1.6 1.5.9.5 1-.1.5-2.2s-.4-2.5.4-1.4c.5.8 1 2.5 1 3.8 0 1.4.5 2.2 1.2 2 .7-.3 2 .5 3 1.6 1.7 2.1 1.7 2.1 1.6.1-.4-11 3.9-15.1 10.3-10 4.3 3.4 6.6 4.5 5.4 2.6-.4-.8 1.2-9.8 2-10.9.1-.1 1.4.2 2.7.7 2.4.9 4.6 6.1 2.7 6.1-.5 0-.9.7-.9 1.6 0 .9-.8 2.3-1.7 3-1.7 1.3-1.7 1.3.2 1.4 1.1 0 3.1.3 4.5.7 2.1.6 2.3.4 1.3-.9-1.2-1.4-1.1-3.6.2-7.9.6-1.9 3.7-2.5 6.8-1.3 1.1.4 1.3 1.3.7 4-.4 1.9-.6 3.4-.3 3.4s0 .7-.7 1.5c-.9 1.1-1 1.9-.3 2.6 1.8 1.8 4.8.6 5.1-2.1 1-8.3 4.1-11.1 8.5-7.8 1.4 1.2 1.4 1.8-.8 6.8-2.5 5.8-2.1 7 2.2 7 1.8 0 2.2-.8 2.8-5.3 1-7 2-8.7 5.3-8.7 6 0 5.9 2-.6 14.2-.2.3.5.8 1.5 1.1 1.9.5-1.8 1.1-4.5.8-.8-.1-2 .3-2.8 1-1.1.9-1.4.8-1.4-.5 0-.9-.2-1.6-.3-1.6-1.3 0-6.7 3.3-6.7 4 0 .5-.6.8-1.2.6-.7-.1-1-.1-.5.1.4.3.5.8.3 1.2-.3.4.1.8.9.8s1.5-.5 1.5-1.1c0-.6.4-.6 1.2.2.7.7 1.7.8 3 .1 1.4-.8 1.8-.6 1.8.6 0 1-.5 1.3-1.2.9-.7-.5-.8-.3-.4.5.6.9 1.3.8 2.8-.6 2-1.8 2.1-1.8.9.4-2.1 4.2.7 3.2 5.3-1.7 2.6-2.8 5.1-5 5.5-5 .5 0 1.5-2.4 2.1-5.3 1.9-7.8 2.6-8.7 6.6-8.7 2 0 3.4.3 3.2.7-.2.5-1.2 2.6-2.1 4.8-2.7 6.2-3.2 6.9-5.8 7.6-1.4.4.9.7 5.5.8 8.4.1 10 .8 2.8 1.2-2.3.2-4.2.8-4.2 1.3 0 .6-.4.5-.9-.2-.9-1.5-6.1 2.5-6.1 4.7 0 .6-.4 1.1-.8 1.1s-.8 1-.9 2.2c-.1 2.9-1.1 6.9-1.8 7.6-.2.3 0 1.1.6 1.8.6.8.9 2 .6 2.7-.3.8.1 1.4.9 1.4.7 0 1-.5.7-1.1-.4-.6.1-.5 1 .2.9.8 2.1 1.1 2.7.7.5-.3 1.3.1 1.6.9.3.9 1 1.4 1.4 1.1 1.2-.7 2.1 3.9 1.4 7.4-.4 1.7-1 3.1-1.5 3.1s-.9.7-.9 1.5-.9 2-2 2.7c-1.1.7-2 2-2 2.9 0 2-1.7 2.8-5 2.4-1.4-.2-5-.6-8-.9-10.6-1.2-15.6-2.9-28.5-9.6-7.1-3.7-16.8-8-21.5-9.5-7.8-2.6-14.9-5.5-25.4-10.6-2.1-1-4.3-1.6-4.7-1.3-.5.3-.9 0-.9-.5 0-.6-.7-1.1-1.5-1.1s-3.5-.7-6.1-1.6c-4.5-1.5-6.1-2-11.4-3.1-7.3-1.6-10.4-6.4-10.1-15.4.1-3.7-.3-9.6-.8-13.1-.6-3.5-1.5-10.7-2.1-16-1-10.1-7.7-28.2-15.6-42.5-3.7-6.5-2.3-9.1 4.2-7.6 1.1.2 2.7.5 3.6.7zm164.7 43.2c.2-2.1 3 3 3.1 5.4 0 1.8-.3 2.1-.9 1.1-.7-1.1-.9-1.1-1.3 0-.3.8-1.3-1-2.2-4-1.9-6.6-2-8.7-.1-4.6.7 1.6 1.4 2.6 1.4 2.1zm-78.3 12.7c1.2 1.2-1.8 6.8-3.3 6.3-.8-.4-1.8-.6-2.3-.6-.4 0-.1-1.5.8-3.4 1.4-3.1 3.2-4 4.8-2.3zm69.3 1.8c.6 1.8 1.1 5.4 1.1 8 0 4.9 0 4.9-4.6 4.9-4.3 0-4.6-.2-4-2.3.3-1.2.6-4.4.6-7 0-4 .4-4.9 2.3-5.7 3.3-1.3 3.4-1.3 4.6 2.1zm-60.2-1.3c2.6 1.7-.6 7.9-3.9 7.7-2.5-.2-3.3-2.3-2.4-6.1.6-2.4 3.7-3.2 6.3-1.6zm11.5 1.6c2.1 3.1.9 8.6-1.9 8.6-5.5 0-7.3-1-7.3-4.1 0-5.5 6.5-8.7 9.2-4.5zm57.2 2.8c1.5 8.7 1.4 9.3-2.1 9.6-3.3.3-3.3.3-3.3-5.6 0-6.3.4-7.2 3.1-7.2 1.3 0 2 1 2.3 3.2zm-79 4.8c.4.5-.1 1.4-1.2 2.1-1.1.7-1.8 1.8-1.5 2.5.7 1.9-1.6 2.7-3.2 1-2.2-2.2-1.8-3.2.5-1.1 2.8 2.5 2.5 1-.6-3-2.6-3.4-2.6-3.4 1.3-2.8 2.1.3 4.2.9 4.7 1.3zm-93.4 8c1.1.7 1.1 1 .2 1-.7 0-1 .5-.6 1.2s.3.8-.4.4c-.6-.3-2.7-.7-4.7-.8-2.2-.1-3.5-.6-3.5-1.5 0-1.5 6.7-1.8 9-.3zm158.8 5.2c-4 7.6-6.4 8.4-6 1.9.4-6.4 1.6-8.1 5.8-8.1 3.5 0 3.5 0 .2 6.2zm-3.1 31.9c0 2.3.5 4.5 1.1 5.1.5.5.7 2 .4 3.3-.4 2.5-.4 2.5-2.4 0-1.1-1.4-1.6-2.9-1.3-3.5.3-.5 0-1-.7-1.1-1 0-1-.2 0-.6.6-.2 1.2-2 1.2-3.9 0-4.8 1.5-4.2 1.7.7zm-67.1 6.5c5.3 2.2 5.1 2.5-.6.8-2-.6-2.8 1-1 2.1 1.3.8.1 3.5-1.6 3.5-1.1 0-3.4-5.5-3.4-8.3 0-1 0-1 6.6 1.9zm-44.1 12.7c.7.7.5.7-.4.2-1.1-.6-1.3-.4-.8.8.3.9.2 1.9-.4 2.2-.5.4-1.1 0-1.4-.7-.3-.8-1.5-1.4-2.6-1.5-2.7-.2-3.3-.8-2.6-2.7.6-1.6 6-.5 8.2 1.7zm11 8.7c-.3.5.5 1.2 1.8 1.6 3 .7 2.6 4.4-.5 4.4-1 0-1.6-.4-1.3-1 .3-.6-.1-.7-.9-.4-2.4.9-3.2-2.4-1-4.1 2.3-1.7 2.7-1.8 1.9-.5zm-14.3 9.7c2.4.9 4.6 2.1 4.9 2.6.3.5.9.8 1.3.8.9-.1.8 1-.3 4.1-1.2 3.3-2.6 3.8-1.6.7.5-1.4.3-1.9-.4-1.5-1.9 1.2-9.1-3.7-9.1-6.2 0-2.6-.1-2.6 5.2-.5zm-29 29.9c-.5 2.6-4.4 4.9-6.8 4-.6-.2-1.6 0-2 .4-1.1 1.1-5.4.1-5.4-1.2 0-.5-.4-.6-1-.3-.5.3-1 .2-1-.4 0-1.5 1.9-2.3 8.4-3.7 8.6-1.7 8.4-1.7 7.8 1.2zm9.7 10c3.1.8 6.3 2.1 7.1 2.7 2.6 2 6 7.4 5.2 8.2-.4.4 1 0 3-.8 3.7-1.5 3.9-1.5 6.8.9 3.1 2.7 3.7 2.5 2-.5-1.7-3.3.9-5.4 4.4-3.6 1.5.8 3.7 1.5 4.7 1.5 1.6 0 1.7.3.7 1.9-.7 1.1-1.6 1.7-2 1.5-.4-.3-.8 0-.8.5 0 .6.6 1.1 1.3 1.1.8 0 .7.4-.3 1-1.9 1.2-3.3 1.3-2.6.1.4-.5-.3-.7-1.4-.4-1.1.3-2 .9-2 1.3 0 2.6 11.3 2.7 17.4.1 6.2-2.7 11.6-3.7 11.6-2.1 0 .7-.7 1-1.6.6-1-.4-1.3-.2-.8.6.5.7 0 .9-1.4.6-1.5-.4-1.9-.2-1.5.8.3.9-.2 1.4-1.7 1.4-1.1 0-1.8.4-1.5 1 .5.8-.4 1.1-3 1-.3-.1-1.3.7-2.2 1.6-4.8 4.8-31.1-3.5-30.6-9.6.1-1.4-.1-2-.3-1.3-.4.8-2.1 0-5-2.3-3.8-2.8-5.4-3.4-9.5-3.4-4.8 0-8.4-2.7-5.1-3.8.7-.2 1-.8.6-1.3-.8-1.3 2.3-1.1 8.5.7zM654 453.4c0 .8-.7 2.2-1.6 3-.8.9-1.2 1.6-.7 1.6.4 0-.3.6-1.6 1.3-3.7 1.8-9.6 14.8-11.5 24.8-.8 4.9-11.4 19.4-11.7 16.2 0-.5-.4 0-.8 1s-.9 1.7-1.2 1.5c-.3-.2-2.3 1.2-4.6 2.9-2.2 1.8-4.4 3.3-4.7 3.3-.4 0-1.6.9-2.8 2-2 1.8-3.9 2.5-6 2.1-.5 0-.8.4-.8 1 0 .5-.4.7-1 .4-.5-.3-1-.1-1 .4 0 .6-1.1 1.1-2.4 1.1-1.3 0-2.7.7-3 1.6-.3.8-1.1 1.2-1.6.9-1.3-.8-10.1 1.6-9.5 2.6.3.3-.7.5-2 .3-1.4-.1-2.7.1-3 .6-.3.4-1.4.6-2.5.3-1.4-.4-2 0-2 1.1s-.4 1.4-1.2.9c-1.5-.9-4.8-.5-6.4.8-.6.5-1.4.6-1.7.2-.4-.3-.7-.2-.7.4 0 .5-.6 1-1.2 1-.7.1-3.1.4-5.3.7-2.2.3-6.2.8-9 1.2-2.7.3-7.5.9-10.5 1.3-5.5.9-23.8.7-27.5-.3-1.1-.2-2.3-.5-2.6-.5-2.6-.3-3.2-8.8-.8-11.2 3.4-3.4 6.5-3.9 27.2-4 21.4-.1 52.4-2.4 39.7-2.9-9.2-.4-12.5-1.4-11.3-3.3.4-.6 0-.8-.9-.5-1.8.7-5.4-4.7-3.8-5.7.5-.3 1.4-.3 2 0 .6.3.7-.1.4-.9-.3-.9-.9-1.4-1.3-1.2-.4.3-1.3 0-2.1-.5-1.3-.9-1.3-1 0-.6.8.2 2.7-.5 4.3-1.5 3.4-2.4 8.7-4 8.7-2.7 0 .6.4.8.8.5.5-.3 2.1.1 3.6.9 1.4.8 2.4.9 2 .4-.6-1 3.1.5 8.9 3.7 1.6.9 3.1 1.3 3.4 1 .4-.3 1.5.1 2.5 1.1 1 .9 1.8 1.1 1.8.5 0-.5 2.1.1 4.8 1.4 5.1 2.6 7.7 3.1 6.6 1.2-.5-.8-.2-.9 1-.5 6.6 2.6 18.7-9.9 23.6-24.3 3.5-10.3 7.7-17.1 14.1-22.8 6.4-5.6 6.9-5.9 6.9-3.8zM451.8 456c2.2 1.1 4.6 2 5.2 2 .5 0 1 .5 1 1.1 0 .6-.6.9-1.4.6-.8-.3-1.7-.3-2 .1-1.9 1.8-5.3 1.1-6.4-1.3-2.3-5-2-5.2 3.6-2.5zm224.8 28.7c.8.8 1.2 1.8 1 2.2-.3.4.3 1.2 1.2 1.8 1.5.9 1.7.6 1.6-2.3-.1-1.9.2-3.4.6-3.4.5 0 1.2-1 1.5-2.1.5-1.6.9-1.8 1.5-.9.4.7 1.2 1 1.7.7.5-.3 1.5-.2 2.3.4 1.2.7 1 .9-.7.9-1.2 0-2.5.5-2.8 1.1-.4.6-.1 1 .6.8 2.5-.3 5.4.2 4.1.8-.6.2-1 .9-.6 1.4.3.5-.2.9-1.2.9-1.3 0-1.4.3-.5 1.3.6.8.8 1.6.5 2-.8.8 1.8.3 3.4-.6.6-.5 1.2-1.3 1.2-1.9 0-.6-.6-.6-1.5.2-.9.7-1.8 1.1-2 .8-.3-.3.2-1.1 1.1-1.9 1.4-1.1 1.8-1.1 2.9.4.7 1 1.7 1.7 2.1 1.6 2.1-.4 2.6.2 1.4 1.6-1.1 1.3-1 1.4.6.8 1.7-.6 1.8-.5.4 1.2-.8 1-1 1.6-.3 1.2.6-.4 1.4-.3 1.7.2.4.5-.2 1.1-1.1 1.3-1.5.3-1.4.5.5 1 1.2.3 2 .2 1.7-.2-.3-.5-.1-1.1.5-1.5.9-.6 1.4.8 1.1 2.8-.1.5.3.6.9.2.6-.3.8-1 .5-1.5-.3-.5.4-1.1 1.5-1.5 1.1-.4 1.8-1.2 1.4-1.8-.3-.7.2-.3 1.1.8 1.1 1.4 1.8 1.6 2.3.8.5-.8 1.2-.9 2.2-.2 1.3.8 1.3 1 0 2s-1.3 1 0 .6 1.6.3 1.5 3.3c0 2.1-.2 3.8-.5 3.8-1.9-.1-2.3.4-1 1.2 1.2.8 1.1 1-.7 1-1.6 0-2.3.6-2.3 2 0 2.8-.2 3.2-2.5 5.8-1.1 1.3-2 2.7-2 3 0 1.6-10.6 15.2-11.5 14.7-.5-.3-1.2.4-1.5 1.6-.6 1.7-.9 1.9-1.6.8-.5-.8-.9-1-.9-.5s-.7.3-1.5-.4c-.8-.6-2-.8-2.6-.4-.8.4-.9.3-.5-.4s.3-1.2-.2-1.2-.9-2.2-.8-4.9c.1-2.7-.2-4.7-.6-4.5-.4.3-.8 0-.8-.5 0-.6.5-1.1 1-1.1.6 0 .3-1.1-.7-2.4-1-1.3-2.2-2.1-2.8-1.8-.5.3-.7.2-.3-.3.4-.4.3-1.5-.2-2.5-.6-1.1-.4-2.5.4-4.1 1.4-2.8 1-5.2-.7-4.3-.7.3-.2-.3 1-1.3 1.7-1.3 2-2.2 1.3-3.3-.8-1.2-1.1-1.1-1.6.7-.8 2.8-1.6 2.9-3.1.5-.8-1.4-.8-2.9 0-6 1.2-4.4-.6-9.9-4.4-14.1-1-1.1-1.6-2.7-1.3-3.5.5-1.2 1.2-.7 3.1 2 1.3 2 3.1 4.3 3.9 5.1zm-165.7 20.2c1.8 1.2 2.6 8.7 1 9.7-.8.4-1.5.2-1.7-.5-.3-1-.6-1-1.2-.2-1.2 2.1-6-.5-6-3.2 0-4.3 4.7-7.8 7.9-5.8zm143.1 2.2c0 .6.6.9 1.4.6.9-.4 2.7.8 4.4 2.8 1.7 1.8 3.3 3.1 3.6 2.8.3-.4.6.1.6 1s.4 1.7.8 1.7c1.2 0 3.2 7 3.2 10.9 0 1.9-1.2 4.7-3 7.3-1.6 2.2-3 3.7-3 3.2s-1.1.3-2.4 1.8c-1.2 1.5-2.6 2.5-3 2.1-.3-.3-.6-.1-.6.6s-.4.9-1 .6c-.5-.3-1-.2-1 .2 0 .8-7.5 4.6-9.3 4.7-.4.1-1.1.7-1.6 1.4-.5.8-1.1 1.3-1.5 1.2-2.9-.8-8.6 1.3-7.4 2.8 1 1.2.7 1.1-1.5-.3-2.8-1.8-2.8-1.8-2.3.8.2 1.5 0 2.9-.5 3.3-.5.3-.9.2-.8-.3.6-3.4-1.6-4.6-2.6-1.4-.3 1.2-1.2 1.8-2 1.5-.8-.3-1.1-1.2-.7-2.2.5-1.4.4-1.5-1-.2-1.5 1.4-1.4 1.7.5 3.9 2.2 2.4 2.2 2.4-1 .6-2.1-1.3-3.6-1.5-4.5-.9-.7.5-3.3.9-5.8.8-2.9-.1-5.2.4-6.4 1.5-1.1.9-1.6 1-1.2.3.9-1.5-1-1.6-2-.1-.3.6-1.5.9-2.5.6-1-.3-2.2-.1-2.5.4-.3.5-.9.7-1.4.4-1.5-.9-5.8.6-6.4 2.2-.5 1.1-.1 1.4 1.3 1 2.6-.7 6 1.6 4.1 2.8-.9.5-1.1.4-.6-.3.8-1.3-7.9-1.9-18.4-1.4-13.6.7-45.6-2.9-53.5-6-5.2-2-11.5-7.2-11.5-9.5 0-2 3.6-8.3 4.4-7.6.3.3.6.2.6-.4 0-.7 1.6-.6 4.8.3 12.8 3.9 44.2 7.8 42.6 5.2-.3-.4 0-.8.6-.8.8 0 .8-.6 0-2s-.8-2 0-2c.7 0 .6-.5-.2-1.4-.7-.7-1.8-1.2-2.4-.9-1.5.6-2.8-1.4-1.4-2.2.5-.3 1-.1 1 .5 0 .7.5.8 1.3.3 2-1.3 5-1 8.5.9 1.7 1 3.2 1.4 3.2 1 0-.4-3.4-2.3-7.5-4.1-4.2-1.9-7.4-3.6-7.2-3.8.4-.3 15.4-2.5 19.2-2.7 1.1-.1 2.6-.5 3.4-1 1-.6 1.2-.6.7.2-.4.7-.5 1.2-.2 1.2 10.5 0 25.7 4.5 35.6 10.5 3.2 1.9 6.7 3.5 7.9 3.5 1.1 0 2.1.5 2.1 1 0 .7 1.9.8 5.3.4 9.5-1.2 9.5-1.5-.8-7.3-5.2-3-9.2-5.8-8.8-6.4.3-.6.1-.7-.5-.4-1.3.9-4.4-.2-3.7-1.3.3-.5 0-1.2-.6-1.6-.8-.4-.9-.3-.5.4 1 1.6-.3 1.5-3.6-.2-1.5-.8-4-1.7-5.7-2.1-1.7-.4-3.1-1.1-3.1-1.5 0-.5.7-.6 1.7-.3 1 .4 1.4.2 1-.4-.8-1.3 4.9-3.5 9.2-3.7 2.3 0 7.7 1.2 13.1 3.2.8.3 2.1.6 2.8.8 4 .8 13.8 6.7 19.5 11.9 1.6 1.4 1.9 1.4 3.3 0 1.9-1.8-.1-4.9-5.4-8.5-1.8-1.3-3-2.5-2.7-2.8.8-.8-1.6-3.2-2.6-2.6-.5.3-.9.1-.9-.5 0-.5.9-.9 1.9-.8 1.1 0 1.7.5 1.4 1.1-.4.5.1.7 1 .3 1.8-.7 4.2 2.4 2.9 3.8-.4.5-.1.5.6.1s2.8.2 4.8 1.4c4.1 2.6 4.4 2.4 5.1-2.8.6-4.8-1.2-9-6.7-15.1-4.3-4.8-4.5-5.1-3-5.1.6 0 1 .5 1 1.1zm-143 24.1c1.1 1.2 2 2.5 2 2.9 0 1.3-1.8 2-2.5 1-.6-1.1-3.6-.3-4.6 1.2-.8 1.1-2.9.1-2.9-1.4 0-.6.4-.8.9-.5.5.3 1.5-.2 2.2-1.1 1.2-1.5 1.2-1.6-.3-1-1 .3-1.8.2-1.8-.3 0-.9 2.8-2.9 4.2-3 .4 0 1.6 1 2.8 2.2zm168.3 18.7c.4.1.7.8.7 1.6s.9 2.4 2 3.5c3.5 3.5 5.2 11.5 2.1 9.5-.5-.3-1.2.7-1.4 2.2-.4 2.7-.4 2.6-.6-.4-.1-4.1-2.1-8.4-3.4-7.6-.6.3-.7.1-.3-.6.5-.7-.3-2-1.9-3.2-1.9-1.5-2.3-2.4-1.5-3.3.5-.7.7-1.5.4-1.9-.3-.3.2-.4 1.3-.2 1 .2 2.1.4 2.6.4zm-168 8.2c3.1 1.6 3.1 1.6 1.3 3.4-1.4 1.4-1.8 1.4-4.1-.1-4.7-3.1-2.3-5.9 2.8-3.3zm147.5 1.8c.4 0 2 1.2 3.6 2.6 1.6 1.4 3.3 2.5 3.8 2.5s.6.5.2 1.2c-.4.6-.3.8.3.5 1.3-.8 6.3 3 6.3 4.8 0 .8.5 1.7 1.2 2.1.8.5.9.2.4-1.2-.6-1.5-.3-1.5 1.8.5 1.4 1.3 2.8 3.3 3.2 4.3.8 2.5 3.4.5 3.4-2.6 0-1.1.5-2.8 1.1-3.6.8-1.1.9-.9.3 1-1 3.7.4 2 2-2.6 1.5-3.9 1.5-3.9 1.5-.8.2 8.8-16.5 20.7-33.4 23.8-.5.1-2.1.8-3.4 1.5-1.3.7-3.8 1.5-5.5 1.8-1.7.3-3.3.8-3.6 1.1-.5.7-2.4 1.1-7.5 1.6-3 .3-8.4 1.7-11.9 3.2-1.5.6-1.7.4-1.1-.7.8-1.2.6-1.2-.8 0-1.3 1.1-1.7 1.1-1.7.1 0-.8-.3-1.1-.6-.7-.4.3-.3 1.4.1 2.4 1.6 3.6 1.4 4.1-1.3 3.7-1.5-.3-2.9-.8-3.2-1.1-.3-.3.5-.3 1.7 0 1.3.3 2.6.1 2.9-.4.3-.5.2-.9-.3-.8-2.6.4-3.8-.1-2.3-1.1.9-.6 1-1 .3-1-2 0-3.4 3.5-2 5 1 1 .8 1.1-.8.5-2.5-1-6.6-.8-7.8.4-.6.6-1.9.6-3.4 0-1.3-.5-4.4-1-6.7-1.1-2.4-.2-4.2-.6-4-1 .6-.9-7.3-2.1-8.6-1.3-.5.3-1 .2-1-.2 0-.5-1.3-.8-2.9-.7-2.8.2-18.1-2.2-21.1-3.3-.8-.3-2.9-.7-4.6-.8-1.7-.2-4.1-.6-5.3-1-1.1-.3-3.3-.8-4.8-1.1-1.6-.2-3.9-.7-5.3-1.1-3.8-.9-4.1-1-9.4-2.3-2.8-.6-5.9-2.1-7.2-3.5-1.2-1.3-2.5-2.1-3-1.7-.4.4-.4.2 0-.5s-.1-2-1.1-3c-3.1-3.2-4.6-7-3.9-9.8.5-2 .4-2.5-.6-1.9-.8.4-1 .3-.5-.2s1.4-.9 1.9-.9c.6 0 1.3-.6 1.6-1.4.3-.9 0-1.1-.8-.6-.8.5-1.1.4-.6-.3.4-.7 2.4-.3 6 1.3 15.1 6.7 49.2 16.2 46.5 12.9-.8-.9-.6-1.1 1-.7 1.3.3 1.8 1.1 1.4 2.1-.4 1.4-.3 1.4.5.3.6-.8 1.7-1.1 2.7-.8 1.1.5 1.4.3.9-.6-.5-.8-.2-.7.9.2 1 .8 2 1.1 2.3.8.4-.3 1.3 0 2.1.8s2 1.5 2.6 1.5c.7 0 .6-.4-.3-1-.9-.6-1-1-.3-1 .6 0 1.4.4 1.8 1 .3.5 1.3.6 2.2.3 1.1-.4 1.4-.3.9.5-.5.8-.1 1 1 .5 1.2-.4 1.5-.3 1 .5-.4.7-.2 1.2.3 1.2.6 0 1.1-.6 1.2-1.3 0-.6.4-.3.9.8s.9 1.4.9.7c.1-1.6 3.8-.7 5.9 1.5 1.2 1.2 1.6 1.2 2.3.1.5-.7.9-.8.9-.3 0 .6 1.5 1.2 3.3 1.3 7.8.5-.8-2.4-32.2-10.8-17.3-4.6-20-5.5-19-6.3 1.2-1.1 16.8-6 18.9-6 25.3-.2 58.1 6.8 77.3 16.5 3.2 1.6 6.3 2.6 6.9 2.2.7-.4.8-.3.4.4-1.1 1.8 1.3 1.5 9.4-1.3 7.1-2.4 10.9-4.5 8.2-4.5-1.9 0-8.2-6.1-7.5-7.3.4-.7 0-.8-1.1-.4-1.4.6-1.7.3-1.2-.8.3-.9.2-1.3-.4-1-.5.3-2.5-.9-4.4-2.6-2.1-1.7-4-2.7-4.7-2.3-.8.4-.9.3-.5-.4s.1-1.2-.8-1.2-3-.9-4.8-2.1c-1.8-1.2-2.5-1.9-1.5-1.5.9.3 1.7.2 1.7-.3s1.1-1.2 2.5-1.5c1.4-.4 2.4-1 2.1-1.4-.3-.6 3.4-.8 6.2-.3zm32.6 51.2c-2.3 4.5-6.6 8.7-13.1 12.4-1.8 1-2.9 2.3-2.6 2.9.3.6.3.8-.2.4-.4-.4-2-.1-3.6.7-1.5.8-6.5 2.7-11.1 4.1-4.6 1.5-8.6 3.1-9 3.8-.4.6-.8.8-.8.3 0-.4-1.5-.1-3.4.7-2.3 1-3.7 1.1-4.4.4-1.3-1.3-1.1 1 .3 3.2.7 1.1.3 1.1-1.8-.3-1.6-1-2.7-1.3-2.7-.6 0 .6-.7.8-1.6.5-.9-.3-1.2-.2-.9.5.4.6-.2.8-1.8.4-2.1-.6-2.8-.2-4 2.1-.8 1.6-1.7 2.3-2.1 1.6-.4-.6-1.3-.9-2.1-.6-.8.4-1.3.9-1 1.3.2.4-.9.5-2.6.3-1.6-.2-2.9-.8-2.9-1.3s-.7-.6-1.5-.3c-.8.4-1.5 1-1.5 1.6 0 .5.4.7.8.4.5-.3.9.1.9.9 0 1.1-.4 1.2-1.3.4-.8-.7-1.4-.6-1.9.1-.4.7-1.6.9-2.7.7-1.4-.4-1.8-.2-1.4.9.3.8.2 1.3-.2 1-.9-.5-25.1-5.5-42.2-8.6-6.3-1.2-15.3-3.2-20-4.5-4.7-1.3-12.1-3.4-16.5-4.7-4.4-1.2-8.3-2.7-8.7-3.2-.5-.7-.8-.7-.8-.1-.1 1.4-3-4.2-3.6-6.8-.3-1.2-.7-4-1-6.2-.3-2.1-.8-4.3-1-4.7-.9-1.4 1.5-.9 13.9 3.1 51.3 16.6 66.1 20.9 73.2 21.5 3.3.3 5.3.3 4.5-.1-.8-.3-3.1-1.2-5-2.1-1.9-.8-3.8-1.4-4.2-1.4-.5.1-.7-.4-.5-1.1.1-.7-.8-1.2-2.2-1.1-2.1.1-2.2-.1-.7-1.1 4.1-3-5.5-6.2-19.9-6.6-5.6-.1-21.5-3.8-21.5-4.9 0-.7 13.7-5.7 17.6-6.5 2.4-.5 3.3-.2 3.8 1.1.4 1 1.3 1.4 2.6 1.1 1.1-.3 1.8-.1 1.5.3-.8 1.4 5.6 3.2 7.1 2 .9-.8 1.4-.7 2 .1.5.8.3 1-.7.4-1.1-.6-1.1-.5-.2.5.9 1 1.9 1 4.3.1 3-1 3.1-.9 1.9.6-1 1.2-1 1.5-.1.9.6-.4 1.2-.2 1.2.3 0 .6.5 1.1 1 1.1.6 0 1-.8 1-1.8 0-.9.4-1.3.8-.7 1 1.5 4.5 1.2 5-.4.4-1.1.6-1.1 1.3 0 .6 1 .9 1 .9.2 0-.9.7-1 2.4-.3 1.3.5 2.7.6 3 .3.3-.4.6-.1.6.6 0 .9-.8 1.1-2.5.7-1.4-.4-2.5-.2-2.5.4 0 .5 1.1 1 2.4 1 1.3 0 2.9.7 3.6 1.5 1.5 1.8.2 1.9-3.7.4-4.5-1.9-11.5-2.1-8.3-.4 1.4.8 2.6.9 2.8.4.5-1.4 2.2-1.1 1.9.3-.1.8.7 1.2 2.1 1.1 1.3-.2 2.1.1 1.8.6-.3.4 2.7 2.1 6.7 3.6s9 3.6 11.2 4.5c9.8 4.2 8.9 4.1 21.8 1.9 6.7-1.2 10-2.9 5.6-2.9-1.2 0-5.6-2-9.8-4.4-9.4-5.5-15.3-8.1-25.6-11.1-8-2.3-8-2.3 1.5-2 6.2.2 13.7-.4 21.6-1.7 12.1-2.1 12.1-2.1 15-.1 10.3 7 17.5 11.3 19.1 11.3 4.7 0 10.2-5.7 7.2-7.5-.6-.4-.8-1.3-.5-2.1.3-.7 0-1.6-.6-2-.7-.4-.8-.3-.4.4 1 1.7-.9 1.5-2.4-.3-.7-.8-1-2.1-.7-3 .4-.8.2-1.7-.3-2-.6-.4-1 0-1 .7 0 1-.3.9-.9-.2-.6-.8-.8-1.7-.5-2.1.2-.4-.2-1-.8-1.2-.9-.4-.7-.6.3-.6 2.2-.1 5.3 3.5 4.3 5.1-.4.7-.3 1 .1.5.5-.4 2.3.9 4.1 2.8 3.8 4.2 3.6 4.3 6-6 1.8-8 1.8-8 2.5-3 .5 4.1.2 5.9-1.7 9.6zm-207.9 20c5.4 1.4 9.5 3.2 9.5 4.1 0 .5.3.7.8.7 1.9-.3 3 .2 3.6 1.7.5 1.3.2 1.5-1.5 1.1-1.7-.5-1.9-.3-1 .6.9.9 1.6.9 3.1-.1 1.3-.8 2.1-.8 2.6-.1.9 1.4-.1 2.1-3 2.1-1.6 0-2.3.5-1.9 1.4.3.7.8 1.3 1.1 1.2.4 0 1.8 0 3.2.1 2.5.2 2.5.2.3 1.1-1.3.5-2.3 1.2-2.3 1.5 0 .4.4.4.8.1 1.2-.7.7 4.1-.7 5.7-.7.9-.9 2.8-.6 4.8.6 3.2.5 3.3-1 1.4-1-1.3-1.4-1.5-1.3-.5.3 1.3-1.3 1.5-10.4 1.2-7.1-.2-12.5.2-16.4 1.2-5.7 1.5-9.4.9-9.4-1.4 0-1.7-1.8-1.1-2.2.7-.3 1.4-.8 1-2.1-1.4-3.6-6.7-3.8-8.2-1.7-10.3 1.1-1.1 2.2-3.1 2.4-4.6.6-3.1 4.7-9.4 5.8-8.8.4.3 1.5 0 2.5-.6 6.2-3.6 13.2-4.7 19.8-2.9zm209.5 6.5c2.2 5.8.5 11.2-5.5 17.3-.2.2-3.4-1.8-7-4.5-6.6-4.8-6.6-4.8-2-7 2.5-1.3 6.2-3.6 8.3-5.3 4.5-3.7 5-3.8 6.2-.5zm-94.1 10.5c13.2 3.2 15.6 4.3 12.2 5.2-1.2.3-2.1 0-2.1-.6 0-.8-.3-.8-.8-.2-.4.5-1.8 1-3.2 1-1.4 0-2.8-.5-3.2-1-.5-.6-1.2-.4-1.8.5-1 1.5-1.5.3-1.1-2.3.1-.5-.3-.5-.9-.2-.6.4-.9 1.4-.6 2.2.3.8.2 1.2-.3.8-.5-.3-1.2.1-1.5.7-.4.7-.5.3-.2-.8.4-2.3-4.1-2.7-8.9-.9-1.6.5-1.7.5-.5-.4.8-.6 1.1-1.1.5-1.2-4.4-.4-7.3-1.9-3.7-1.9 1.5 0 2-.4 1.5-1.6-.5-1.3-.7-1.3-1.4-.2-.5.7-.9.8-.9.2 0-3.2 1.4-3.1 16.9.7zm65.7 6.3c12.2 9 12.5 10.5 3.2 12.6-5.6 1.2-7.6.5-15.6-4.8-3.1-2.2-7.9-4.9-10.7-6.2-5.6-2.5-5.6-2.5 4-4.4 11.5-2.2 12.6-2.1 19.1 2.8zm-134.8 1.5c9.1 4.7 23.3 10.3 34.7 13.8 2.8.8 6.5 2.1 8.3 2.9 1.8.8 3.8 1.1 4.4.8.6-.4.8-.3.5.3-.4.6.6 1 2.3 1.1 1.6 0 3.8.5 4.9 1.1 1.1.6 2.2 1.1 2.6 1.1 1.1 0-3-4.9-4.1-5-.6 0-2.4-1.2-3.9-2.8-1.6-1.5-2.5-2-2.1-1.2.6 1.2.5 1.1-.6-.1-.7-.9-1.9-1.4-2.7-1.1-.8.3-1.1 0-.7-.6.4-.6-.1-.8-1.3-.5-1 .3-2.8 0-3.8-.6-1.4-.7-2.3-.7-3.1.1-1.2 1.2-5.6-1.7-4.7-3.2.2-.3-2.2-1.9-5.3-3.5-5.7-2.9-5.7-2.9-2.2-3.4 3.9-.7 30 .4 34 1.3 3 .8 3.7.9 22.6 4 16.2 2.8 24.8 5.9 33.7 12.2 3.4 2.5 5.5 3.3 7.4 3 1.7-.4 2.3-.2 1.6.5-.5.5-2.4 1.1-4.1 1.2-2.1.1-3.4.8-3.8 1.9-.3 1-1 1.8-1.5 1.8-.6 0-.7-.5-.3-1.2.5-.8.2-.9-.9-.5-1 .4-1.7.1-1.7-.6 0-.8-.3-.8-.9.1-.5.8-2.5 1.4-4.7 1.4s-4.4.4-5 .9c-.5.4-4.3.7-8.2.6-4-.2-7.2 0-7.2.5 0 .4-1.1.8-2.4.8-2.3 0-4.6 3.8-2.5 4.1 1.9.3 2.4.5 3.7 1.2.6.5 1.6.6 2.1.3.5-.4 1.1-.2 1.3.4.2.6 1.2 1.2 2.3 1.5 1.1.3 3.6.8 5.5 1.3 1.9.4 3.3 1.2 3.2 1.6-1.2 2.9 7.5 3.4 19.4 1 8.1-1.6 8.1-1.6 12.5 1.5 2.3 1.8 4.9 2.9 5.6 2.6.8-.2 1.2-.1.9.4-.3.4 1 2.3 2.9 4.1 3.6 3.4 3.6 3.5 12.9 1.4 1.9-.5 2.7-.3 2.3.3-.5.8-5.7 2.4-7 2.2-.1 0-1.4.4-2.8 1-1.9.7-3 .6-3.8-.2-1-.9-1.2-.9-.9.3.2 1.1-1 1.5-5.6 1.8-3.2.1-6.6.7-7.6 1.2-1.1.6-2.1.5-2.7-.1-1.2-1.2-5.6-.2-4.9 1 .3.4-.8.8-2.4.9-2.4.2-2.7-.1-2.3-1.9.6-2.1.6-2.1-1.6-.3-1.9 1.7-2 2-.6 3 1.2.9 1.3 1.3.3 1.7-.8.3-.5.6.6.6 1.1.1 1.6.4 1.3.8-.4.3-.2 1.2.5 2 2.4 3-.4 2.5-8.6-1.5-.5-.3-.6.2-.2.9.4.8.1.6-.7-.4-.8-.9-2.2-1.7-3.1-1.7-.9 0-1.6-.5-1.6-1.1 0-.5-.4-.7-1-.4-.5.3-1 .1-1-.6s-.3-1-.6-.6c-.4.3-4.1-1.2-8.2-3.3-4.2-2.2-8.2-4-8.9-4-.7 0-1.3-.4-1.3-1 0-.5.7-.7 1.5-.4 1.1.5 1.3.2.9-1-.5-1.3-.8-1.4-2.8-.1-3.5 2.3-12.2-.2-29.6-8.3-12.5-5.8-30.5-12.8-39.6-15.3-4.3-1.2-9-2.6-10.4-3.1-1.4-.5-2.6-.8-2.7-.6 0 .1-1.2-.8-2.5-2.2-1.2-1.4-2.7-2.6-3.3-2.6-1.9-.1-1.7-3.6.3-5.7s2-2.3.3-5.9c-5-10.1-4.3-10.4 8.7-3.9zm-75.5 4.5c2.2 3 1 9.1-1.5 6.9-1.9-1.7-1.9-1.6-.9 1.1 1.5 3.7 1.6 3.6-2.7 3.6-2.8 0-7.6 1.9-16.8 6.5-12.6 6.3-14.7 6.8-12.4 2.5.6-1.1.8-2.6.4-3.2-.4-.6-.3-.8.4-.4.5.3 2-1 3.2-2.9 1.2-1.9 2.5-3.3 2.9-3.1.4.3 2-.2 3.6-.9 8-3.8 12.2-5.2 14.8-4.8 1.7.2 2.6 0 2.3-.6-.3-.5-.3-1.1.1-1.4.5-.2.3-.2-.4-.1-.7.2-1.5-.2-1.9-.8-.8-1.3 2.4-4 3.7-3.2.5.3.9.1.9-.5 0-1.5 2.9-.7 4.3 1.3zm229.2 1.8c-.2 1.7-.8 2.2-2.4 2.1-1.3-.2-2.1.3-2.1 1.2 0 .8-.7 1.5-1.5 1.5s-1.5.4-1.5.8c0 .7-3.1 2-8.9 3.7-1.7.5-2.2.4-1.9-.6.3-.8.9-1.4 1.4-1.5.5 0 2.6-.8 4.6-1.7 2.1-1 4-1.7 4.3-1.7.3 0 1.1-.5 1.8-1 1.3-1.1 6.2-4.9 6.3-5 0 0 0 1-.1 2.2zm-163 26.9c-.6.8.8 1.3 2.8 1 .4 0 .7.3.7.9 0 .5.7 1 1.5 1s1.5.3 1.5.8c0 .6 17.9 11.7 29.3 18.1 2.3 1.3 6.3 3.6 9 5.2 6.4 3.9 6 2.8-.8-1.7-7.7-5.2-6.5-5.8 9.4-5 7.5.4 15 .8 16.6.8 1.7 0 6.2 1.1 10 2.5 3.9 1.4 7.7 2.6 8.5 2.6 2 0 3.8 1.9 3.2 3.5-.2.7.6 1.2 2 1.2 1.8 0 2 .2.8 1-.8.5-1 1-.4 1 .5 0 2.5 2 4.4 4.5 1.8 2.4 3.8 4.1 4.3 3.8.6-.3.7-.1.3.5-.8 1.3 2.2 4.4 3.5 3.6.5-.3.4-1.4-.2-2.6-1-1.8-.9-2 .6-1.4 1.5.5 1.6.4.5-.9-.7-.9-1.5-1.3-1.8-1-.6.6-3.2-1.4-3.2-2.6 0-1.2 3 .1 5.8 2.5 3 2.6 9.4 11.7 6.7 9.6-1.7-1.4-1.8-1.3-1.2.2.3 1 .2 2-.3 2.3-.6.4-1-.1-1-.9s-.4-1.7-.9-2c-1-.6-.9.8.2 3.4 2.3 5.5 2.6 6.9 1.4 7.3-.7.2 1.9 1.4 5.6 2.6 3.8 1.3 7 2.1 7.3 1.9 1.7-1.8-11.4-21.4-21.4-32.1-3-3.2-5.2-6-5-6.2 1.4-1.5 33 12.5 39.3 17.4 10.3 7.9 19.8 17.3 18.3 18.2-2.7 1.7-11.8 2.9-24 3.1-6.9.2-12.4.6-12.2.9.2.4-.6.9-1.7 1.2-1.6.4-2 .2-1.6-1.2.3-1.4-1.3-2.5-8.2-5.4-4.7-2-7.8-3-6.7-2.4 8.3 5.4 11.2 7.1 11.7 7 .3-.1.6.5.6 1.3s-.4 1.4-.9 1.4c-.4 0-.8-.5-.8-1.2 0-.6-.9-.3-2 .7-1.9 1.7-1.9 1.9-.4 3.7 1.6 1.7 1.6 1.8-.4 1.8-1.1 0-2.4.5-2.7 1-1.6 2.6-15.1-3.6-18.7-8.5-.4-.5-.8-.6-.8-.1s-.9-.3-2.1-1.8c-1.1-1.4-2.7-2.6-3.5-2.6-.8 0-1.4-.5-1.4-1.1 0-.5-.4-.8-.9-.5-.5.3-1.2-.1-1.5-1-.4-.9-.9-1.4-1.2-1.1-.4.3-1.3-.1-2.1-.9-.9-.8-2.2-1.3-3-1-.8.3-1.2.2-.8-.3.6-1.1-5.4-4.3-6.6-3.5-.5.3-.9 0-.9-.7s-.3-1-.6-.6c-.3.3-2.1-.3-3.9-1.3-2.2-1.2-5.4-1.8-9.9-1.9-3.7 0-7.1-.3-7.6-.6-2.8-1.7-.4.9 3.2 3.5 2.2 1.6 3.8 3 3.3 3-.4 0-.2.7.5 1.5.7.9 1.9 1.4 2.6 1.1.7-.3 1.6 0 2 .6.4.7.3.8-.4.4-1.4-.8-1.5-.4-.6 1.8.3.9 1.3 1.6 2.2 1.6.8 0 1.2.3.9.7-1 .9 2.4 4.4 3.6 3.6.6-.3.7-.1.3.6-.4.6-1.2.9-1.7.6-.5-.3-.6.1-.3 1 .4.9 1.3 1.4 2 1.1.8-.3 1.3 0 1.1.7-.1.7.5 1.1 1.3.9.8-.2 1.2 0 .8.3-.4.4.3 1.6 1.5 2.7s1.6 1.6.9 1.3c-1.1-.6-1.1-.3 0 1.4.7 1.2 1.6 2.1 1.9 2.1.4 0 .9.6 1.2 1.4 1.1 2.7-2.3 1-6.3-3.2-2.2-2.3-4-4.5-4-4.9 0-.5-.9-1.4-2-2.1-1.1-.7-2-1.7-2-2.3 0-.9-3.8-5.3-10.8-12.5-.7-.8-1-1.8-.7-2.4.4-.6.3-.9-.2-.8-.4.1-3.5-2.5-6.9-5.9-6.1-6.1-12.4-10-20.1-12.3-2.3-.7-4-1.7-3.7-2.1.3-.5-.9-.9-2.6-.9-1.7 0-2.9-.4-2.5-.9.3-.5-1.1-1.5-3-2.2-1.9-.7-3.5-1.6-3.5-2.1 0-1.3 2.4-6.3 3.8-8.1.9-.9 1.1-1.7.5-1.7-.5 0-.8-1.7-.7-3.8.3-3.7.3-3.7-1.2-.9-.8 1.5-1.2 3.2-.9 3.7.9 1.4-.8 1.2-3-.4-1.1-.8-1.6-2-1.2-2.9.3-.9.2-1.9-.4-2.3-.6-.3-.8-1.2-.5-2 .3-.8.1-1.4-.5-1.4s-.6-.7.1-1.9c1.3-2.6 1.3-3.4-.2-2.5-.7.4-.8.3-.4-.4.5-.9 1.3-.9 2.7-.2 1.1.6 1.7 1.5 1.4 2.1zM276.7 705c.1 1.7-.1 3-.6 3-.4 0-.8.7-.8 1.5 0 1.3.4 1.2 2-.2 1.1-1 1.7-1.3 1.4-.6-.4.6-.2 1.3.4 1.5.6.2.2 1.4-1.1 2.8-1.5 1.7-2 2-1.6.8.3-1 .1-1.7-.5-1.5-2 .4-2.7-3.8-1.3-7.1 1.6-3.9 1.8-4 2.1-.2zm433.6 11.7c.3 3.7.1 6.3-.5 6.3-.5 0-.7.4-.4.8.9 1.6-1.7 9.7-4.6 13.9-3.3 4.9-7 7.9-14.8 12-7.8 4.1-9 4.5-9 2.9 0-.8 1.2-1.7 2.8-2.1 11-2.7 15-8.8 13.3-20.2-1-7-1-8.8.1-9.4.7-.5 1.5-.4 1.6.1.2.6.8.7 1.4.4.8-.5.9 2.2.5 8.6-.6 8-.5 9.1.7 7.4 3.1-4.5 7.4-19.2 7.6-25.8 0-3.9.8-.9 1.3 5.1zm-408.5-3c-.9 1-1.4 2.3-1.1 2.9.7 1.9-2.6 3.9-4 2.5-.9-1-.5-1.9 2.1-4.2 3.6-3.2 5.4-3.9 3-1.2zm-3.6 10.2c.4 3.3-2.6 5.2-4.8 3-1.4-1.5-1.4-1.9.1-4.9 1.9-3.6 4-2.8 4.7 1.9zm97.1 12.6c.5 6.2.4 6.8-.9 5.1-.7-1.1-1.7-1.7-2.1-1.3-.3.4.2 1.7 1.3 2.9 1 1.3 1.2 1.7.4 1-1.9-1.6-3.5-1.5-2.1.2.9 1.1.7 1.2-1.2.9-1.4-.3-2.9.3-4.1 1.6-1.1 1.2-1.6 2.1-1.3 2.1.7 0-1 2.3-5.2 6.9-1.3 1.4-2.8 3.3-3.5 4.1-1.9 2.4-7 6.6-6.1 5 .6-1 .1-.8-1.3.4-1.2 1-2 2.2-1.7 2.5.2.4-.6.8-1.8.8-1.2.1-2.7.9-3.3 1.8-.6.8-1.5 1.5-2.1 1.5-.5 0-1.9.9-3.1 2.1-1.2 1.1-2.7 1.7-3.2 1.4-.6-.3-1.4.5-2 1.9-.5 1.4-1.2 2.6-1.5 2.6-.4 0-.3-.6 0-1.3.4-.6 0-.4-.8.5-.8 1-1.7 1.8-2.1 1.8-.3 0-1.5.9-2.5 1.9-1.2 1.2-2.7 1.7-4 1.4-2-.5-2-.7-.5-1.8 1.4-.9 1.4-1.4.4-2-.8-.5-1.1-.4-.7.2.4.6 0 1.4-.9 1.7-.9.3-1.4 1.3-1 2.1.7 1.8-3.1 4.6-5.2 3.8-1-.4-1.3-.2-.8.5.5.8.1 1-1 .5-1.2-.4-1.5-.3-1 .5.4.7.1 1.2-.9 1.2s-1.4-.5-1-1.3c.4-.6-.2-.2-1.3 1-1.1 1.3-2.5 2.3-3.2 2.3-.6 0-.8.4-.5 1 .3.6-.1.7-.9.4-.9-.3-1.3-1.1-.9-1.7.3-.6.1-.7-.6-.3-.6.4-.8 1.3-.4 1.9 1.5 2.4 1.2 4.3-.3 2.3-1-1.5-1.4-1.6-1.5-.5 0 .9-.2 1-.5.2-.3-.7 0-2.2.7-3.5 1.2-2.3 1.2-2.3-1-.4-1.2 1.1-2.5 3.3-3 5-.8 3.1-.8 3.1-1.6-.7-1.5-7.7 3.4-16 15.6-26.2 4-3.3 9.4-7.9 12.1-10.3 2.7-2.3 8.1-5.8 12-7.8 3.9-2 13-7.1 20.2-11.4 12.4-7.3 20.9-12 21.2-11.7.1.1.4 3.3.7 7.2zm241.7 4.6c0 .5-.6.7-1.2.3-.9-.5-.8-.2.1 1 1 1.2 1.6 1.3 2.1.6.5-.7 1-.3 1.3 1.1.8 3-.7 4.6-2.7 2.9-.9-.7-1.4-1.6-1.1-2 .3-.5 0-1-.7-1.2-.6-.2-.9-1.2-.5-2.1.7-1.9 2.7-2.3 2.7-.6zm-49 2.2c3 1.3 11.6 6.2 19.1 10.9 7.5 4.7 16.8 10.2 20.8 12.2 3.9 2 9.9 5.9 13.3 8.6 3.3 2.7 8.5 6.2 11.4 7.7 4.3 2.2 6.8 4.3 5.2 4.3-.2 0-3.6.7-7.6 1.5-4 .9-10.9 1.6-15.3 1.6-4.3 0-8.1.5-8.4 1-.4.5 0 .9.7.9.9.1.8.3-.2 1-3.2 1.8-4.3 1.5-4.7-1.5-.6-4.6-3.1-7.3-11.7-12.5-8.5-5.2-12.8-10-20.2-22.6-2.2-3.7-5.6-8.6-7.7-11-4.6-5.2-3.4-5.7 5.3-2.1zm-302.7 8.3c.3.4.2 1.5-.3 2.4-.8 1.5-.6 1.7 1.3 1.4 1.2-.2 1.7-.2 1 .2-.7.3-1 1.1-.7 1.9.4 1 0 1.2-1.6.8-1.3-.4-2.6 0-3.1.8-1 1.4-.2-5.7.8-7.4.5-.9 1.7-.9 2.6-.1zM695 767.9c0 .6-.5 1.3-1.2 1.7-.6.4-.8.3-.5-.4.5-.6 0-.8-1.3-.5-1.1.3-2 1.4-2 2.4 0 1.1-1.4 2.4-3.7 3.4-2.1.9-5.2 2.3-7 3-3.7 1.6-4.7.7-3.3-2.9.8-2.2.7-2.6-.8-2.7-1.7-.1.5-.7 10.1-2.7 2.6-.5 5.1-1.2 5.4-1.6 1-1 4.3-.7 4.3.3zm15.4 8.6c1.2-6.2 1.5-6.4 1.4-.8-.1 2.9-.6 5.3-1.1 5.3-.5 0-.7.9-.4 2 .3 1.1.2 2-.2 2s-1.2 2-1.9 4.5c-2.6 9.9-13.2 24.5-23.2 32.3-3 2.3-6.4 4.9-7.5 5.8-4.5 3.6-23.5 10.9-24.5 9.4-.3-.4-2.5-1.1-4.9-1.5-3.5-.6-5.2-1.6-8-4.8-2-2.3-6.6-7-10.3-10.5-6.1-5.8-10.8-13.2-7.5-11.8 11.4 4.8 17 4.4 35.2-2.4 14.8-5.5 14.9-5.4 18 2.8 1 2.6 2.9 6.2 4.3 8.1 2.4 3.3 2.5 3.4.7 4.7-1 .8-1.4 1.4-.8 1.4.5 0 2-.9 3.3-2 1.3-1.1 2.6-2 3-2 2.4 0 3.1-6 1.5-11.7-3.7-12.1-3.3-15.3 1.9-15.3.1 0 1.7 3.4 3.5 7.5 3.3 7.4 6.1 10.3 4.6 4.7-.5-1.5-.8-3.9-.9-5.5-.1-1.5-.5-2.7-1-2.7-.4 0-.6-1.1-.4-2.5.3-1.3.1-2.2-.3-1.9-1.1.6-1.1.1-.3-2 .3-.9 1-1.6 1.4-1.6.9 0 3.1 14 2.4 15.4-.3.6.1.2 1-.9.8-1.1 1.9-2.5 2.5-3.1 3.2-3.8 4.5-8.3 4.6-15.2 0-4.1.4-7.2 1-7.2s.3-.5-.5-1.1c-1.1-.8-1.2-1.2-.2-1.6.6-.2 1.3-1.4 1.4-2.6.1-1.2.4.3.8 3.3.6 5.5.6 5.5 1.4 1.5zm-5.2 8.5c-.6 4.7-.9 4.8-2.1.9-.7-2.7-.9-2.9-1-1.1-.1 1.3-.5 2-1.1 1.7-.5-.3-1-.1-1 .6s-.2 1-.5.7c-.3-.3.7-2.6 2.2-5.1 3.1-4.9 4.4-4.1 3.5 2.3zm-83.3 10.9c2.9 5.3 3.1 7 1.1 8.1-1.1.6-2 .7-1.9.3.3-1.8-.2-3.3-.9-3.1-.8.3-6.2-5.4-6.2-6.4 0-1.6 7-.6 7.9 1.1zm83.9 69.9c1.9-1.6 1.1 5.4-1.2 10.6-.8 1.7-2.4 5.7-3.7 8.9-2.3 5.7-4.2 5.8-3.3.2.1-1.1.5-4.5.8-7.6.5-5.2 4.6-14 5.4-11.7.2.5 1.1.3 2-.4zM313 881.3c1.4 8.2 1.3 8.5-4.5 6.3-5.9-2.3-6-2.6-3.5-9.4 4-10.6 5.8-9.9 8 3.1zm54.3-.7c.9 1-1.2 4.6-2.4 3.9-.5-.4-.9-.1-.9.6 0 .6-.8 1.8-1.7 2.6-1.7 1.4-1.7 1.4 0 .9 1.1-.4 1.6-.2 1.2.5-.4.5-1.2.8-1.8.6-.6-.2-2 .6-2.9 1.7-1 1.2-.1-.9 1.9-4.6 3.5-6.3 5-7.7 6.6-6.2zM291.1 900c.5 0 1.9 1 3.1 2.2 1.7 1.7 1.8 2 .4 1.5-1.5-.6-1.7-.3-1.3 1.5.4 1.2.1 2.9-.6 3.7-.8 1-.9 1.3 0 .8 1.2-.8 1.2 1.7 0 2.9s-.8 2.6.6 1.8c1-.6 1-.4 0 .7-1 1-1.6 1-2.5.1-.7-.7-.8-1.2-.4-1.2.5 0 .2-.8-.5-1.7-1-1.1-1-1.4-.1-.9 1.8 1.1 1.5-.4-.5-2.7-1-1.1-1.3-1.7-.7-1.4.7.4 1.5 0 1.8-.9.3-.8.2-1.2-.4-.9-.6.4-.9-1.4-.9-4.7.1-2.9.4-4.3.6-3.1.2 1.3.9 2.3 1.4 2.3zm403.1 19.7c-1.6 3.7-3.3 7.7-3.7 8.8-.6 1.6-1 .8-1.6-3.2-.9-5.2-.9-5.2 3.4-9.2 5.3-5 5.5-4.7 1.9 3.6z"/><path d="M466.6 261.2c.3.5-.1 1.7-1 2.7-2 2.2.6 4 3 2.1 1.8-1.6 1.3-4.8-.8-5.3-1-.3-1.5-.1-1.2.5zm44.5 74.7c-.9.6-.7 1.4.8 3.2 1.4 1.7 2.3 2.1 3.1 1.3 2.2-2.2-1.2-6.1-3.9-4.5zm36.2 12.9c-3.1 1.9-2 5.7 1.6 5.5 4.1-.2 5.6-2.1 3.4-4.5-1.7-1.9-3.1-2.2-5-1zM599 679.1c0 .5-.9.9-2.1.9-1.1 0-1.8.4-1.4 1 .3.5 1.2.7 2 .4.9-.4 1.8.2 2.2 1.2.9 2 3.3 2.5 4.5.9.4-.6.8-.2.8.7 0 1 .5 1.8 1.1 1.8.5 0 .7-.5.4-1-.3-.6-.2-1 .4-1 2.1 0 .3-3.5-2-3.7-2.4-.2-2.4-.2.1.7 2.5.9 2.5.9 0 .7-1.6-.1-2.5-.8-2.4-1.7.1-.9-.7-1.7-1.7-1.7-1.1-.1-1.9.2-1.9.8zm11 12.9c.8.5 5.8 2.4 11 4.1 5.2 1.7 10.7 3.7 12.2 4.5 1.5.8 3.1 1.4 3.5 1.4 1.9-.2-8-4.6-17.1-7.6-10.6-3.6-12-3.9-9.6-2.4zm-.3 2.7c-2.1 2.1.9 6.3 3.4 4.7.5-.3.9 0 .9.6 0 .7.7 1 1.5.6.8-.3 1.5-.1 1.5.4 0 .6.7 1 1.6 1 .9 0 1.2.5.8 1.2-.4.6-.3.8.4.5.5-.4.8-1.6.5-2.7-.3-1.1-.9-1.7-1.4-1.4-.5.3-1.2-.2-1.5-1-.3-.9-1-1.3-1.5-1-.5.3-.9.1-.9-.5 0-.5-.9-.8-2-.6-1.1.2-2.3-.1-2.6-.7-.5-.7-.2-.8.6-.3.9.5 1.1.4.6-.3-.8-1.4-1-1.4-1.9-.5zM454.1 55.4c-.6.7-2.8 1.6-4.9 2-3.7.5-5.2 1.8-14.2 11.1-3.5 3.7-3.5 3.7.8 1.6 2.8-1.4 4.2-2.8 4.2-4.1 0-2.6 4-4.6 9.9-4.9.8-.1 1.1-.7.7-1.7-.3-.8-.2-1.2.3-.9.5.3 2.2-.6 3.7-2s2.2-2.5 1.7-2.5c-.6 0-1.6.6-2.2 1.4zm-18.9 30.4c.2 1-.9 3.3-2.5 5.1-2.2 2.6-2.7 4.2-2.6 7.9.2 4.7.2 4.7.8-.5.4-2.9 1.1-5.6 1.6-6.1.6-.5 2.3-1.8 3.9-3 2-1.5 2.4-2.2 1.2-2.2-1.9 0-2.2-1.6-.3-2.3.7-.3.4-.6-.6-.6-1.2-.1-1.7.5-1.5 1.7zm38.3 64.3c-.4 1.1-1.4 1.5-2.8 1.2-1.2-.3-.3.6 2.1 1.8 2.3 1.3 4.2 2.9 4.2 3.7 0 .8.6 1.2 1.4.9 1-.4 1.3-.1 1 .8-.3.7-1.3 1.2-2.3 1-1.1-.2-1.7.4-1.8 1.7-.2 2.4-2.1 4.8-3.5 4.5-.6-.1-1.2.8-1.4 2.1-.2 1.3 0 2.1.4 1.8.4-.2 1.4 0 2.2.5 1.3.9 1.3 1 0 .8-2.9-.3-3.8.1-5.5 2.7-1.6 2.5-1.6 2.5.4 1.5 2.9-1.6 4.5-1.4 2.9.3-.7.8-1.6 1.2-2 .9-.5-.2-.8.3-.8 1.1 0 .9-.4 1.6-1 1.6-.5 0-1-.4-1-.9 0-.6-.9-.9-1.9-.8-1.1 0-1.7.5-1.5.9.3.4-.5.9-1.8.9-2.9.2-2.9.2-5.3-.6-2-.6-2-.6-.1.7 3.7 2.5 10.7 9.9 11.7 12.4 1.2 3.3.2 4.9-1.9 3.2-1.2-1-1.4-1-.8-.1.4.7.2 1.3-.3 1.3-.6 0-1.1.8-1.1 1.7-.1 1.4-.4 1.2-1.4-.6-1.3-2.4-3.1-.6-2.5 2.5.3 1.9-.3 5.8-.7 4.7-.8-1.9-3.4-.3-3.4 2 0 1.1-.3 1.7-.7 1.4-.3-.4-1.7 0-3.1.9-1.3.9-2.1 1.1-1.8.5.8-1.2-2.1-1.1-4.2.3-1 .6-1 1.1-.2 2.1.9 1.1.5 1.2-2 .8-2-.3-3-.1-2.6.5.3.6-.1.9-1 .8-.8-.1-2-.9-2.5-1.7-.7-1.1-.9-.9-.9.8 0 1.6-.4 2.1-1.5 1.7-.9-.4-1.5 0-1.5.7 0 1-.3 1-.8.3-.8-1.3-4.4-1.5-3.6-.2.3.5 1 .5 1.6.2.7-.4.8-.2.4.4-.5.8-1.3.9-2.4.3-1.1-.6-2.6-.5-4.2.4-1.4.7-3.1 1-4 .5-.8-.4-3-.1-4.8.7-3.4 1.4-3.4 1.4-1 3.2 5.5 4.3 15.6 5.1 41.9 3.5 18.9-1.2 18.9-1.1 18.9-14 0-10.7.4-12.2 5.6-18.9 9.9-13 13.6-20.6 13.1-26.6-.5-5.4-3.7-12.5-4.5-10-.3.8-.9.6-1.9-.6-.8-1-1.2-1.2-.8-.6.8 1.6-2.1 1.8-3 .2-.4-.6-1.3-.8-2.1-.5-.8.3-1.4 0-1.4-.7 0-.8-.4-.6-1 .3-.7 1.2-1 .8-1.1-1.5 0-2.5-.2-2.6-.8-1-.8 1.9-.8 1.9-1.9 0-.9-1.8-1.1-1.8-1.7-.4zm-103.8 98c-.9.5-2.1.8-2.6.4-.5-.3-1.2-.1-1.6.4-.4.7-1.5.7-3.2 0-2.2-.8-2.4-.8-1.4.5 1.2 1.4-2.7 1.5-5 .1-.4-.3-1 .2-1.3 1.1-.4.9-1.1 1.2-1.8.7-2.3-1.4-4.6-1.4-2.7 0 .9.7 1.4 1.7 1.2 2.3-.2.7.7 1.1 2.2 1.1 2.2 0 2.6-.3 2.1-2.1-.5-2.1-.5-2.1 1-.1.9 1.2 1.1 2.1.4 2.3-.5.2-1 1.1-1 2 0 1.5.2 1.5 1 .2.9-1.3 1-1.3 1 0 0 1.2.2 1.3.9.1.7-1.1 1-1.1 1.5 0s.7 1.1 1.2.1c.9-1.9 3.5-1.5 2.7.4-.4 1.2.2 1 2-.7 1.5-1.2 2.7-2.9 2.7-3.6 0-.8.7-2.5 1.6-3.8 1.8-2.8 1.7-2.9-.9-1.4zm37.9 47.5c2.3 3.4 6.9 5.7 9.7 4.8 3.8-1.2 6.7-1.3 6.7-.1 0 .7.4.6 1-.3 1.6-2.6-3.1-4.9-5.7-2.8-1.8 1.5-7.7.1-9.8-2.2-2.6-2.9-3.9-2.5-1.9.6zm130 110.2c-2.2.3-2.6.6-1.5 1.2 1 .7.8.9-.8.7-1.2 0-1.9-.5-1.6-.9.6-1-5 .2-5.7 1.2-.3.4-1.2.9-2 1.2-.8.3.3.6 2.5.5 3-.1 4.7.5 6.3 2.1 1.2 1.2 1.9 2.2 1.5 2.2-.4 0 .3.7 1.5 1.6 2.3 1.6 3.2 5.1 1 3.8-.9-.6-.9-.3 0 .9.8.9 1.1 2.1.7 2.7-.3.5.1 1.3.9 1.6.9.3 1.6 1 1.6 1.6 0 .5-.6.6-1.2.2-1-.5-1-.4-.1.6.9.9.9 1.9.2 3.4-.9 1.9-.9 1.9.4.4.8-1 1.7-1.5 2-1.1.9.9.9 3.4 0 3-.5-.1-.8.2-.8.8 0 .5.3.9.8.7.4-.1.8.2.8.8.3 2 .4 2.5 1.3 3.9.7 1.1.6 1.2-.5.6-1.2-.7-1.2-.6-.1.7 1.3 1.7.7 4.8-1.1 4.8-.8 0-.8.3 0 1.1.7.7 2.7 0 6.9-2.7 12.9-8.3 34.7-15.3 53.9-17.4 5.5-.6 11.7-1.5 13.7-1.9 2-.5 3.9-.6 4.2-.3.4.3.6 0 .6-.6 0-.7-1-1.2-2.2-1.2-1.2 0-6.7-1.5-12.2-3.4-28.6-9.7-55.9-14.6-71-12.8zm48.6 10.6c.4.6 1 .7 1.4.4.3-.4 1.6.3 2.8 1.5 1.1 1.2 2.7 2.3 3.5 2.5.7.2 3 1.2 5 2.3 3.6 2 3.6 2 .2 1.4-1.9-.3-6.2-2.3-9.7-4.5-3.5-2.2-6.8-4-7.3-4s-1.3-.5-1.6-1c-.9-1.4 4.8 0 5.7 1.4zm-127.3-5.7c-.1.5-.1 1.1 0 1.5 0 .5-.6.8-1.4.8-.9 0 .7 2 3.5 4.5 5.2 4.6 7.7 6 4.6 2.6-1-1.1-1.5-2.9-1.2-4.4.4-2.6-1.4-4.3-4.3-3.8-.7.1-1-.2-.6-.8.3-.6.4-1.1.1-1.1-.3 0-.7.3-.7.7zm250.6 5.3c2 .9 2 .9 0 1-1.8.1-1.8.2.5 1.4 2.4 1.4 2.4 1.4-1.5 1.4-2.2 0-4.1.5-4.3 1-.2.6-1 .8-1.9.5-1.1-.4-1.4-.2-.9.5.4.7.1 1.2-.9 1.2-.9 0-1.3-.5-.9-1.1.4-.8.1-.8-1.2-.1-1.1.5-5 .8-8.7.7-3.7-.1-7 .2-7.3.6-.2.5-1.1.6-1.9.3-.8-.3-2-.2-2.7.2-.7.4-3.7.9-6.8 1.1-3 .1-8.9.5-13 .9-4.1.3-8.7.6-10.2.7-1.6 0-2.8.3-2.8.7 0 .5-.8.6-1.9.3-1-.2-4.5.1-7.7.7s-7.2 1.4-8.9 1.6c-1.6.3-4.1.7-5.5 1-1.4.2-6.1.9-10.4 1.5-4.4.5-8.7 1.4-9.6 1.9-1 .5-2 .7-2.3.3-.4-.3-1.2-.1-2 .5-.7.6-2.6 1-4.2 1-4.9-.1-9.6 1.2-8.8 2.5.4.8.1.7-.9-.1-1.3-1-1.9-1-3.2.4-1 .9-1.9 1.4-2.2 1.1-.3-.3-3.4.9-6.9 2.7-3.4 1.8-7.4 3.6-8.9 4-1.6.4-2.4 1.1-2 1.8.4.6.3.8-.3.5-1-.6-9.5 4.8-10.1 6.5-.2.4-.8.8-1.3.8s-2.2 1.4-3.9 3.1c-1.6 1.8-3 2.8-3 2.3s-.7.2-1.6 1.4c-.8 1.2-2 2-2.5 1.7-.5-.4-.9 0-.9.8 0 3.8-12.6 12.7-16.2 11.4-2.7-.9-4.9 1.3-4.4 4.5.3 2.2-.2 4-1.5 5.9-1.9 2.7-1.9 2.8-.2 3.8 4.7 2.4 32.3-3.5 32.3-7 0-.5.5-.7 1.2-.3.8.5.9.2.5-1-.6-1.4-.3-1.6 1.3-1.1 1.1.4 2 .2 2-.4 0-.6 1.6-1.1 3.5-1.1 3.8 0 12.8-3.7 12-5-.3-.4.3-.7 1.2-.6 1 0 1.8-.5 1.9-1.2.3-2.5.4-2.7 1.2-1.5.5.8 2.9-.5 7.4-4 6.8-5.2 6.8-5.2 1.5-7-10.7-3.8-11.1-4.1-9.1-5.7 1-.8 1.5-1 1.1-.4-.4.7 0 1.5.9 1.8.8.3 1.2.2.9-.3-.3-.6 2.9.2 7 1.6 7.6 2.5 7.6 2.5 10.8-.1 23.4-19.2 32.6-22.2 56.2-18 5 .9 9.8 1.6 10.8 1.7.9.1 1.7.4 1.7.7 0 .4.6.7 1.3.8 10.9.9 12.9 1.5 14.7 4.6 3.3 5.4 3.7 5.7 9 5 4.6-.6 5-.5 5.8 1.6.8 2 1.6 2.4 6.8 2.5 5 .2 17.7 2.5 22.2 4 .9.3 1 1 .3 2.3-1.5 2.7-2.2 7.4-1 6.7.5-.4.7-1.1.4-1.6-.3-.5 0-.6.8-.3s1.7-.2 2.1-1.1c.4-1.1.2-1.4-.7-.9-.9.6-.9.5 0-.8.7-.8 1-1.8.7-2.1-.3-.3.7-.4 2.3-.2 3.4.4 8.8-3.7 7.9-6.1-.3-.7 0-1.1.7-.9 1.5.6 2.8-.3 4.5-3 .7-1.1 2.1-3.3 3.2-4.9 3.6-5.5-3.6-12.5-13-12.6-2.3 0-3-.3-2.2-.9 1-.6 1.2-2.2.7-6.6-.8-5.7-.8-5.7-7.8-9.1-4-1.9-8.1-3.4-9.2-3.3-2 0-2 0 0 .9zm6.8 32.9c5.8 2.9 13.2 3.2 20.2.6 4.1-1.6-.1 1.4-7.8 5.4-11 5.8-12.3 5.6-18.9-2.9-2.4-3.1-2.8-3.2-3.4-1.6-.5 1.2-.2 2.3.9 3.1 2 1.5 2.2 2.5.4 2.5-2 0-5.7-3.8-5.7-5.9 0-4.5 6.8-5.1 14.3-1.2zm-497.8-15.8c-2.4 2.3-4.4 4.4-4.3 4.7.1.4-.1 1.4-.5 2.2-1.2 3.2-1.5 6-.6 6 .6 0 .9.6.8 1.2-.4 3.3.2 4.7 2.1 4.5 2.3-.1 2.5-.8.8-2.5-.7-.7-.8-1.2-.4-1.2.5 0 .1-1.1-.8-2.5s-1.2-2.5-.7-2.5 1.2-1.6 1.6-3.6c.6-3.7 3.4-7.2 7-9.2 1.1-.6 1.4-1.2.7-1.2s-3.2 1.8-5.7 4.1z"/><path d="M248 438.1c-14.2 1.5-17.7 2.2-21.8 4.6-6.8 3.9-8.4 8.2-5.1 14.2 1.9 3.4 2.4 5.2 1.8 6.9-.6 1.5-.2 3.7 1.1 6.9 1.3 3.1 1.5 4.1.5 2.9-1.3-1.7-1.4-1.2-1.1 5 .3 7.3-.1 9.7-1.4 8.9-.5-.3-.6.3-.3 1.4.3 1 0 2.2-.6 2.5-.6.4-1.1 1.6-1.1 2.7 0 1-.5 1.9-1.1 1.9-.6 0-.9.8-.7 1.7.2 1-.5 2.7-1.4 3.8-1 1-1.6 2.5-1.3 3.3.2.7 0 1-.5.7-.6-.3-1 .1-1 .9 0 .9-.6 1.6-1.4 1.6-.8 0-1.8 1-2.2 2.2-.7 2.4-3.7 5.8-5.1 5.8-.4 0-2.4 1.6-4.3 3.5-1.9 2-3.9 3.4-4.5 3.2-.5-.2-2.1 1.2-3.4 3.1-1.3 1.9-2.6 3-3 2.5-.7-1.1-4.1-1.1-5.8 0-.8.5-1.3.3-1.3-.5s-.3-.9-.8-.3c-1.3 1.8-3.1 1.5-3.7-.6-1-3-6.5-8.9-8.3-8.9-1.1 0-.4-1.2 2.1-3.8 4.9-5 5.2-9.2.6-9.2-3.8 0-9.1 2.4-11.6 5.3-1.8 2.1-1.8 2.1 1.8-.1 4.5-2.7 4.6-2.7 5.1.3.3 1.4.1 2.5-.4 2.5s-.7.4-.3.9c.3.6-.1 1.3-.9 1.8-.8.4-1.4 1.2-1.4 1.8.1.5-1.3 1.7-3.1 2.7-4.1 2.1-4.5 2.4-3.6 3.8.5.8 1.4.5 3-1 4.8-4.5 13.5-3.6 13.5 1.5 0 6.6-5.8 13-11.4 12.6-2.8-.1-4.6.2-4.6.8 0 .6.5 1.1 1 1.1.6 0 1 .9 1 1.9 0 3.5 6.8 1.6 11-3 5.1-5.5 13.5-7.6 19.5-4.8 1.5.7 1.3.8-1.2.3-1.7-.3-3.4 0-3.8.5-.3.6-1.2 1.1-1.8 1.1-.7 0-.6-.4.3-1.1 1.3-.9 1.3-1 0-.6-.8.2-1.5 1.5-1.5 2.8-.1 3.3-1.4 6.9-2.6 6.9-.6 0-.8.4-.5.9.4.5.2 1.1-.4 1.3-.6.2-1.2 1.3-1.5 2.6-.2 1.2-.7 2.8-1.1 3.5-.4.6.3.3 1.5-.8 2.2-1.9 2.2-1.9 1.6 1-.4 1.7-1.4 4-2.1 5.2-1.5 2.5-1.9 6.3-.6 6.3 1.2 0 .9 4.3-.3 5.2-.6.5-.5.8.3.8s1.1.7.8 1.7c-.3 1-.8 4.6-1.1 8.1-.4 3.5-.9 7.3-1.2 8.5-.2 1.2-.4 2.6-.4 3.2.4 7.9.2 14.7-.4 17.8-.5 2.6-.3 4.2.6 5.4 1.2 1.4 1.2 1.6 0 .9-1-.7-1.2-.3-.6 1.3.3 1.1.3 2.1-.2 2.1-.8 0-1.2 2.8-1.5 10.2 0 2.4-.5 3.5-1.2 3.1-.6-.4-.5.1.3 1 .9 1.2 1 1.7.2 1.7-.7 0-.9.4-.6 1 .3.5.3 1.6-.1 2.2-.9 1.4-1 2.2-1.8 9.8-.7 6.4-2.2 13.7-4.1 20-.8 2.5-1.7 6.5-2 9-.3 2.5-.8 6.3-1.1 8.5-.3 2.2-.3 3.7.1 3.3.3-.3.8-1.9 1-3.4.2-1.6.4-3.1.4-3.4.1-.3.5.1 1 .9s.5 2.8-.1 4.9c-.7 2.6-.7 3.7.4 4.3.8.5.9.9.2.9s-1.5.7-1.8 1.6c-.5 1.4-.4 1.5.8.5 1.2-1 1.4-.9.9.8-.3 1.2-1 1.8-1.7 1.4-.6-.4-.4.2.4 1.2 1 1.3 1.1 1.6.2 1.1-1-.6-1.3-.1-1 2 .2 1.7-.3 3.5-1.2 4.2-1.1 1-1.1 1.1-.1.6 1.4-.7 1.4-.3-.2 6.1-.3 1.1-.8 2.8-1.2 3.7-.4 1.1-.3 1.8.5 1.8.6 0 .8.5.5 1.1-.4.6-.8 2.3-1 3.7-.9 7.3-2.4 15.2-3.4 17-.7 1.2-.7 2.2-.1 2.4.5.2.6 1.8.1 3.9-.5 2.2-.4 4.3.2 5.4.7 1.3.6 1.6-.2 1.1-.7-.5-1.1.4-1.2 2.6 0 1.8-.3 5.8-.5 8.8-.9 11.6-1.1 57-.2 57 .5 0 .4.8-.1 1.8-.6 1.1-.6 2.4-.1 3.2.5.9.5 1.9-.1 2.6-.7.8-.6 1.4.1 1.9.7.4.7 1.2 0 2.4-.5 1-.7 2.1-.4 2.4.8.8 1 33.8.2 34.3-.4.2-.5 1.7-.3 3.2.1 1.5-.2 3.3-.9 4.1-.9 1.2-.8 1.3.4.6 1.3-.8 1.3-.7.1.8-1.3 1.6-.8 2.2 1.4 1.7.6-.1.7.2.3.5-.4.4-.3 1.7.3 2.8.8 1.4.8 1.8 0 1.3-.6-.4-1.1-.2-1.1.3 0 .6.6 1.1 1.4 1.1 1.5 0 1.4 3.5 0 4.9-.3.3-.4-.3-.2-1.3.1-1-.3-2.1-.9-2.3-.7-.3-1.3.1-1.3.9 0 1.1-.2 1.1-.9-.1-.6-.9-1.1-1-1.5-.2-.4.6.1 1.4 1.1 1.8 1 .4 2.4 1.2 3.1 1.9 2.5 2.5 1.1 2.4-3.5-.2-5-2.9-8.4-5.5-4.5-3.5 1.2.6 2.2.8 2.2.3 0-1.3-3.4-2.1-5.1-1.2-.8.5-3.5 1.1-6.1 1.5-5.8.9-5.7 1.4-2.4-15.1 2.7-13.3 4.4-40 2.5-38.8-.6.3-1.5.1-1.9-.6-.7-1.2-3 11.5-3 16.9 0 1.5-1.3 7.5-3 13.4-4.1 14.6-5.3 23.2-3.9 28 1 3.6.4 5.2-2.1 5.4-2.9.2-4.3-2.2-4.3-8 .1-5.2.1-5.2-.9-.5-.9 4.1-.7 5.3 1.1 8.3 1.2 2 2.1 5.1 2.1 6.8.1 3.2.1 3.2 1.7.2.9-1.7 3.1-4.9 4.9-7.3 1.8-2.4 3.4-4.7 3.6-5.2.2-.5 2.8-1.2 5.8-1.5 5.4-.6 5.6-.6 10 3.7 2.5 2.4 7.9 7 12 10.2 10 7.9 9.8 7.7 5.6 6.4-3.7-1.2-6.4.1-5 2.4.3.4 0 .8-.5.8-.6 0-1.1-.6-1.2-1.3 0-.6-.7.1-1.4 1.8-.7 1.6-1.6 2.9-1.9 2.7-1.5-.6-1.7-.1-.5 1.5 1.2 1.4 1.2 1.6 0 .8-1-.5-1.2-.4-.7.3.4.7 0 2.2-.8 3.4-.9 1.2-1.6 1.9-1.6 1.5 0-.4-1.4 0-3.1.9-1.7.8-2.8 1.1-2.5.5.4-.6-.5-.9-2.1-.8-1.9.1-2.7-.2-2.5-1.1.1-.8-.2-1.1-.8-.7-1.7 1-3.3-.5-2-2 .9-1.1.6-1.3-1.4-1.1-1.4.2-2.4 0-2.1-.3.2-.4-1-1.3-2.6-2s-2.9-1.8-2.9-2.4c0-.7-1.1-2.1-2.5-3.1-1.3-1-2.2-2.2-2-2.6.3-.4-.2-1-1-1.4-3.9-1.4.5 6.8 5.7 10.7 10.3 7.9 39.9 21.7 46.5 21.7 6.3 0 11.2-8.6 8.7-15.1-1.2-2.8-1.3-4.2-.5-5.8 2.2-4 1.2-9.4-3.3-18.1-20.6-40.2-24.6-91.6-14-180 11.2-93.5 22.9-146.7 36.8-168 3.3-5.1 3.7-6.7 2.4-9.6-1-2.2-.8-2.8 2.1-5.7 3.3-3.2 3.3-3.2.7.7-5 7.6-1.7 7.9 10 1.1 10.2-6 11.8-6.3 14.3-2.1 1.2 1.9 2.9 4 3.8 4.7 1.5 1.2 1.6 1.2.7-.1-1.1-1.9-1.3-6-.2-5.4 2 1.3 8.8 11.5 8.3 12.4-.4.6-.1.9.6.8.6-.2 2.6 1.6 4.3 3.9 1.7 2.2 4.1 4.7 5.3 5.4 1.2.6 2 1.6 1.7 2.1-.3.4.2.8 1 .8.9 0 1.6.5 1.6 1.1 0 .5.5.7 1 .4.6-.3 1-.1 1 .5s.4.9.9.6c.5-.3.8.6.6 2.2-.1 1.5-.6 5.4-1 8.7-.6 5.8 2.2 14.1 4.2 12.1.3-.3.1-1.2-.6-1.9-1.6-2 1.4-4.6 3.2-2.8.9 1 .8 1.1-.5.6-1-.4-1.8-.3-1.8.3 0 .5.9 1.2 1.9 1.5 2.1.5 2.1-.6.2-5.6-1.4-3.5-1.4-4-.1-3.2.6.3 1 0 1.1-.7.4-6.9 4-22.2 6-25.1 4.3-6.3 7.1-8.8 8.6-7.6 1 .9.7 1.8-1.6 4.8-10.9 13.9-7.8 25.4 9.9 36.1 7.9 4.8 8.5 4.8 12.5 1.1 12.8-12.3 27.6-13.9 48-5.4 6.2 2.6 7.9 2.7 26 .7 3.2-.4 6.6 0 9.5 1 4.4 1.5 4.4 1.5 15-2.9 5.8-2.4 13.2-4.9 16.5-5.4 3.3-.6 7.3-1.3 9-1.5 2.9-.5 2.9-.5.4 1.8-1.4 1.3-3.5 2.9-4.7 3.5-1.2.6-2.2 1.7-2.2 2.4s.3.8.8.2c1-1.4 3.2-1.7 3.2-.5 0 .5-.5 1-1.1 1-.6 0-.8.7-.5 1.6.6 1.5.4 1.5-1 .3-1.6-1.3-1.6-1.2-.5.8 1.1 2.2-2.1 7.5-3.6 5.9-.8-.8-3.3 1.3-3.3 2.7 0 .6.7.2 1.6-.9 1.5-1.9 1.5-1.8.5.2-1.3 2.7-4 4.9-4.8 4-.4-.4-.1-1.1.7-1.6 1-.6 1.1-1 .3-1-.7 0-1.7.9-2.3 1.9-.6 1.2-2.6 2.2-5.2 2.6-2.4.4-12.4 3.2-22.3 6.2-44.6 13.5-83.4 9.9-111.6-10.4-6.2-4.4-6.3-4.3-10.1 8.4-4.3 14.5-4.9 26.6-1.5 31.5 2.4 3.5 2.5 3.8 1.1 7.9-3 8.6-4.3 15.6-3 17 .8.9.8 1-.1.5s-1.3 0-1.3 1.6c0 1.9.2 2 1.1.8.8-1.1.9-.4.6 2.8-.3 2.4-.1 4 .4 3.6.5-.3.9.4.9 1.5 0 1.2.3 2.1.8 2.1.4 0 .7-5.7.8-12.8.1-18.8 4.1-27.5 5.7-12.4 3.3 30.8 42.8 46.1 89.2 34.5 11.9-3 9.7-4.8-8.5-6.8-13.5-1.5-14-2.1-6.3-7.3 14.1-9.7 16.5-10.9 24.8-12.2 4.4-.7 9.1-1.7 10.5-2.2 6.6-2.5 26.5-4.4 39.3-3.8 3.4.2 21.9-13.1 24.3-17.5 1.2-2.2 3.4-4.7 4.9-5.6 1.8-1.1 2.2-1.8 1.3-2.2-.9-.3-.7-1 1-2.7 1.3-1.2 2.1-2.5 1.7-2.8-.3-.4-1 0-1.5.8-.8 1.3-1 1.2-1-.3 0-.9.8-1.7 1.8-1.8 1 0 1.2-.3.5-.6-.7-.2-1.3-1.4-1.3-2.6-.1-2.6-3.5-5.4-7.6-6.2-1.6-.3-2.4-.3-1.7.1.7.3.9 1.2.6 2.1-.5 1.2-.3 1.4.8.7 2.2-1.4 3.7-1.3 5 .2 1.9 2.3.2 6.5-3.1 7.7-1.7.6-3 1.5-3 1.9 0 .4-.9.8-2.1.8-1.1 0-1.7.4-1.4 1 .3.5 0 1-.8 1s-1.7.9-2 2c-.3 1.3-1 1.8-2.1 1.4-.9-.3-1.6-.1-1.6.6 0 .6-3.6 2.8-8 4.9-4.4 2.1-7.7 4.1-7.3 4.5.4.4-.1.4-1 0-1.1-.4-2.2 0-3 1-.7.9-2.4 1.7-3.7 1.8-3.7.1-16.5 3.4-24.7 6.2-6.4 2.3-19.3 4.4-39.8 6.6-26.5 2.8-55.4-.5-68.9-7.8-5.1-2.8-13.5-11.4-11.7-12 .6-.2.9-.8.5-1.3-.3-.5.2-.9 1-.9 1.4 0 2.1-1.8 1.7-4.2-.4-2.8-.2-10 .3-13.8 3.1-20.7 4.3-21.2 4.8-2 .3 10.1.6 12 2.6 15 2.3 3.5 2.3 3.5 1.6 0-1.9-9.2 7.2-23.1 13.6-20.7 3.7 1.4 3.8 2.4.5 3.7-1.4.5-2.5 1.5-2.5 2.2 0 .9.3.8 1-.2.5-.8 1-1.2 1-.9 0 1.2-2.5 5.6-4.2 7.2-4.8 4.8-6.5 15.4-2.7 16.5 1 .3 1 0-.3-1.3-2.4-2.6 1.4-9 6.7-11.5.6-.3.9-1.1.9-1.8-.1-.7.9-1.5 2.2-1.8 1.4-.4 3.1-1.6 3.9-2.7.8-1.2 1.5-1.6 1.5-1 0 .7-.5 1.5-1 1.8-.6.4-.8 1.1-.4 1.6.3.6 1.2.5 2.2-.3 1.2-1 1.4-1 .8-.1-.4.7-.3 1.3.2 1.3.8 0 .9 1.9.3 5.2 0 .5-.8.8-1.8.8-.9 0-1.4.3-1 .6.5.5-2.4 4.1-7.1 9-.8.9-.9 1.4-.3 1.4.6 0 1 .6.9 1.2-.4 1.9 8.9 3.5 11.4 1.9 1.1-.7 1.7-.8 1.4-.3-.3.6 0 1.2.8 1.5 1.8.7 9.6-2.9 9.6-4.5 0-.9.3-1 .8-.2.8 1.2 29.5-7.1 41-11.9 7.3-3 7.6-2.9 2.1 1.1-2.2 1.7-6.1 4.9-8.5 7.2-4.2 3.9-13.3 9-16.3 9-.8 0-1.2.2-1 .4.7.8 28.3-2.5 34.4-4 3.3-.9 13.4-4.6 22.5-8.3 9.1-3.8 21.7-8.5 28-10.6 12-3.9 24-10 24-12.3 0-2 6.8-8.5 8-7.7.5.3 1-.3 1-1.4 0-1.1.4-2.2.9-2.5 2.1-1.4 1.7-6.1-.5-6.1-1.2 0-2.2.4-2.1 1 .1.5-1.5 1-3.6 1-2 0-3.7.3-3.7.8 0 .4-.3.6-.7.6-2.2-.4-2.5.3-.7 1.7 1 .8 1.4 1.3.7 1-.6-.4-1.7 0-2.5.7-1.6 1.6-10.8 3.1-10.8 1.7 0-.5-.7-.7-1.7-.3-3.2 1.3 3.1-5.8 9.2-10.2 8.5-6.2 13.5-11.3 12.9-13-.4-.9 0-1.5.7-1.5 1 0 1-.3.3-.8-1.2-.7-1.5-4.2-.4-4.2.3 0 1.1.5 1.7 1.1.9.9 1.1.7.7-.9-.4-1.3.7-3.9 2.9-7.4 3.4-5.3 3.6-6.4 2.2-10.9-.8-2.4-.8-2.4-1.8.1-.6 1.4-.9 3.1-.8 3.8.4 2.3-2.7 4.2-6.1 4-2.1-.2-3.2.1-3.1.9.2.7-.7 1-2.3.7-2.8-.5-5.2.5-3.6 1.5.5.3.6 1.5.1 2.6-.4 1.1-.8 1.4-.8.8-.1-.9-.8-1-2.5-.3-1.3.5-2.6.6-2.9.4-1.2-1.2-6.7-1.4-10.8-.4-2.4.6-4.8 1.2-5.4 1.3-.5.1-1.6.6-2.2 1-.7.5-1.7.5-2.3.2-.5-.3-1-.1-1 .5s-.4.9-.9.6c-.5-.4-1.1-.2-1.3.3-.5 1.4-12.4 2.9-14.4 1.8-1.2-.7-1.5-.6-1 .2.5.7-.1 1.1-1.6 1.1-1.3 0-6.8.3-12.3.6-18.7 1.2-41.7-2.1-66.4-9.4-9.2-2.8-15.7-5.5-9.1-3.8 2.9.7 1.4 0-6-3.1-7.6-3.1-15.3-12.7-12.4-15.6.3-.3.7-3 .9-6 .1-3.1 1-7 1.9-8.7.8-1.8 1.3-3.6 1-4.1-.3-.5-.1-.9.5-.9.5 0 1.3-.9 1.6-2.1 1-3.1 7.5-10 8.8-9.2.5.3.7.1.4-.4-.4-.6.8-2.2 2.5-3.7 2.1-1.7 3.4-2.2 3.9-1.5.4.6 1.1.9 1.6.6.5-.3 1 0 1 .8 0 1-.5 1.1-1.9.4-1.9-1-3.8-.5-3.8 1.2 0 .5-1.2 2.2-2.6 3.7-7.9 8.2-7 22 1.9 29.9 7.9 6.9 34.4 17.5 29.7 11.8-1.8-2.1 1.1-6.2 5.8-8.2 8.9-3.7 31.3 1 43.6 9.2 3.7 2.5 7.4 2.3 34.6-1 24-3 27.3-4 29.8-8.7 3.2-6.1 9.6-11.4 10.3-8.6.4 1.3.7-1.8.8-6.9.1-5-.3-9.5-.9-9.8-.6-.4-.7.9-.4 3.3.5 3.3.1 4.4-1.8 6.2-1.5 1.3-1.7 1.9-.7 1.5 1-.4 2-.1 2.4.6.6.8-.2 1-2.7.7-2.4-.2-3.4 0-3.1.7.2.7-.2 1.2-.9 1.2-.7.1-2.8.4-4.5.8-2.3.5-3.3.4-3.3-.5 0-1.1 4-6.9 4.3-6.2.5.9 5.4-1.8 7.2-3.9 1.4-1.7 1.5-2 .3-1-2.7 2-10.8 2.2-10.9.2 0-1-.2-1.2-.6-.4-.2.7-1.2 1.3-2 1.3-1 0-1.3.6-.9 1.6.3.8.2 1.2-.4.9-1.2-.7-5.6 2.1-6.4 4-.3 1 0 1.2 1.2.9 1.5-.5 1.5-.4-.1.6-.9.6-2.3.8-3 .4-.9-.6-.9-.5 0 .7 1.1 1.4.9 1.6-1.7 1.4-1.6-.1-2.7.2-2.4.7.3.4 0 .8-.5.8-.6 0-1.1-.5-1.1-1 0-.6-.5-1-1.1-1-.5 0-.7.4-.4 1 .3.5-.3 1-1.5 1s-1.9.4-1.5.9c.3.6-.6.6-2.5.1s-3.2-.5-3.6.2c-.4.5-2.2.8-4 .6-1.9-.2-3.4-.1-3.4.3 0 2-16.9-.5-35.5-5.2-17-4.3-20.2-5.3-27.3-9-7.2-3.8-7.2-3.8-13.7-.9-3.6 1.6-6.5 2.5-6.5 2 0-1.4 9.3-5.8 11-5.2.9.3.7-.4-.8-2-1.2-1.3-1.9-2.8-1.5-3.1.3-.4.1-.7-.6-.7s-.9-.5-.5-1.2c.5-.8.2-.9-1-.5-1 .4-1.5.3-1.1-.3.4-.6-.3-1.8-1.5-2.8-1.2-.9-3.4-4.6-4.9-8.2-4.7-11.3-5.6-13-6.3-13-.5 0-.8-.6-.8-1.3 0-1.2-2.4-2.8-6.3-4.3-2.5-.9-1.6-2.8 1.6-3.2 1.5-.2 2.7-.6 2.7-1-.1-2.3-14.2-9.1-17.2-8.4-.5.1-.8-.2-.8-.6 0-3.1 17.4-4.6 22.7-2 2 1 3.5 3.7 6.7 12.1 7.9 20.5 21.8 33.6 39.4 37.2 3.7.7 11.1 2.3 16.5 3.4 13.9 3 16.1 2.7 13.4-1.5-.7-1.2 4.4-2.4 9.8-2.3 2.7 0 2.8.1.9.9-1.2.5-3.3 2-4.7 3.3-2.5 2.5-2.5 2.5 6.1 3.3 10.2.8 22-.1 29.2-2.2 2.9-.8 6.2-1.3 7.4-1 1.6.4 2.6-.2 4.1-2.4 2.7-4.1 4.4-4.5 7.3-1.8 2.5 2.3 2.5 2.3 1.1-.2-1.9-3.6-2-5.3-.2-4.6.8.3 1.7.6 1.9.6.2 0 .4 1.1.4 2.5 0 2.5 0 2.5 2 .5s1.9-4.7-.1-3.5c-.5.4-.9.1-.9-.5 0-4.4-11.3-5.6-13.2-1.4-1 2.1-1.7 2.5-4 2-1.5-.3-3-.1-3.3.5-.4.5-1.4.9-2.3.8-1-.1-2 0-2.4.1-.5.1-1.1.3-1.5.4-.5.1-1.4.5-2 .9-.8.5-1.3.4-1.3-.2 0-.6-1.5-1.1-3.2-1.1-5-.1-13.6-2.5-20.8-5.8-3.6-1.6-7.8-3.2-9.5-3.6-8.3-2-25.1-16.7-30.7-26.9-5.8-10.5-23.1-20.2-37.3-20.9-6.9-.4-28.6 3.8-31.3 5.9-.9.8-1.1 1.1-.3.7.9-.5 1.2-.3.7.5-.4.6-1.2.9-1.7.5-.5-.3-1.6 0-2.4.6-.8.7-1.5.9-1.5.4s-.4-.5-.8.1c-3.9 5.4-9.5 6.2-11.7 1.8-.9-1.7-1.3-1.8-2.3-.7-1 1.1-1 1.4.2 1.4.9 0 2 .9 2.6 1.9.5 1.1 1.6 2.5 2.3 3.3.7.7 2 2.6 3 4.1 1.9 2.9 4.7 2.4 4.7-.9 0-.7.4-1.5.9-1.8 1.4-.9 4.1.5 4.1 2.1 0 .8.4 1.2.9.9 1.8-1.1 2 3.9.3 6.9-1.9 3.1-10.2 5.1-10.2 2.4 0-.7-1.1-1-3.2-.6-1.8.3-2.7.3-2 0 1.7-.7 1.5-2.3-.3-2.3-.8 0-1.5-.5-1.5-1.1 0-.5.5-.7 1.2-.3.7.5.8.3.2-.7-.4-.8-.9-2-1.1-2.8-.8-5.4-5.5-4.5-4.8.9.3 2.1-.2 3-2.1 3.8-2.1 1-2.4.9-2.4-.6 0-3.2-8.7-3-10.2.3-1 2.2-2.5 3-5 2.6-.4 0-.5.6-.2 1.4.6 1.4-1.2 2.1-4 1.6-.5-.1-1.5.8-2.3 1.9-.8 1.2-2.1 1.9-2.7 1.7-.9-.4-1.2.3-.9 2.1.3 1.8.2 2.3-.4 1.4-2-2.7-5.5 2.1-4.8 6.5.5 2.8.4 3.4-.4 2.3-.9-1.3-1.1-1.3-1.1.2 0 1.1-.5 1.5-1.4 1.2-.9-.3-1.2-1.3-.9-2.2.5-1.4.3-1.5-.7-.5-1.1 1-1.1 1.5 0 2.8.7.8.8 1.5.2 1.5-.5 0-1.7-1.2-2.7-2.6-1.5-2.4-1.7-2.4-2.9-.8-1.3 1.6-1.4 1.6-2.6-.5-.8-1.5-.8-2.1-.1-1.7.6.4 1.1 0 1.1-.8 0-.9.4-1.6.8-1.6s.8-.8.9-1.8c.4-3.1 1.4-8.7 2-10.2.4-.8.5-1.8.5-2.3-.3-1.2 2.2-.3 3.6 1.3.8.9 1.1 1 .7.2-.9-1.7 3.2-6.2 5-5.6.7.3 1.6 0 2.1-.7.5-.8.3-1-.7-.4-1.2.8-1.2.6 0-.8 1.7-2.1 1.5-2.3-2.9-3.5-3.3-.8-3-.9 4-1.6 9.8-.9 12.2-.6 13.9 1.7.7 1.1 1.6 1.5 2 1 .3-.5 2.7-2.4 5.4-4.2 4.3-2.9 5.2-4.1 4.8-6.4-.1-.5.2-.6.7-.3 1 .6 7.2-2.4 9.4-4.6 2-2 3.8-2.3 3.8-.8 0 .7.6.7 1.8 0 10.2-5.7 47.7-11 59.5-8.4 10.3 2.2 21.7 10.4 36.2 26 10.2 11 16.6 16.4 19.4 16.4.9 0 .2-.9-1.6-2-4.7-2.8-4.1-3.6 3.1-4.4 3.5-.3 7.8-1.1 9.6-1.7 4.1-1.5 5.7-.1 3.9 3.2-4.4 8.1-2.2 9.4 22.4 13.3 8.4 1.3 9.8 1.1 7.8-.9-.5-.6-1.1-1.9-1.3-3-.1-1.1-.5-2.2-.8-2.5-.3-.3-1.4-2.2-2.4-4.3-1.1-2.2-2.9-4-4.3-4.3-1.3-.4-2.3-.9-2.3-1.3s-2.9-1.9-6.5-3.5c-3.6-1.5-6.5-3.2-6.5-3.7s-.7-.9-1.5-.9-1.5-.4-1.5-.8c0-.5-3.5-2.8-7.7-5.2-4.3-2.4-9.7-5.7-12.1-7.3-5.4-3.6-13.8-7.4-18.6-8.2-2-.4-3.6-1.1-3.6-1.5 0-.5-1-.6-2.2-.2-1.2.3-1.9.1-1.5-.5.6-1-6.8-2.8-18.6-4.3-4.2-.6-11-1.4-14.9-1.9-13-1.7-18.1-2.1-33.7-2.6-8.4-.2-15.6-.7-15.9-1-1-.9-3.3-.5-2.7.5.3.5-.1 1-1 1s-1.4-.3-1.1-.8c.6-.9-28.5-1-37.4-.1zm17.2 16.3c-.9 1.1-1.2 1.6-.6 1.3 1.7-1-.3 7.3-2.3 9.5-3.9 4.4-5.1.7-2.3-7.1 1.9-5.2 2.6-6 4.6-5.9 2.2.2 2.2.3.6 2.2zm36.7 18.2c.6-.4.7 1.1.2 8.9-.2 4.8-1.6 6.3-3.8 4.3-1-.9-3-2.2-4.3-2.7-1.9-.8-2-1-.5-.8 1.8.2 4.5-3 4.5-5.3 0-2 2.3-6.4 2.7-5.2.3.6.8 1 1.2.8zm17.4 35.8c.3.8-.5 1.8-1.9 2.5-1.3.6-2.4.6-2.4.2 0-.5.8-1.2 1.8-1.4 1.5-.4 1.5-.5-.1-.6-1.1-.1-2.1.8-2.4 1.9-.7 2.5-6.3 5.8-6.3 3.8 0-2.2 1.5-3.7 5.6-5.8 4.7-2.3 5-2.4 5.7-.6zM447.2 567c-.3 2.1-.9 2.9-1.8 2.6-.7-.3-1.6-.1-1.9.4-.3.5-1.4.7-2.5.5-1.1-.2-2.2 0-2.5.6-.4.5-1.1.9-1.7.9-.6 0 1.1-2.2 3.8-4.9 5.3-5.2 7.4-5.3 6.6-.1zM409 606.7c0 5.1 0 5.1-6.7 6.2-14.1 2.2-33.4 2.1-32.2-.1 1.5-2.9 11.8-7.3 23.4-10.2 16.3-4 15.5-4.2 15.5 4.1zm-84.1 48c-1 1.1-1 1.4-.1.9.7-.4 1.2-.2 1.2.5s-.8.9-2.1.6c-3.2-.8-5.2.2-3.8 1.9.6.8 1.7 1.4 2.3 1.4.6 0 .4-.4-.4-1-.8-.5-1.1-1.2-.7-1.6.3-.4 1.3-.2 2 .4.8.7 1.6 1.1 1.8.9.2-.1-.3.4-1.1 1.1-.8.7-1.5 1.7-1.5 2.2 0 .4-.4 1.2-.9 1.7-.5.4-.6.3-.2-.4.4-.8-.1-1.1-1.3-1-2 .1-2.3 1.7-.6 2.9.6.5.5.8-.3.8s-1 .5-.6 1.2c.5.7.2.9-.9.5-.9-.3-1.8 0-2.1.9-.3.8-.9 1.4-1.3 1.3-2.1-.4-3.3.2-2.7 1.3.5.7.3.8-.5.3-.8-.4-2.4.1-4 1.3-2.4 1.7-2.9 1.8-4.6.6-1.2-.9-1.4-1.4-.5-1.4.7 0 1-.3.6-.7-1.2-1.3 15.5-15.7 20.4-17.6 2.7-1 3.3-.7 1.9 1zM751 437.4c0 .3 1.8 1.6 4 2.9 4 2.4 4 2.4 1.6 4.6-2.1 2-2.4 2-3.6.5-2.2-2.5-10-.2-10 3 0 .6.4.5.9-.3s1.1-.9 1.5-.3c.3.5-.1 1.2-.9 1.6-1.5.5-2.1 3.6-.7 3.6.4 0 .7 1.2.7 2.7.1 1.6.4 5.3.8 8.3.4 3 1 7 1.2 8.8.5 4 10.5 18.2 12.8 18.2.4 0 2.1 1.5 4 3.2 1.8 1.8 4.8 4.5 6.6 5.9 2.2 1.7 3.4 3.5 3.4 5.1 0 2.1.3 2.4 2.3 2 2.8-.5 12.5.9 10.6 1.5-.6.3-1 .9-.6 1.4.7 1.1.1 1.1-2.9 0-2.2-.9-2.4-.7-2 1.1.4 1.3.8 1.6 1.3.8.5-.9.9-.9 1.4-.1.4.6.4 1.1 0 1.1s.1.7 1.2 1.6c1.5 1.2 1.5 1.5.2 1-.9-.2-1.9.2-2.2 1-.3.9-.1 1.2.4.9.6-.3 1 .2 1.1 1.2 0 1.6.1 1.6.9-.2.6-1.3.9-1.5.9-.5.1 2.8-1.7 4.7-2.9 3-.8-1.3-1-1.2-1 .2 0 1 .5 1.8 1.1 1.8.6 0 .8.7.5 1.5-.3.9 0 1.8.8 2.1 1.7.6 1.7 3.4 0 3.4-.8 0-1.1.6-.8 1.5.5 1.3.8 1.3 2.1 0 1.9-2 2.9-1.9 1.3 0-1.1 1.3-1 1.4.1 1 .9-.3 1.4.2 1.5 1.7.1 1.3.4 3.3.7 4.6.3 1.2.2 2-.2 1.7-.5-.2-.8 1.3-.7 3.5 0 2.2.3 4 .7 4 .3 0 .5 1.9.4 4.2-.1 2.7.7 6.2 2.2 9.5 1.3 2.9 2.5 6.9 2.7 9 .3 3.7 1.4 10.8 4.2 26.8.8 4.4 1.4 10.8 1.5 14.3.1 4.2.5 6 1.3 5.5.6-.3.8-.3.4.2-.4.4-.3 1.5.2 2.4.5 1 .5 2.3 0 3.1-.5.8-.2 2.3.8 3.9 1 1.4 1.2 2.2.5 1.8-1.6-1-1.6-.2.1 4.7.7 2.1 1.2 5.1 1 6.7-.2 1.6 0 2.9.5 2.9 1.4 0 2 3.7.7 5.1-.8.9-.8 1 .2.4 1-.5 1.2.1.7 2.9-.5 2.4-.3 3.6.4 3.6.6 0 1 1 1 2.2-.1 1.3.4 4.8 1 7.8s1.2 6.6 1.5 8c.2 1.4.9 4.4 1.5 6.8.7 2.3.9 4.7.6 5.2-.3.6-.2 1 .3 1s1.3 2.4 1.6 5.2c.7 5.1 2.7 14.5 4.8 21.8.5 2 .8 4.9.5 6.5-.4 3-.4 3-.6-.2 0-1.7-.5-3.4-.9-3.7-.5-.3-.5 1.6-.1 4.2 2.9 17 4.3 27.3 4.3 30.9 0 2.3.3 3.7.7 3.1.3-.5 1.1.4 1.7 2.1.7 1.9.7 3.3.1 3.6-.5.4-.9 1.2-.9 1.8 0 .7.4.6 1-.3.9-1.4 1.3 2.1 1.4 11.7 0 1.3.4 2.3.8 2.3s.8 1.8.8 3.9c0 2.2.4 4.2 1 4.6.5.3.8 3 .7 6-.2 2.9.1 5.2.5 4.9 1.1-.7 1 1-.2 2.2-.6.6-.5 1.5.1 2.4.9 1.2 1 1.2.5-.3-.4-1.1-.2-1.6.5-1.2.6.4.7 1.9.4 3.6-.5 2.1-.3 2.9.7 2.9.9 0 .9.3.2.8-1.4.9-.9 4.2.8 5.3 1.1.7 1.1.9-.1.9-.9 0-1.1.6-.6 1.7.7 1.7 1.1 4.4 1.9 12.6.2 2.1.8 4.3 1.3 4.8 1.3 1.3.4 7-1.1 6.3-.6-.3-.3.1.7.9 2.5 2.1 1.8 14.1-1.8 28.5-.8 3.5-1.2 6.8-.9 7.4.4.7.2.8-.4.4-.7-.4-1.2-.1-1.3.6 0 .7-.3 2.2-.6 3.3-.3 1.1-.6 3.1-.6 4.5-.1 1.4-.6 2.8-1.2 3.2-.6.5-.6.8.2.8.9 0 1 .7.3 2.4-.5 1.3-.6 2.7-.3 3 .4.3.1.6-.6.6s-1.1.8-1 1.7c.1 1-.3 2.9-.8 4.3-.6 1.4-.9 2.8-.6 3.2.2.5-.1.8-.6.8-.6 0-1.1.7-1.1 1.5s-.5 1.5-1.1 1.5c-.5 0-.7-.6-.4-1.3.4-.6 0-.4-.9.7-1.4 1.7-1.5 1.7-2.5-1.5-.5-1.9-1-2.7-1-1.9-.1 1.7-4.1 2.2-4.1.5 0-.5-.5-.2-1.1.8-.8 1.4-1.4 1.6-2.5.6-1.2-1-1.3-.9-.8.5.4 1.2.2 1.5-.9 1-.8-.3-1.4-1.3-1.2-2.2.1-.9 0-1.1-.2-.5-.3.7-.8 1.3-1.3 1.3-.4 0-1.1 1.2-1.5 2.7-.4 1.6-.9 2.2-1.3 1.6-1-1.6-3.6.1-2.9 1.9.3 1-.2 1.4-1.5 1.4-1.2-.1-2.3.5-2.6 1.3-.2.8 0 1.1.5.8.5-.3 1 .4 1 1.6.1 1.2-.1 1.7-.5 1.2-2.2-3-4.2-3.8-4.2-1.5 0 1.6.4 2 1.5 1.6 1.9-.7 2 1.7.1 3.3-1.8 1.5-2.7-.6-3.6-8.4-.7-6-.7-6-.8.5-.1 3.8.4 7.6 1.2 9.1 1.1 2.2 1.1 2.9 0 4.4-7.1 9.7 5.9 19.6 17.6 13.5 9.8-5.1 17.1-8.7 21.5-10.7 8.5-3.8 22.8-17.3 25.3-23.8 5.4-13.9 5.2-19.7-1.3-40.5-5.2-16.7-8.1-31.3-13.4-67-4.1-27.4-10.2-60.9-14.7-81-21.6-96.9-24.6-128.7-15.4-161.8 3.6-12.8 3.7-14.2.6-21.8-1.3-3.2-3.3-9.8-4.5-14.7-3.3-14-8.7-22-12.6-18.7-1.2 1-1.3 1.6-.4 2.6.9 1.1.8 1.4-.2 1.4s-1 .3-.1 1.2c1.5 1.5 1.6 3.1 0 2.2-.7-.5-.8-.3-.3.6 1.3 2.2 2.3 7.7 1.5 9-2.8 4.6-6-9.6-3.6-16.3.8-2 1-3.7.5-3.7s-.9.5-.9 1.1c0 .5-.5.7-1 .4-1.1-.7-2.9-1-10.5-2-13-1.6-25.3-14.7-25.4-27-.1-7.2.6-8.2 5.7-8.8 8-.9 10.5-6.8 5.6-12.7-2.3-2.6-14.4-9.9-14.4-8.6zm100.5 425.8c1.7 5.1 2 6.6 3.1 11.7.3 1.4.7 2.8 1 3.3.8 1.3-1.6 3.9-2.9 3.1-.6-.4-.8.2-.5 1.5.4 1.2.2 2-.3 1.6-.8-.5-1.3 1.7-1.2 5.3 0 .6-.5 1.4-1.1 1.6-1 .4-1-.9-.3-5.5.5-3.5.5-8.7 0-12.8-.6-4.6-.6-7.3.1-8 .7-.7.6-1-.2-1-1 0-1.2-3.1-.3-5.8.3-1 1.1.5 2.6 5zm-9.7 38c-3.9 3.6-6.1 5.2-5.3 3.8.9-1.5-1.4.1-6.7 4.9-1.6 1.4-2.8 2.1-2.8 1.7 0-.7-6 3.5-8.8 6.1-.7.7-1.7 1.3-2.2 1.3-.4 0-1 1-1.3 2.1-.4 1.5-1.1 2-2.2 1.5-.9-.3-1.3-.2-1 .4 1.1 1.8-.5 3.2-2.2 1.9-1.2-1.1-1.4-1-1.1.5.2 1.2-.4 2-1.4 2.1-1 .2-3 1.2-4.5 2.3-1.5 1-3.4 1.7-4.2 1.4-.9-.3-1.1 0-.6.8.6 1 .4 1.2-.8.7-1-.3-1.7-.2-1.7.3 0 1.6-2.7 1.1-3.4-.6-1.1-3-.6-4.5 2.9-8.1 1.9-2 3.5-4.2 3.5-4.9 0-.7.8-1 1.9-.7 2.6.7 11.6-3.5 19.3-9 8.1-5.7 10.3-6.8 16.3-8.3 6.9-1.7 8-1.7 6.3-.2zM409.6 439.5c-1 .8-2.3 1.2-2.7.9-.5-.3-.9.2-.9 1 0 .9-.6 1.6-1.2 1.6-.7 0-.5.5.5 1.1.9.6 1.4 1.5 1.1 2.1-.4.6-.1.9.7.6.7-.2 1.6-1.7 2.1-3.3.4-1.5 1.3-3.2 2-3.6.7-.4 1-1 .8-1.3-.3-.2-1.4.2-2.4.9z"/><path d="M196 455.8c-4.3 2.4-6 4.9-4.1 6.1 1.1.7 1.1.9 0 1.4-.8.3.7.6 3.3.6 2.6.1 5 .6 5.4 1.2.3.6 1.4-.2 2.5-2 2.4-4 5.9-5.7 8.7-4.2 2.9 1.6 3.4 1.4 2.3-.8-2.2-4.1-12.3-5.4-18.1-2.3zm571.8 56c-1.8 2-4.7 6.7-6.2 10.4-2.8 6.7-2.8 6.7-4.9 4.7-1.2-1.1-2.7-1.7-3.4-1.5-.7.3-1-.1-.6-1 .3-.8-.1-1.4-1.1-1.4-1.9 0-2-.5-.6-3 .7-1.3.7-2.1-.2-2.6-.7-.4-.8-.3-.4.4 1 1.7-.9 1.5-2.4-.3-.6-.8-.8-2-.4-2.6.5-.8.3-.9-.7-.3-1.9 1.1-4 1.4-3.4.4.5-.7-4.2-2.5-5.7-2.2-.5.1-.8-.3-.8-.9 0-.5-.4-.7-1-.4-.5.3-1 0-1-.7s-.7-.3-1.5.9-2.3 2.2-3.3 2.2c-3.5-.1-5.5.8-7.4 3.2-1.1 1.3-1.7 1.8-1.3 1.1.3-.6.2-1.2-.3-1.2-2.1 0-2.1 3.5-.1 11.3 2.8 10.9 2.8 10.9 10.7 15 4.7 2.5 7.7 4.9 9.5 7.5 1.4 2.1 4.8 6.5 7.7 9.8 2.8 3.2 6.7 8.7 8.7 12.1 3.3 6 5.2 8.4 3.5 4.5-3.5-7.6-4.6-9.7-6.3-11.5-1-1.1-1.9-2.6-1.9-3.2 0-.7-1.8-3.3-4.1-5.9-2.2-2.5-3.6-4.6-2.9-4.6.6 0 .9-.4.6-.8-.3-.5.9-.9 2.6-1 1.7 0 3.4-.6 3.8-1.2.8-1.3 6.9 4.3 8.9 8.3.9 1.6 1.7 2.3 2.1 1.6.5-.7.9-.5 1.4.6.8 2.3.8 2.7-.4 2-.6-.3-.7.1-.3 1 .4 1.2.8 1.3 1.3.5.5-.9 1-.6 1.5.9.4 1.3.9 2 1.2 1.8.2-.3-1.1-3.6-3-7.4-6.9-13.7-8.5-20.2-6.1-25.5.9-2.1 2-3.8 2.4-3.8.4 0 .7-1.7.7-3.8 0-4.5 2.4-9.5 6.6-14 1.7-1.7 2.8-3.2 2.5-3.2-.3 0-2.1 1.7-4 3.8zm-19.5 13c1.2 1.2 2.7 3.7 3.4 5.5.6 1.7 1.2 2.5 1.2 1.6.1-2.2 2.7-3.1 4-1.5.8.9.8 2.2.2 3.9-.5 1.4-.7 2.7-.5 3 .3.3-.4 1-1.5 1.7-1.2.6-2.1.8-2.1.5 0-.3-1.3.1-3 1-1.6.8-3.8 1.5-5 1.5-1.1 0-2 .4-2 .8 0 .5-1.4.7-3.1.4-1.9-.3-2.8-.9-2.5-1.7.3-1-.3-1.2-2-.9-1.3.2-2.4 0-2.4-.6s.4-.9.9-.6c2.1 1.3 1.8-2.4-.4-4.4-3.1-2.9-4-7.7-1.9-10.8 2.2-3.3 13.1-2.9 16.7.6zM150.2 531c-.2 8.5.2 10.3 2.6 10.7 1 .3 1.5-1.6 1.1-4.3 0-.4.5-1 1.1-1.4.8-.5.7-1.1-.4-2.3-.9-.9-1.6-3.4-1.7-5.9-.1-3.5-.2-3.9-.9-1.8-.7 2.5-.7 2.5-1.2-.5-.3-1.7-.6.8-.6 5.5zm2.9 22.4c-1 1.1-.9 1.6.2 2.3 2.5 1.4 4.4 7.5 4.3 14.1-.1 4.4.2 6.1 1.1 5.8.6-.3 1.4 0 1.6.7.3.7.3-2 .1-6-.4-10.1-4.8-20-7.3-16.9zm616.4 15.5c.5 1.4.3 2.1-.3 1.7-.5-.3-.2 1.8.8 4.7 1 2.8 2.8 8.3 4 12.2 1.2 3.8 2.6 7.7 3.2 8.5.6 1 .7.7.1-1-.4-1.4-.7-3.5-.8-4.7 0-1.1-.3-1.9-.7-1.6-.7.4-1.3-3.6-.9-6.5.1-.6-.3-1.2-1-1.2-.6 0-.9-.8-.6-2 .3-1.3.1-1.8-.6-1.3-.7.4-.8 0-.4-1.1.5-1.1.3-1.5-.5-1-.7.5-.9 0-.6-1.4.4-1.4.2-2-.4-1.6-.6.4-.8-.1-.4-1.2.3-1.1.1-2.6-.5-3.4-.8-1.2-.9-.9-.4.9zM158.3 588c-1.8 10.1-1.8 10.1-3.5 6-.9-2.2-2-4-2.3-4-.3 0 .2 1.7 1.1 3.7.9 2.1 1.8 4.4 2.1 5 .3.7.8 1.1 1.2.9.3-.2.5 6 .5 13.7-.1 7.8 0 12.6.3 10.7.2-1.9 1.3-8 2.4-13.5 3.3-16.2 3.8-32.5.9-32.5-.4 0-1.7 4.5-2.7 10zm105.3 101.7c-4.4 13.8-5.1 20.8-2.5 23.6 1 1.1 1.9 1.7 2 1.1 0-.5.2-4.1.3-7.9.1-3.9.5-7.9.8-9 .9-3.3 2-12.5 1.5-12.5-.3 0-1.2 2.1-2.1 4.7zm-1.1 72.3c.5 6.7 2.3 14.6 3.1 13.7.3-.3 0-2.5-.7-4.8-.6-2.4-1.5-6.9-2-9.9-.8-5.5-.8-5.5-.4 1zm308.1 13.2c-2.2 2.8-2.8 3-3.6 1.8-.5-.8-1-1.1-1-.5 0 2.8 16.1 21.8 28.1 33 6.2 5.9 4.5 3.1-2.2-3.5-4.2-4.1-10.2-10.8-15.4-17.1-2.2-2.7-4-6.2-5-9.7-.7-2.5-.3-2.7 2.7-1.1s3.4.3.7-2.2c-1.3-1.1-1.8-1.8-1.2-1.4.9.4 1.1.1.7-.9-.8-2.1-.9-2.1-3.8 1.6zm-303.2 6c.3.9-.6 5.6-2 10.4-3 11-3.1 14.4-.1 4.9 3.5-11.1 6.5-12.8 4.5-2.7-1.9 10-1.2 20.9 1.7 26 4.4 7.8 11.3 16.3 10.3 12.4-.6-2.2 1.5-17.7 2.5-18.4.9-.6.9-.8 0-.8-.8 0-1.3-1.2-1.2-2.8 0-1.6.3-2.1.6-1.2.3.8.9 1.7 1.2 2 1.6 1.3 3 6 1.8 6-.7 0-.6.4.4 1 1.3.8 1.4 2 .6 8.7-.5 4.3-1 8.6-1 9.5-.1 1.4-.4 1.5-1.7.5-.8-.6-.1.4 1.5 2.2 4.1 4.5 17.5 11.4 17.5 9 0-.5-.4-.7-1-.4-2.4 1.5.5-16 3.2-19.3.8-.9 2.7-1.3 5.5-1 2.4.2 4.3 0 4.3-.4 0-.5-1-.8-2.2-.8-3.1 0-8.8-3.6-8.8-5.5 0-1-.5-1.3-1.2-.9-.8.5-.9.2-.5-1 .5-1.4.3-1.5-1-.7-1.3.7-2.2.4-3.5-1.1-.9-1.1-2.2-1.7-2.7-1.3-.6.3-1.1 0-1.1-.8s-.6-1.7-1.4-2c-.7-.3-2.7-3-4.4-6.1-1.8-3-4.1-6-5.2-6.6-1.1-.6-1.8-1.5-1.5-1.9.3-.5-.6-1.1-1.8-1.5-2.7-.6-9.8-8.7-12.2-13.7-.8-1.9-1.3-2.7-1.1-1.7z"/><path d="M306.3 801.5c-1 .8-1.4 2-1 3.4.3 1.1.1 1.9-.4 1.5-1.5-.9-1 7 .6 9.3.8 1.1 3.7 3.5 6.5 5.3 3.1 2 5 3.9 5 5.1 0 1.1.7 1.9 1.6 1.9 1.3 0 1.4-.3.5-1.4-.9-1.1-.6-1.2 1.4-.8 3 .5 3.1 0-.2 5.8-1.6 2.7-4.2 8-5.9 11.9-3.1 6.9-3.8 7.4-7.9 6.1-1.1-.3-.2.3 2.1 1.4 4.3 2.1 17.2 4.5 20.1 3.7 1.4-.4 1.3-.5-.4-.6-2.8-.1-2.8.2-.2-5.8 5.2-12.3 9.7-16.4 21.1-19.7 3.2-.9 8.4-3.2 11.5-5.1 4.2-2.5 5.9-3.1 6.5-2.2.7 1.1.9 1 1.2-1.2 0-.5 3.4-4.3 7.5-8.4 7.6-7.6 9.7-11.4 6-10.4-1 .3-1.9 0-1.9-.6 0-.8-.4-.7-1.2.1-1.5 1.5-5.2 1.6-4.3.1.4-.6-1.2-.1-3.5 1.1-2.3 1.2-4 2.4-3.7 2.7.3.2 1.5 0 2.6-.7 1.2-.6 2.6-.8 3.1-.5 1.3.8 1.3 3.5-.1 3.5-.5 0-.8.4-.5.9.6.9-5.8 5.8-11.1 8.4-1.7.9-3.8 2.3-4.6 3.1-8.5 8.6-27.2 10.3-34.8 3.3-1-1-1.9-1.4-1.9-1 0 .4-.4.3-.8-.3-.4-.5-2.3-2-4.3-3.2-5.3-3.2-11.5-16.9-7.3-16.1 1.8.3 3.4-.1 3.4-.9 0-1.3-2.8-1-4.7.3zm280.3 34.6c-1.5 1.6-2.4 2.9-1.8 2.9 1.3 0 3.9 2.6 9.5 9.3 2.7 3.1 5.2 5.5 5.7 5.2.5-.3 1.1-.1 1.5.5.3.5.1 1-.6 1s.1 1.5 1.7 3.2c5.3 5.8 9.3 11.4 11.3 16.2 1.1 2.5 2.7 4.6 3.5 4.6 2 0-.7-6.8-3.5-8.8-1-.7-1.9-1.8-1.9-2.4 0-.5-2.3-3.5-5-6.5-2.8-3-4.8-5.8-4.5-6.3.3-.4-1.3-2.4-3.4-4.3-2.2-2-3.6-3.9-3.3-4.3.4-.4.2-.4-.5 0-.7.3-1.4-.2-1.8-1.4-.4-1.1-1.1-1.7-1.7-1.4-.8.5-.9.1-.5-1s.3-1.5-.4-1c-.8.4-.9-.6-.4-3.4.8-5.1-.4-5.8-3.9-2.1zm-227 26.4c-2.8 4.3-4.8 10.7-3.6 11.9.7.7 1 .3 1-1.3 0-1.3 1.1-4.6 2.5-7.3 2.8-5.5 2.8-7.4.1-3.3zm84.5 2.9c-3.4 4.1.8 11.6 7.4 13.2 5.2 1.2 5.8 2.2 5.1 8.6-.5 3.7-.3 5.8.3 5.8 1.7 0 3-7 2.9-15.8 0-9-.2-9.1-8.6-6.6-.9.3-.6-.2.8-1 2.5-1.6 2.5-1.6-.3-1.2-1.6.3-2.5.1-2.2-.5.4-.5 2.5-.8 4.7-.7 4.1.3 6.3-1.4 3.4-2.5-3.9-1.5-11.7 2.3-9.6 4.8 1.5 1.8.9 2.8-1.2 2-2.2-.9-1.6-5.7.7-6.6 1.9-.7 1.9-.8-.1-.8-1.2-.1-2.7.5-3.3 1.3zm213.6 28.1c.6 3.5-1.1 7-2.8 5.9-2-1.2-.7 1.6 1.3 3 1.2.9 1.8 1.6 1.3 1.6-.6 0-.3.4.5 1 1.2.8 1.2 1-.4 1.6-1.3.5-1.4.9-.6 1.4.8.5.9 1.3.4 2.1-1.2 1.9-1.4 4-.4 3.4.5-.3.7.9.6 2.7-.2 2.2-.8 3.2-1.7 3-1.6-.4-4.9-4.3-4.4-5.2.2-.3-.3-1.6-1.1-3-1.5-2.4-1.5-2.3-.9 1.8.6 5 2.6 8.5 6.5 11.2 4 2.8 4.3 2.6 3.8-2.8-.3-2.6-.3-4.2-.1-3.5.7 1.8 5.2-.6 5.9-3.2.3-1.1 0-4.1-.7-6.5-.6-2.5-1.2-6.4-1.3-8.7-.1-2.9-.9-5-2.5-6.7-3.3-3.5-4.1-3.3-3.4.9zM.2 935.4c.1 8.8.3 15.3.5 14.4.4-1.7 5.7-4.1 6.7-3.1 1.4 1.5.4 2.3-2 1.7-2-.5-2.5-.3-2.2.7.3.8-.3 2.5-1.4 3.8-1.6 2.2-1.8 4.5-1.8 26.7.1 24.4.1 24.4 9 24.4 6.1 0 9-.4 9.3-1.3.4-.9.6-.9.6 0 .1.7.8 1.3 1.7 1.3 1.4 0 1.4-.3.4-1.5-1.1-1.3-1-1.4.3-.9 1.7.6 5.7-1.1 5.7-2.5 0-.5-1.2-.6-2.7-.3-2.8.5-2.8.5-.8-1.4 1.2-1 1.5-1.5.8-1-.9.5-1.3.4-1.3-.5-.1-1-.4-.8-1.1.4-.5.9-.7 2.2-.4 2.7.3.6-.1 1-.9 1-.9 0-1.6-.5-1.6-1 0-.6-.5-.9-1.1-.8-.6.2-1.3-.3-1.4-1-.2-.7-.1-.8.1-.3.7 1.3 3.4.2 3.4-1.4 0-.7.6-1.5 1.2-1.8 1-.3 1-.7.1-1.7-1.3-1.4-3.8 2.1-2.5 3.5.4.5.2.5-.4.2-.7-.4-2.4-.1-3.9.7-3.1 1.6-5.6 1.1-4.9-.9.4-.9-.3-1.1-2.3-.7-2.8.5-2.8.5-.3-1.7 2.4-2.1 1.7-4-1.4-4.1-.4 0 .2-.9 1.5-1.9 1.7-1.4 2.6-1.6 3.1-.8.4.7.8.7.8.2 0-2.7-1.7-3.6-4.5-2.5-3.3 1.2-3.9.9-3.1-1.8.4-1.2 1.6-2 3.1-2 1.4 0 2.2.4 1.9.9-.3.5.3.6 1.3.2 1.5-.6 1.4-.8-.8-1.7-1.4-.6-2.4-1.7-2.2-2.4.3-.6 1-.9 1.5-.6.7.4.8.2.4-.4-.4-.7-1.6-1.2-2.7-1.2s-1.9-.7-1.9-1.8c0-1.5.2-1.5 1.1-.2.8 1.1.9.8.4-1.5-.6-2.9-.6-2.9.9-1 .9 1.1 1.6 1.4 1.6.7 0-1.5 3-1.6 3-.1 0 .5.5.7 1.1.3.8-.4.7-.9-.2-1.5-.8-.5-1-.9-.5-.9s.1-.9-.9-2c-1.7-1.9-1.7-2 .1-2 1.8-.1 1.8-.1.1-1.1-.9-.5-2.1-.8-2.6-.5-.4.3-.7-.8-.5-2.4.2-1.9-.1-3-.9-3s-.7-.3.3-.9c.8-.6 1.8-.7 2.2-.5.4.3.8 0 .8-.5 0-.6-.9-1.1-2-1.1-2.3 0-2.7-1.5-.5-2.4.8-.3 1.5-.2 1.5.2s1.1.8 2.5.8c3.2.2 3.2-.9-.3-3.6-1.6-1.3-2-1.9-.9-1.6 1.1.3 1.6.2 1.2-.4-.3-.6-.1-1 .4-1 1.7 0 .8-2.3-1.9-4.7-1.4-1.3-2.6-3.3-2.6-4.5-.3-4.6-.4-4.9-1.7-4.2-.7.5-.6 0 .3-1.1.8-1 1-1.6.4-1.2-.7.4-1.5 0-1.8-.9-.3-.8-.2-1.3.2-1 .4.2.8-.5.9-1.7 0-1.2-.1-1.6-.4-1-.3.7-.9 1.3-1.5 1.3s-.7-.8-.4-1.7c.4-.9.1-2-.5-2.4-1.6-.9-.2-2.9 1.6-2.3.8.4 1.2 1 .9 1.5-.3.5.2.6 1 .3 2.6-1 1.8-2.1-2.4-3.2-4-1-4-1-3.8 15.2zm284.4-.4c.4 2.5 1.1 5.4 1.6 6.5.6 1.5.7 1.2.4-1.3-.7-4.5-.4-4.1 3.4 3.3 1.8 3.6 3.7 6.5 4.1 6.5.9 0-7.4-16.7-9.2-18.5-.7-.7-.8.5-.3 3.5zm714.8 39.2c.3.9-.2 1.9-1.1 2.2-.9.4-1.3 1.4-1 2.6.4 1.7.2 1.8-1.5.9-2.6-1.4-3.5-.4-1.7 1.7 1.3 1.6 1.2 1.7-.7 1.2-1.4-.4-2.7.1-3.8 1.3-1.8 2.1-.8 2.6 1.3.6 1.1-1 1.3-.9.8.5-.4 1.3-.2 1.5 1 1.1 1.2-.5 1.4-.3.8.6-.4.8-.3 1.6.4 2 .6.4 1.3 2.1 1.5 3.8.4 2.9.3 3-2 1.9-1.3-.6-2.4-1.7-2.4-2.4s.4-1.1.9-.7c.5.3 1.2.1 1.5-.4.4-.5.2-1.2-.4-1.6-.5-.3-1.5.3-2.1 1.4-1.2 1.9-1.3 1.9-2.9-.2-1.5-1.8-1.7-1.9-2.3-.3-.5 1.1-.3 1.5.5 1 .7-.4.8-.3.4.5-.4.6-1.1.9-1.6.6-1.1-.7-3.3 2.2-3.7 4.7-.3 1.6 0 1.8 1 1s1.3-.5 1.5 1.4c.2 2.3 0 2.4-1.4 1-1.9-1.9-3.8-2.1-3.1-.3.2.6 1 1.1 1.7.9.7-.2 1 .3.7 1.1-.5 1.2 1.4 1.5 10.9 1.6 11.5.2 11.5.2 11.3-14.3 0-9.1-.5-14.8-1.1-15.3-.6-.3-.8-.1-.5.5 1.1 1.6-.3 4.2-2.2 4.2-1.3 0-1.4-.2-.2-.9 1.2-.8 1.2-1.4.3-3.3-.7-1.3-1.1-1.5-.8-.6zM33 997.8c-1.7 1.4-2.1 2.4-1.5 4.1.6 1.8.9 2.1 1.6 1 .5-.8.9-.9.9-.4 0 .6 1.4 1.2 3.1 1.3 1.9.2 2.8-.2 2.4-.8-.3-.5-.1-1 .5-1 1.5 0-.9-2.4-3.3-3.3-1-.4-1.5-1.1-1.2-1.7.9-1.5 0-1.2-2.5.8z"/></svg>